<svg width="24" height="24" viewBox="0 0 24 24" fill="none" xmlns="http://www.w3.org/2000/svg">
<path d="M22 4V20H20.8887V19.0176L14.1494 17.2861C13.8298 18.8359 12.4927 20 10.8887 20C9.04849 19.9999 7.55566 18.4641 7.55566 16.5713C7.55568 16.2428 7.60027 15.9211 7.68359 15.6211L3.11133 14.4463V15.4287H2V8.57129H3.11133V9.55371L20.8887 4.98242V4H22ZM8.76367 15.9004C8.70126 16.1109 8.66701 16.3393 8.66699 16.5713C8.66699 17.8319 9.66308 18.8573 10.8887 18.8574C11.972 18.8574 12.8714 18.0604 13.0693 17.0068L8.76367 15.9004ZM3.11133 10.7324V13.2676L20.8887 17.8389V6.16113L3.11133 10.7324Z" fill="#090907"/>
</svg>
