<svg width="24" height="24" viewBox="0 0 24 24" fill="none" xmlns="http://www.w3.org/2000/svg">
<path d="M18.3633 5.7041C20.3715 5.7041 21.9999 7.31507 22 9.30273V17.4014C21.9997 19.3889 20.3714 21 18.3633 21H7.4541C5.44617 20.9997 3.81862 19.3887 3.81836 17.4014V10.2031H3.81934C3.83026 10.0406 3.90058 9.88643 4.01758 9.77051C4.14544 9.64395 4.31917 9.57227 4.5 9.57227C4.68083 9.57227 4.85456 9.64395 4.98242 9.77051C5.09942 9.88643 5.16974 10.0406 5.18066 10.2031H5.18164V15.9902L7.87988 13.1396C8.59729 12.3506 9.84496 12.3441 10.5703 13.126L13.0254 15.7725L15.6836 13.0273C16.4009 12.2867 17.5975 12.2885 18.3125 13.0312L20.6367 15.5254V9.30273C20.6366 8.06047 19.6184 7.05371 18.3633 7.05371H8.52734C8.34652 7.05371 8.17279 6.98202 8.04492 6.85547C7.91721 6.729 7.84481 6.55771 7.84473 6.37891C7.84473 6.19993 7.91706 6.02792 8.04492 5.90137C8.17278 5.77485 8.34654 5.7041 8.52734 5.7041H18.3633ZM9.56641 14.0391C9.3851 13.8436 9.07293 13.8448 8.89355 14.042L5.24707 17.9395C5.49084 18.9216 6.38664 19.6502 7.4541 19.6504H14.7715L9.56641 14.0391ZM17.3252 13.9619C17.1464 13.7763 16.8472 13.7758 16.668 13.9609L13.9971 16.7188L16.6631 19.6504H18.2812L19.1543 19.5107C20.0196 19.193 20.6365 18.3683 20.6367 17.4014V17.3662L17.3252 13.9619ZM12.9092 9.30273C13.6622 9.30278 14.2723 9.90707 14.2725 10.6523C14.2725 11.3851 13.6827 11.9819 12.9473 12.002H12.9092C12.1561 12.002 11.5449 11.3977 11.5449 10.6523C11.545 9.90704 12.1561 9.30273 12.9092 9.30273ZM4.52051 4C4.91483 4 5.23438 4.31675 5.23438 4.70703V5.70996H6.36328C6.73984 5.70996 7.0459 6.01207 7.0459 6.38477C7.04575 6.75734 6.73975 7.05957 6.36328 7.05957H5.23438V8.0625C5.23419 8.45262 4.91471 8.76855 4.52051 8.76855C4.12636 8.76849 3.80683 8.45259 3.80664 8.0625V7.05957H2.68164C2.30525 7.05948 2.00015 6.75728 2 6.38477C2 6.01212 2.30516 5.71006 2.68164 5.70996H3.80664V4.70703C3.80664 4.31679 4.12624 4.00006 4.52051 4Z" fill="black"/>
</svg>
