<svg width="24" height="24" viewBox="0 0 24 24" fill="none" xmlns="http://www.w3.org/2000/svg">
<path d="M19.5 17L22 18.25L19.5 19.5L18.25 22L17 19.5L14.5 18.25L17 17L18.25 14.5L19.5 17ZM10.5469 6.59766L12 9.5L14.9023 10.9531L17 12L14.9023 13.0469L12 14.5L10.5469 17.4023L9.5 19.5L8.45312 17.4023L7 14.5L4.09766 13.0469L2 12L4.09766 10.9531L7 9.5L8.45312 6.59766L9.5 4.5L10.5469 6.59766ZM8.67578 10.3359L8.39453 10.8945L7.83594 11.1758L6.19141 12L7.83594 12.8242L8.39453 13.1055L8.67578 13.6641L9.5 15.3086L10.3242 13.6641L10.6055 13.1055L11.1641 12.8242L12.8086 12L11.1641 11.1758L10.6055 10.8945L10.3242 10.3359L9.5 8.69141L8.67578 10.3359ZM19.5 4.5L22 5.75L19.5 7L18.25 9.5L17 7L14.5 5.75L17 4.5L18.25 2L19.5 4.5Z" fill="#090907"/>
</svg>
