<svg width="24" height="24" viewBox="0 0 24 24" fill="none" xmlns="http://www.w3.org/2000/svg">
<path d="M22 20.75V22H2V20.75H22ZM21.0625 18.25V19.5H2.9375V18.25H21.0625ZM5.75 10.75V15.75H8.875V10.75H10.125V15.75H13.875V10.75H15.125V15.75H18.25V10.75H19.5V15.75H20.125V17H3.875V15.75H4.5V10.75H5.75ZM22 7.625V9.5H2V7.625L12 2L22 7.625ZM3.4375 8.25H10.0234C9.88672 7.96484 9.8125 7.64844 9.8125 7.3125C9.8125 6.10547 10.793 5.125 12 5.125C13.207 5.125 14.1875 6.10547 14.1875 7.3125C14.1875 7.64844 14.1133 7.96484 13.9766 8.25H20.5625L12 3.43359L3.4375 8.25ZM12 6.375C11.7514 6.375 11.5127 6.4736 11.3369 6.64941C11.1611 6.82523 11.0625 7.06386 11.0625 7.3125C11.0625 7.56114 11.1611 7.79977 11.3369 7.97559C11.5127 8.1514 11.7514 8.25 12 8.25C12.2486 8.25 12.4873 8.1514 12.6631 7.97559C12.8389 7.79977 12.9375 7.56114 12.9375 7.3125C12.9375 7.06386 12.8389 6.82523 12.6631 6.64941C12.4873 6.4736 12.2486 6.375 12 6.375Z" fill="#090907"/>
</svg>
