<svg width="24" height="24" viewBox="0 0 24 24" fill="none" xmlns="http://www.w3.org/2000/svg">
<path d="M10.7139 19.5C10.7139 20.1914 11.2888 20.75 12 20.75C12.7112 20.75 13.2861 20.1914 13.2861 19.5H14.5713C14.5713 20.8789 13.4183 22 12 22C10.5817 22 9.42871 20.8789 9.42871 19.5H10.7139ZM12.6426 3.28125C15.893 3.59375 18.4287 6.25781 18.4287 9.5V13.3047L20.8115 15.6211L21 15.8047V18.25H3V15.8047L3.18848 15.6211L5.57129 13.3047V9.5C5.57129 6.25781 8.10698 3.59375 11.3574 3.28125V2H12.6426V3.28125ZM12 4.5C9.15938 4.5 6.85742 6.73828 6.85742 9.5V13.8203L6.66797 14.0039L4.28613 16.3203V17H19.7139V16.3203L17.332 14.0039L17.1426 13.8203V9.5C17.1426 6.73828 14.8406 4.5 12 4.5Z" fill="#090907"/>
</svg>
