<svg width="24" height="24" viewBox="0 0 24 24" fill="none" xmlns="http://www.w3.org/2000/svg">
<path d="M13.3027 5L13.4434 5.26562L16.5938 11.2529C17.0312 11.0904 17.5063 11 18 11C20.2094 11 22 12.7906 22 15C22 17.2094 20.2094 19 18 19C15.7906 19 14 17.2094 14 15C14 13.6438 14.6748 12.4436 15.7061 11.7217L15.0439 10.4629L12.4375 15.2402L12.2969 15.5H9.96875C9.72188 17.4719 8.04063 19 6 19C3.79063 19 2 17.2094 2 15C2 12.7906 3.79063 10.9998 6 11.0029C6.46562 11.0029 6.9125 11.0816 7.32812 11.2285L8.15625 9.56836L7.21582 8H5V7H7.78418L7.93164 7.24414L8.98438 9H14.2754L12.6973 6H11V5H13.3027ZM6 12C4.34375 12 3 13.3438 3 15C3 16.6562 4.34375 18 6 18C7.48748 18 8.72146 16.9187 8.95898 15.5H6L5.55273 14.7783L6.875 12.1309C6.60003 12.0465 6.30621 12 6 12ZM18.0029 12C17.678 12 17.3621 12.0535 17.0684 12.1504L18.4473 14.7686L18.6777 15.2129L17.7939 15.6777L17.5596 15.2344L16.1816 12.6162C15.464 13.1632 15.0029 14.029 15.0029 15C15.0029 16.6562 16.3468 17.9999 18.0029 18C19.6592 18 21.0029 16.6562 21.0029 15C21.0029 13.3438 19.6592 12 18.0029 12ZM6.80957 14.5H11.1152L8.76855 10.584L6.80957 14.5ZM9.58398 10L11.9785 13.9941L14.1562 10H9.58398Z" fill="#090907"/>
</svg>
