<svg width="24" height="24" viewBox="0 0 24 24" fill="none" xmlns="http://www.w3.org/2000/svg">
<path d="M5.5332 11.0273C5.40577 11.355 5.33305 11.7103 5.33301 12.083C5.33301 12.2512 5.35061 12.4158 5.37793 12.5762C4.30009 12.8462 3.47168 13.827 3.47168 15C3.47168 16.3812 4.61926 17.4999 5.97168 17.5C7.20918 17.5 8.19082 16.6406 8.4502 15.5H6.16211C5.50297 15.4997 5.11951 14.8341 5.40039 14.2686L5.74707 13.5752C6.2562 14.4275 7.18503 15 8.25 15H8.66699V15.417C8.66707 16.108 8.90887 16.7415 9.31055 17.2412C8.59143 18.3016 7.37849 19 6 19C3.79094 19 2 17.2094 2 15C2 12.9486 3.54408 11.2585 5.5332 11.0273ZM18 11C20.2094 11 22 12.7906 22 15C22 17.2094 20.2094 19 18 19C16.3197 19 14.8825 17.964 14.29 16.4961C14.4234 16.162 14.5 15.7987 14.5 15.417V15H14.917C15.1177 15 15.3136 14.9791 15.5029 14.9404C15.5025 14.9602 15.5 14.9801 15.5 15C15.5 16.3812 16.6188 17.5 18 17.5C19.3813 17.5 20.5 16.3812 20.5 15C20.5 13.6187 19.3813 12.5 18 12.5C17.9323 12.5 17.8652 12.5046 17.7988 12.5098C17.8193 12.3704 17.833 12.228 17.833 12.083C17.833 11.7067 17.7597 11.3479 17.6299 11.0176C17.7518 11.0071 17.8751 11 18 11ZM11.583 7.91699C11.9928 7.91699 12.3326 8.21275 12.4023 8.60254C12.4048 8.61609 12.4064 8.62978 12.4082 8.64355C12.4127 8.67848 12.417 8.71386 12.417 8.75V11.25H14.917C15.1323 11.2501 15.3277 11.3327 15.4756 11.4668C15.4804 11.4711 15.4855 11.475 15.4902 11.4795C15.5189 11.5067 15.5448 11.5364 15.5693 11.5674C15.5725 11.5714 15.576 11.5751 15.5791 11.5791C15.6285 11.644 15.6684 11.7161 15.6973 11.7939C15.7004 11.8023 15.7032 11.8108 15.7061 11.8193C15.7187 11.857 15.7292 11.8957 15.7363 11.9355C15.7373 11.941 15.7374 11.9466 15.7383 11.9521C15.745 11.9949 15.75 12.0384 15.75 12.083C15.75 12.1207 15.747 12.158 15.7422 12.1943C15.7174 12.38 15.632 12.5466 15.5059 12.6729C15.4494 12.7293 15.3851 12.778 15.3145 12.8164C15.2673 12.8421 15.2171 12.8626 15.165 12.8789C15.1388 12.8871 15.1122 12.8948 15.085 12.9004C15.0307 12.9115 14.9745 12.917 14.917 12.917H12.417V15.417C12.4168 15.8771 12.0431 16.25 11.583 16.25C11.123 16.2498 10.7502 15.877 10.75 15.417V12.917H8.25C8.09047 12.917 7.94211 12.8707 7.81543 12.793V12.7939C7.81405 12.7931 7.8129 12.7919 7.81152 12.791C7.72763 12.7389 7.65428 12.6723 7.59375 12.5947C7.58762 12.5869 7.58105 12.5794 7.5752 12.5713C7.55862 12.5484 7.54352 12.5245 7.5293 12.5C7.52739 12.4967 7.5253 12.4935 7.52344 12.4902C7.492 12.4342 7.46616 12.3746 7.44824 12.3115C7.44542 12.3016 7.44387 12.2913 7.44141 12.2812C7.43608 12.2594 7.4313 12.2373 7.42773 12.2148C7.42608 12.2045 7.42411 12.1941 7.42285 12.1836C7.41891 12.1507 7.41699 12.1169 7.41699 12.083C7.41701 12.0255 7.42247 11.9693 7.43359 11.915C7.45415 11.8147 7.49378 11.7214 7.54688 11.6377C7.55109 11.6311 7.5542 11.6237 7.55859 11.6172C7.57369 11.5948 7.59028 11.5735 7.60742 11.5527C7.64122 11.5118 7.67882 11.4742 7.71973 11.4404C7.76086 11.4064 7.80532 11.3763 7.85254 11.3506C7.94713 11.2992 8.0528 11.2653 8.16504 11.2539C8.19296 11.2511 8.22133 11.25 8.25 11.25H10.75V8.75C10.75 8.70953 10.7532 8.66979 10.7588 8.63086C10.7597 8.62465 10.7607 8.61847 10.7617 8.6123C10.8274 8.21773 11.1698 7.91715 11.583 7.91699ZM18.6592 14.6436C18.856 15.006 18.7219 15.4622 18.3564 15.6592C17.994 15.856 17.5378 15.7219 17.3408 15.3564L16.7812 14.3242C17.2222 13.9569 17.5517 13.4624 17.7158 12.8965L18.6592 14.6436ZM12.8496 5C13.1902 5 13.5564 5.20129 13.7314 5.52441L15.7793 9.2959C15.5068 9.21167 15.2171 9.16703 14.917 9.16699H14.5V8.75C14.5 7.13917 13.1938 5.83301 11.583 5.83301C11.3785 5.83303 11.1789 5.85447 10.9863 5.89453C10.9766 5.84779 10.9717 5.7994 10.9717 5.75C10.9717 5.33601 11.3343 5.00011 11.7217 5H12.8496ZM7.5 7C7.74058 7 7.94065 7.11579 8.10938 7.28418L8.72559 8.15918C8.68636 8.34992 8.66699 8.54765 8.66699 8.75V9.16699H8.25C8.04134 9.16699 7.83785 9.18882 7.6416 9.23047L7.11523 8.5H5.75C5.33438 8.5 5 8.16562 5 7.75C5 7.33437 5.33437 7 5.75 7H7.5Z" fill="#090907"/>
</svg>
