<svg width="24" height="24" viewBox="0 0 24 24" fill="none" xmlns="http://www.w3.org/2000/svg">
<path d="M22 19H2V6H22V19ZM3.11133 17.917H5.33301C5.33301 16.722 4.33692 15.7501 3.11133 15.75V17.917ZM6.44434 7.08301C6.44434 8.87721 4.95151 10.3329 3.11133 10.333V14.667C4.95151 14.6671 6.44434 16.1228 6.44434 17.917H17.5557C17.5557 16.1228 19.0485 14.6671 20.8887 14.667V10.333C19.0485 10.3329 17.5557 8.87721 17.5557 7.08301H6.44434ZM20.8887 15.75C19.6631 15.7501 18.667 16.722 18.667 17.917H20.8887V15.75ZM12 9.25C12.8841 9.25 13.7323 9.59265 14.3574 10.2021C14.9823 10.8116 15.333 11.6382 15.333 12.5C15.333 13.3618 14.9823 14.1884 14.3574 14.7979C13.7323 15.4073 12.8841 15.75 12 15.75C11.1159 15.75 10.2677 15.4073 9.64258 14.7979C9.01766 14.1884 8.66699 13.3618 8.66699 12.5C8.66699 11.6382 9.01766 10.8116 9.64258 10.2021C10.2677 9.59265 11.1159 9.25 12 9.25ZM12 10.333C11.4107 10.333 10.8454 10.5615 10.4287 10.9678C10.012 11.3741 9.77734 11.9254 9.77734 12.5C9.77734 13.0746 10.012 13.6259 10.4287 14.0322C10.8454 14.4385 11.4107 14.667 12 14.667C12.5893 14.667 13.1546 14.4385 13.5713 14.0322C13.988 13.6259 14.2227 13.0746 14.2227 12.5C14.2227 11.9254 13.988 11.3741 13.5713 10.9678C13.1546 10.5615 12.5893 10.333 12 10.333ZM3.11133 9.25C4.33692 9.24989 5.33301 8.27799 5.33301 7.08301H3.11133V9.25ZM18.667 7.08301C18.667 8.27799 19.6631 9.24989 20.8887 9.25V7.08301H18.667Z" fill="#090907"/>
</svg>
