<svg width="28" height="22" viewBox="0 0 28 22" fill="none" xmlns="http://www.w3.org/2000/svg">
<path d="M16.6949 16.9664V20.2203H11.2711V16.9664H16.6949ZM12.3561 18.0504V19.1354H15.61V18.0504H12.3561ZM13.983 2.86487C17.2778 2.86488 19.9492 5.53546 19.9528 8.83362C19.9528 10.098 19.5595 11.2679 18.8883 12.234C18.7188 12.4781 18.5421 12.7189 18.3658 12.9596C17.949 13.5324 17.5324 14.1054 17.1969 14.7155C16.997 15.0814 16.8711 15.4777 16.7965 15.8844H15.6949C15.7797 15.3218 15.9421 14.742 16.2438 14.193C16.6133 13.5185 17.1014 12.8506 17.5319 12.2574C17.6979 12.0305 17.8539 11.8138 17.9928 11.6139C18.5419 10.8241 18.8639 9.86792 18.8639 8.83069C18.8639 6.13578 16.6779 3.94886 13.983 3.94885C11.2881 3.94885 9.1012 6.13577 9.1012 8.83069C9.10123 9.86792 9.42414 10.8236 9.97327 11.61C10.1122 11.8134 10.2681 12.0274 10.4342 12.2545C10.8647 12.8443 11.3529 13.5122 11.7223 14.1901C12.0239 14.7391 12.1864 15.3189 12.2711 15.8815H11.1725C11.0979 15.4747 10.9731 15.0776 10.7731 14.7115C10.4375 14.0981 10.0201 13.5251 9.60315 12.9557C9.42695 12.7151 9.25109 12.4741 9.08167 12.2301C8.41056 11.2675 8.01724 10.095 8.01721 8.83069C8.01721 5.53577 10.6881 2.86487 13.983 2.86487ZM7.66077 13.4098L7.17639 13.6539L5.4137 14.5358L4.92834 14.7799L4.44397 13.8102L4.92834 13.566L6.69104 12.6852L7.17639 12.441L7.66077 13.4098ZM21.278 12.6852L23.0406 13.566L23.525 13.8102L23.0406 14.7799L22.5563 14.5358L20.7936 13.6539L20.3082 13.4098L20.7936 12.441L21.278 12.6852ZM6.39026 8.28772V9.37268H3.13538V8.28772H6.39026ZM24.8307 8.28772V9.37268H21.5758V8.28772H24.8307ZM13.983 6.11877C12.4847 6.11877 11.2711 7.33238 11.2711 8.83069H10.1862C10.1862 6.73238 11.8847 5.03381 13.983 5.03381V6.11877ZM5.4137 3.12561L5.40979 3.12854L7.17249 4.01038L7.65784 4.25452L7.17249 5.22424L6.68811 4.9801L4.92542 4.09827L4.44104 3.85413L4.92542 2.88147L5.4137 3.12561ZM23.525 3.8512L23.0406 4.09534H23.0377L21.275 4.9762L20.7897 5.22034L20.3053 4.25061L20.7897 4.00647L22.5524 3.12561L23.0406 2.88147L23.525 3.8512Z" fill="black"/>
</svg>
