<svg width="24" height="24" viewBox="0 0 24 24" fill="none" xmlns="http://www.w3.org/2000/svg">
<path d="M22 13.6191V15.4072C21.9999 18.0576 20.4478 20.4596 18.042 21.5352L17.001 22L15.959 21.5352C13.5535 20.456 12.002 18.0574 12.002 15.4072V13.6191L17.001 11.9434L22 13.6191ZM10.332 13.6152V15.292H5.4541L3.74609 20.8789H2L4.22168 13.6152H10.332ZM17.001 20.167L17.3652 20.0029C19.1704 19.1963 20.3339 17.3941 20.334 15.4072V14.8271L17.001 13.71V20.167ZM9.78027 3C12.2345 3.0002 14.2236 5.00102 14.2236 7.46973C14.2236 9.93845 12.2345 11.9392 9.78027 11.9395C7.32584 11.9395 5.33594 9.93857 5.33594 7.46973C5.33596 5.0009 7.32585 3 9.78027 3ZM9.78027 4.67578C8.24583 4.67578 7.00295 5.92628 7.00293 7.46973C7.00293 9.01319 8.24582 10.2637 9.78027 10.2637C11.3146 10.2635 12.5576 9.01307 12.5576 7.46973C12.5576 5.9264 11.3145 4.67598 9.78027 4.67578Z" fill="#090907"/>
</svg>
