<svg width="24" height="24" viewBox="0 0 24 24" fill="none" xmlns="http://www.w3.org/2000/svg">
<path d="M16.582 5.57129H22V21H2V5.57129H7.41797L8.25 3H15.75L16.582 5.57129ZM8.60547 5.97754L8.31641 6.85742H3.25V19.7139H20.75V6.85742H15.6836L15.3984 5.97754L14.8477 4.28613H9.15234L8.60547 5.97754ZM12 8.78613C12.5744 8.78613 13.1432 8.90191 13.6738 9.12793C14.2046 9.35407 14.6875 9.68567 15.0938 10.1035C15.5 10.5213 15.8221 11.0176 16.042 11.5635C16.2619 12.1094 16.375 12.6952 16.375 13.2861C16.3749 13.8769 16.2618 14.462 16.042 15.0078C15.8221 15.5538 15.5 16.0499 15.0938 16.4678C14.6875 16.8856 14.2046 17.2172 13.6738 17.4434C13.1431 17.6694 12.5744 17.7861 12 17.7861C11.4256 17.7861 10.8569 17.6694 10.3262 17.4434C9.79537 17.2172 9.31251 16.8856 8.90625 16.4678C8.50001 16.0499 8.17787 15.5538 7.95801 15.0078C7.7382 14.462 7.62505 13.8769 7.625 13.2861C7.625 12.6952 7.73814 12.1094 7.95801 11.5635C8.17787 11.0176 8.50003 10.5213 8.90625 10.1035C9.3125 9.68567 9.79539 9.35407 10.3262 9.12793C10.8568 8.90191 11.4256 8.78613 12 8.78613ZM12 10.0713C11.1712 10.0713 10.3761 10.4099 9.79004 11.0127C9.20401 11.6155 8.875 12.4337 8.875 13.2861C8.87511 14.1384 9.20415 14.9559 9.79004 15.5586C10.3761 16.1614 11.1712 16.5 12 16.5C12.8288 16.5 13.6239 16.1614 14.21 15.5586C14.7959 14.9559 15.1249 14.1384 15.125 13.2861C15.125 12.4337 14.796 11.6155 14.21 11.0127C13.6239 10.4099 12.8288 10.0713 12 10.0713Z" fill="#090907"/>
</svg>
