<svg width="24" height="24" viewBox="0 0 24 24" fill="none" xmlns="http://www.w3.org/2000/svg">
<path d="M8.38867 17.0625C8.90423 17.0625 9.39905 17.2697 9.76367 17.6387C10.1283 18.0079 10.333 18.5091 10.333 19.0312C10.333 19.5534 10.1283 20.0546 9.76367 20.4238C9.39905 20.7928 8.90423 21 8.38867 21C7.87309 20.9999 7.37827 20.7929 7.01367 20.4238C6.64902 20.0546 6.44434 19.5534 6.44434 19.0312C6.44434 18.5091 6.64902 18.0079 7.01367 17.6387C7.37827 17.2696 7.87309 17.0626 8.38867 17.0625ZM17.833 17.0625C18.3485 17.0625 18.8434 17.2697 19.208 17.6387C19.5727 18.0079 19.7773 18.5091 19.7773 19.0312C19.7773 19.5534 19.5727 20.0546 19.208 20.4238C18.8434 20.7928 18.3485 21 17.833 21C17.3174 20.9999 16.8226 20.7929 16.458 20.4238C16.0934 20.0546 15.8887 19.5534 15.8887 19.0312C15.8887 18.5091 16.0934 18.0079 16.458 17.6387C16.8226 17.2696 17.3174 17.0626 17.833 17.0625ZM8.38867 18.1875C8.16779 18.1876 7.95602 18.2765 7.7998 18.4346C7.64352 18.5928 7.55566 18.8075 7.55566 19.0312C7.55566 19.255 7.64352 19.4697 7.7998 19.6279C7.95602 19.786 8.16779 19.8749 8.38867 19.875C8.60969 19.875 8.82224 19.7862 8.97852 19.6279C9.1347 19.4697 9.22266 19.255 9.22266 19.0312C9.22266 18.8075 9.1347 18.5928 8.97852 18.4346C8.82224 18.2763 8.60969 18.1875 8.38867 18.1875ZM17.833 18.1875C17.6121 18.1876 17.4003 18.2765 17.2441 18.4346C17.0879 18.5928 17 18.8075 17 19.0312C17 19.255 17.0879 19.4697 17.2441 19.6279C17.4003 19.786 17.6121 19.8749 17.833 19.875C18.054 19.875 18.2666 19.7862 18.4229 19.6279C18.5791 19.4697 18.667 19.255 18.667 19.0312C18.667 18.8075 18.5791 18.5928 18.4229 18.4346C18.2666 18.2763 18.054 18.1875 17.833 18.1875ZM5.22266 3L5.31934 3.43945L5.47266 4.125H22L21.6523 5.25L19.2227 13.125H7.49609L8 15.375H19.7773V16.5H7.11133L7.01367 16.0605L4.33301 4.125H2V3H5.22266ZM5.72559 5.25L7.24316 12H18.4062L20.4893 5.25H5.72559Z" fill="#090907"/>
</svg>
