<svg width="24" height="24" viewBox="0 0 24 24" fill="none" xmlns="http://www.w3.org/2000/svg">
<path d="M12.5 2C13.7812 2 14.8828 2.77344 15.3633 3.875H17.5V5.125H20V22H5V5.125H7.5V3.875H9.63672C10.1172 2.77344 11.2188 2 12.5 2ZM6.25 20.75H18.75V6.375H17.5V8.25H7.5V6.375H6.25V20.75ZM12.5 3.25C11.6289 3.25 10.8906 3.84766 10.6836 4.65625L10.5625 5.125H8.75V7H16.25V5.125H14.4375L14.3164 4.65625C14.1094 3.84766 13.375 3.25 12.5 3.25ZM12.5 4.5C12.6658 4.5 12.8252 4.56541 12.9424 4.68262C13.0596 4.79983 13.125 4.95924 13.125 5.125C13.125 5.29076 13.0596 5.45017 12.9424 5.56738C12.8252 5.68459 12.6658 5.75 12.5 5.75C12.3342 5.75 12.1748 5.68459 12.0576 5.56738C11.9404 5.45017 11.875 5.29076 11.875 5.125C11.875 4.95924 11.9404 4.79983 12.0576 4.68262C12.1748 4.56541 12.3342 4.5 12.5 4.5Z" fill="#090907"/>
</svg>
