<svg width="24" height="24" viewBox="0 0 24 24" fill="none" xmlns="http://www.w3.org/2000/svg">
<path d="M10.75 2C12.8203 2 14.5 3.67969 14.5 5.75V15.75C14.5 17.1289 13.3789 18.25 12 18.25C10.6211 18.25 9.5 17.1289 9.5 15.75V7H10.75V15.75C10.75 16.4414 11.3086 17 12 17C12.6914 17 13.25 16.4414 13.25 15.75V5.75C13.25 4.37109 12.1289 3.25 10.75 3.25C9.37109 3.25 8.25 4.37109 8.25 5.75V17C8.25 19.0703 9.92969 20.75 12 20.75C14.0703 20.75 15.75 19.0703 15.75 17V7H17V17C17 19.7617 14.7617 22 12 22C9.23828 22 7 19.7617 7 17V5.75C7 3.67969 8.67969 2 10.75 2Z" fill="#090907"/>
</svg>
