<svg width="24" height="24" viewBox="0 0 24 24" fill="none" xmlns="http://www.w3.org/2000/svg">
<path d="M10 5C11.7625 5 13.3125 5.91289 14.2031 7.29102C14.6812 7.10352 15.2031 7 15.75 7C18.0969 7 20 8.90315 20 11.25V11.5342C21.1969 12.2248 22 13.5188 22 15V19H2V14.5C2.00003 12.5407 3.25314 10.8746 5 10.2559V10C5.00003 7.23753 7.23752 5 10 5ZM10 6C7.79065 6 6.00003 7.79065 6 10V10.9629L5.33398 11.1973C3.97174 11.6818 3.00003 12.9783 3 14.5V18H21V15C21 13.8907 20.3999 12.9223 19.5 12.4004L19 12.1123V11.25C19 9.45628 17.5437 8 15.75 8C15.3313 8 14.9311 8.07793 14.5654 8.22168L13.8066 8.51855L13.3623 7.83105C12.6498 6.72808 11.4093 6 10 6ZM12.3535 9.14648L14.8535 11.6465L15.2061 12L14.5 12.7061L14.1465 12.3535L12.5 10.7061V16H11.5V10.7061L9.85352 12.3535L9.5 12.7061L8.79395 12L9.14648 11.6465L11.6465 9.14648L12 8.79395L12.3535 9.14648Z" fill="black"/>
</svg>
