<svg width="24" height="24" viewBox="0 0 24 24" fill="none" xmlns="http://www.w3.org/2000/svg">
<path d="M12 5C17.5234 5 22 7.51953 22 10.625V15C22 17.7617 17.5234 20 12 20C6.47656 20 2 17.7617 2 15V10.625C2 7.51953 6.47656 5 12 5ZM8.875 18.4805C9.65625 18.6211 10.4961 18.7109 11.375 18.7383V16.2383C10.5078 16.207 9.66797 16.1172 8.875 15.9688V18.4805ZM15.125 15.9688C14.332 16.1172 13.4922 16.207 12.625 16.2383V18.7383C13.5039 18.707 14.3438 18.6211 15.125 18.4805V15.9688ZM5.75 17.543C6.30469 17.7969 6.93359 18.0234 7.625 18.207V15.6836C6.95312 15.5 6.32812 15.2773 5.75 15.0156V17.543ZM18.25 15.0156C17.6719 15.2734 17.0469 15.5 16.375 15.6836V18.207C17.0664 18.0234 17.6953 17.7969 18.25 17.543V15.0156ZM3.25 15C3.25 15.5 3.58203 16.168 4.5 16.8281V14.3477C4.02344 14.043 3.60156 13.7109 3.25 13.3516V15ZM20.75 13.3477C20.3984 13.707 19.9766 14.0391 19.5 14.3438V16.8242C20.418 16.1641 20.75 15.5 20.75 14.9961V13.3477ZM12 6.25C9.41406 6.25 7.13281 6.84375 5.54297 7.73828C3.91406 8.65234 3.25 9.72266 3.25 10.625C3.25 11.5273 3.91406 12.5977 5.54297 13.5117C7.13281 14.4062 9.41406 15 12 15C14.5859 15 16.8672 14.4062 18.457 13.5117C20.0859 12.5977 20.75 11.5273 20.75 10.625C20.75 9.72266 20.0859 8.65234 18.457 7.73828C16.8672 6.84375 14.5859 6.25 12 6.25Z" fill="#090907"/>
</svg>
