<svg width="24" height="24" viewBox="0 0 24 24" fill="none" xmlns="http://www.w3.org/2000/svg">
<path d="M19.333 22H2V2H19.333V22ZM3.33301 20.75H18V3.25H3.33301V20.75ZM22 18.25H20.667V14.5H22V18.25ZM15.333 17H13.9287L13.042 14.5H8.2959L7.4082 17H6L7.33301 13.25H14L15.333 17ZM22 13.25H20.667V9.5H22V13.25ZM10.667 7C11.3741 7.00008 12.0527 7.26365 12.5527 7.73242C13.0526 8.20123 13.333 8.83711 13.333 9.5C13.333 10.1629 13.0526 10.7988 12.5527 11.2676C12.0527 11.7363 11.3741 11.9999 10.667 12C9.95975 12 9.28135 11.7364 8.78125 11.2676C8.28115 10.7987 8 10.163 8 9.5C8 8.83696 8.28115 8.20126 8.78125 7.73242C9.28135 7.26359 9.95975 7 10.667 7ZM10.667 8.25C10.3134 8.25 9.97368 8.38179 9.72363 8.61621C9.47369 8.85062 9.33301 9.16855 9.33301 9.5C9.33301 9.83145 9.47369 10.1494 9.72363 10.3838C9.97368 10.6182 10.3134 10.75 10.667 10.75C11.0205 10.7499 11.3594 10.6181 11.6094 10.3838C11.8594 10.1494 12 9.83152 12 9.5C12 9.16848 11.8594 8.85063 11.6094 8.61621C11.3594 8.38187 11.0205 8.25008 10.667 8.25ZM22 8.25H20.667V4.5H22V8.25Z" fill="#090907"/>
</svg>
