<svg width="24" height="24" viewBox="0 0 24 24" fill="none" xmlns="http://www.w3.org/2000/svg">
<path d="M11.0625 2L17 7.9375V13.25H15.75V9.5H9.5V3.25H3.25V20.75H5.75V22H2V2H11.0625ZM10.4375 15.75C11.3008 15.75 12 16.4492 12 17.3125V18.25H10.75V17.3125C10.75 17.1406 10.6094 17 10.4375 17H9.8125C9.64062 17 9.5 17.1406 9.5 17.3125V20.4375C9.5 20.6094 9.64062 20.75 9.8125 20.75H10.4375C10.6094 20.75 10.75 20.6094 10.75 20.4375V19.5H12V20.4375C12 21.3008 11.3008 22 10.4375 22H9.8125C8.94922 22 8.25 21.3008 8.25 20.4375V17.3125C8.25 16.4492 8.94922 15.75 9.8125 15.75H10.4375ZM17 15.75V17H15.0117C14.7305 17 14.5 17.2305 14.5 17.5117C14.5 17.7148 14.6211 17.8984 14.8047 17.9805L16.2656 18.6289C16.9023 18.9102 17.3125 19.543 17.3125 20.2383C17.3125 21.2109 16.5234 22 15.5508 22H13.25V20.75H15.5508C15.832 20.75 16.0625 20.5195 16.0625 20.2383C16.0625 20.0352 15.9414 19.8516 15.7578 19.7695L14.2969 19.1211C13.6602 18.8398 13.25 18.207 13.25 17.5117C13.25 16.5391 14.0391 15.75 15.0117 15.75H17ZM19.5 15.75V18.7617L20.125 20.4297L20.75 18.7617V15.75H22V18.9883L21.9609 19.0938L20.8711 22H19.3789L18.2891 19.0938L18.25 18.9883V15.75H19.5ZM10.75 8.25H15.543L10.75 3.45703V8.25Z" fill="#090907"/>
</svg>
