<svg width="24" height="24" viewBox="0 0 24 24" fill="none" xmlns="http://www.w3.org/2000/svg">
<path d="M12 2C13.4102 2 14.6562 2.70703 15.4023 3.78125C16.6914 3.55078 18.0703 3.92969 19.0703 4.92969C20.0703 5.92969 20.4531 7.30859 20.2188 8.59766C21.293 9.34375 22 10.5898 22 12C22 13.4102 21.293 14.6562 20.2188 15.4023C20.4492 16.6914 20.0703 18.0703 19.0703 19.0703C18.0703 20.0703 16.6914 20.4531 15.4023 20.2188C14.6562 21.293 13.4102 22 12 22C10.5898 22 9.34375 21.293 8.59766 20.2188C7.30859 20.4492 5.92969 20.0703 4.92969 19.0703C3.92969 18.0703 3.54688 16.6914 3.78125 15.4023C2.70703 14.6562 2 13.4102 2 12C2 10.5898 2.70703 9.34375 3.78125 8.59766C3.55078 7.30859 3.92969 5.92969 4.92969 4.92969C5.92969 3.92969 7.30859 3.54688 8.59766 3.78125C9.34375 2.70703 10.5898 2 12 2ZM12 3.25C10.8945 3.25 9.92969 3.87109 9.44531 4.78906L9.44141 4.79297L9.19922 5.25L8.70703 5.09766C7.71484 4.79297 6.59375 5.03516 5.8125 5.81641C5.03125 6.59766 4.78906 7.71875 5.09375 8.71094L5.24609 9.20312L4.78906 9.44531C3.87109 9.92969 3.25 10.8945 3.25 12C3.25 13.1055 3.87109 14.0703 4.79297 14.5586L5.25 14.8008L5.09766 15.293C4.79297 16.2852 5.03516 17.4062 5.81641 18.1875C6.59766 18.9688 7.71875 19.2109 8.71094 18.9062L9.20312 18.7539L9.44531 19.2109C9.92969 20.1289 10.8945 20.75 12 20.75C13.1055 20.75 14.0703 20.1289 14.5586 19.207L14.8008 18.75L15.293 18.9023C16.2852 19.207 17.4062 18.9648 18.1875 18.1836C18.9688 17.4023 19.2109 16.2812 18.9062 15.2891L18.7539 14.7969L19.2109 14.5547C20.1289 14.0703 20.75 13.1055 20.75 12C20.75 10.8945 20.1289 9.92969 19.207 9.44141L18.75 9.19922L18.9023 8.70703C19.207 7.71484 18.9648 6.59375 18.1836 5.8125C17.4023 5.03125 16.2812 4.78906 15.2891 5.09375L14.7969 5.24609L14.5547 4.78906C14.0703 3.87109 13.1055 3.25 12 3.25ZM16.0078 8.875L8.875 16.0078L7.99219 15.125L15.125 7.99219L16.0078 8.875ZM14.5 13.5625C14.7486 13.5625 14.9873 13.6611 15.1631 13.8369C15.3389 14.0127 15.4375 14.2514 15.4375 14.5C15.4375 14.7486 15.3389 14.9873 15.1631 15.1631C14.9873 15.3389 14.7486 15.4375 14.5 15.4375C14.2514 15.4375 14.0127 15.3389 13.8369 15.1631C13.6611 14.9873 13.5625 14.7486 13.5625 14.5C13.5625 14.2514 13.6611 14.0127 13.8369 13.8369C14.0127 13.6611 14.2514 13.5625 14.5 13.5625ZM9.5 8.5625C9.74864 8.5625 9.98727 8.6611 10.1631 8.83691C10.3389 9.01273 10.4375 9.25136 10.4375 9.5C10.4375 9.74864 10.3389 9.98727 10.1631 10.1631C9.98727 10.3389 9.74864 10.4375 9.5 10.4375C9.25136 10.4375 9.01273 10.3389 8.83691 10.1631C8.6611 9.98727 8.5625 9.74864 8.5625 9.5C8.5625 9.25136 8.6611 9.01273 8.83691 8.83691C9.01273 8.6611 9.25136 8.5625 9.5 8.5625Z" fill="#090907"/>
</svg>
