<svg width="24" height="24" viewBox="0 0 24 24" fill="none" xmlns="http://www.w3.org/2000/svg">
<path d="M11.0625 2L17 7.9375V13.25H15.75V9.5H9.5V3.25H3.25V20.75H5.75V22H2V2H11.0625ZM10.125 15.75C11.1602 15.75 12 16.5898 12 17.625V20.125C12 21.1602 11.1602 22 10.125 22H8.25V15.75H10.125ZM15.4375 15.75C16.3008 15.75 17 16.4492 17 17.3125V20.4375C17 21.3008 16.3008 22 15.4375 22H14.8125C13.9492 22 13.25 21.3008 13.25 20.4375V17.3125C13.25 16.4492 13.9492 15.75 14.8125 15.75H15.4375ZM20.4375 15.75C21.3008 15.75 22 16.4492 22 17.3125V18.25H20.75V17.3125C20.75 17.1406 20.6094 17 20.4375 17H19.8125C19.6406 17 19.5 17.1406 19.5 17.3125V20.4375C19.5 20.6094 19.6406 20.75 19.8125 20.75H20.4375C20.6094 20.75 20.75 20.6094 20.75 20.4375V19.5H22V20.4375C22 21.3008 21.3008 22 20.4375 22H19.8125C18.9492 22 18.25 21.3008 18.25 20.4375V17.3125C18.25 16.4492 18.9492 15.75 19.8125 15.75H20.4375ZM9.5 17V20.75H10.125C10.4688 20.75 10.75 20.4688 10.75 20.125V17.625C10.75 17.2812 10.4688 17 10.125 17H9.5ZM14.8125 17C14.6406 17 14.5 17.1406 14.5 17.3125V20.4375C14.5 20.6094 14.6406 20.75 14.8125 20.75H15.4375C15.6094 20.75 15.75 20.6094 15.75 20.4375V17.3125C15.75 17.1406 15.6094 17 15.4375 17H14.8125ZM10.75 8.25H15.543L10.75 3.45703V8.25Z" fill="#090907"/>
</svg>
