<svg width="24" height="24" viewBox="0 0 24 24" fill="none" xmlns="http://www.w3.org/2000/svg">
<path d="M19 2V3.42871H16.165C12.519 3.42874 9.41806 5.81236 8.2666 9.14258H17.5605V10.5713H7.90918C7.83068 11.0356 7.79102 11.5134 7.79102 12C7.79102 12.4866 7.83504 12.9644 7.90918 13.4287H17.5605V14.8574H8.2666C9.41806 18.1876 12.519 20.5713 16.165 20.5713H19V22H16.165C11.7383 22 8.00019 18.9868 6.80078 14.8574H5V13.4287H6.49609C6.43067 12.96 6.39551 12.4866 6.39551 12C6.39551 11.5134 6.43067 11.04 6.49609 10.5713H5V9.14258H6.80078C8.00019 5.0132 11.7383 2.00003 16.165 2H19Z" fill="#090907"/>
</svg>
