<svg width="24" height="24" viewBox="0 0 24 24" fill="none" xmlns="http://www.w3.org/2000/svg">
<path d="M12 2C14.6522 2 17.1959 3.05335 19.0713 4.92871C20.9467 6.80407 22 9.34784 22 12C22 14.6522 20.9467 17.1959 19.0713 19.0713C17.1959 20.9467 14.6522 22 12 22C9.34784 22 6.80407 20.9467 4.92871 19.0713C3.05335 17.1959 2 14.6522 2 12C2 9.34784 3.05335 6.80407 4.92871 4.92871C6.80407 3.05335 9.34784 2 12 2ZM5.78125 13.25C6.09375 16.4102 8.75781 18.875 12 18.875C15.2422 18.875 17.9062 16.4102 18.2188 13.25H5.78125ZM8.89062 8.25C8.5591 8.25 8.24126 8.38179 8.00684 8.61621C7.77242 8.85063 7.64062 9.16848 7.64062 9.5C7.64062 9.83152 7.77242 10.1494 8.00684 10.3838C8.24126 10.6182 8.5591 10.75 8.89062 10.75C9.22215 10.75 9.53999 10.6182 9.77441 10.3838C10.0088 10.1494 10.1406 9.83152 10.1406 9.5C10.1406 9.16848 10.0088 8.85063 9.77441 8.61621C9.53999 8.38179 9.22215 8.25 8.89062 8.25ZM15.1406 8.25C14.8091 8.25 14.4913 8.38179 14.2568 8.61621C14.0224 8.85063 13.8906 9.16848 13.8906 9.5C13.8906 9.83152 14.0224 10.1494 14.2568 10.3838C14.4913 10.6182 14.8091 10.75 15.1406 10.75C15.4721 10.75 15.79 10.6182 16.0244 10.3838C16.2588 10.1494 16.3906 9.83152 16.3906 9.5C16.3906 9.16848 16.2588 8.85063 16.0244 8.61621C15.79 8.38179 15.4721 8.25 15.1406 8.25Z" fill="#090907"/>
</svg>
