<svg width="24" height="24" viewBox="0 0 24 24" fill="none" xmlns="http://www.w3.org/2000/svg">
<path d="M12 2C14.6522 2 17.1959 3.05335 19.0713 4.92871C20.9467 6.80407 22 9.34784 22 12C22 14.6522 20.9467 17.1959 19.0713 19.0713C17.1959 20.9467 14.6522 22 12 22C9.34784 22 6.80407 20.9467 4.92871 19.0713C3.05335 17.1959 2 14.6522 2 12C2 9.34784 3.05335 6.80407 4.92871 4.92871C6.80407 3.05335 9.34784 2 12 2ZM12 3.25C9.67936 3.25 7.45344 4.17156 5.8125 5.8125C4.17156 7.45344 3.25 9.67936 3.25 12C3.25 14.3206 4.17156 16.5466 5.8125 18.1875C7.45344 19.8284 9.67936 20.75 12 20.75C14.3206 20.75 16.5466 19.8284 18.1875 18.1875C19.8284 16.5466 20.75 14.3206 20.75 12C20.75 9.67936 19.8284 7.45344 18.1875 5.8125C16.5466 4.17156 14.3206 3.25 12 3.25ZM18.0938 13.25C18.0508 13.6797 17.9688 14.0977 17.8438 14.5C17.0625 17.0352 14.7422 18.875 12 18.875C9.25781 18.875 6.9375 17.0352 6.15625 14.5C6.03125 14.0977 5.94922 13.6797 5.90625 13.25H18.0938ZM7.48047 14.5C8.20703 16.3438 9.96875 17.625 12 17.625C14.0312 17.625 15.793 16.3438 16.5195 14.5H7.48047ZM8.89062 8.5625C9.13927 8.5625 9.3779 8.6611 9.55371 8.83691C9.72953 9.01273 9.82812 9.25136 9.82812 9.5C9.82812 9.74864 9.72953 9.98727 9.55371 10.1631C9.3779 10.3389 9.13927 10.4375 8.89062 10.4375C8.64198 10.4375 8.40335 10.3389 8.22754 10.1631C8.05172 9.98727 7.95312 9.74864 7.95312 9.5C7.95312 9.25136 8.05172 9.01273 8.22754 8.83691C8.40335 8.6611 8.64198 8.5625 8.89062 8.5625ZM15.1406 8.5625C15.3893 8.5625 15.6279 8.6611 15.8037 8.83691C15.9795 9.01273 16.0781 9.25136 16.0781 9.5C16.0781 9.74864 15.9795 9.98727 15.8037 10.1631C15.6279 10.3389 15.3893 10.4375 15.1406 10.4375C14.892 10.4375 14.6534 10.3389 14.4775 10.1631C14.3017 9.98727 14.2031 9.74864 14.2031 9.5C14.2031 9.25136 14.3017 9.01273 14.4775 8.83691C14.6534 8.6611 14.892 8.5625 15.1406 8.5625Z" fill="#090907"/>
</svg>
