<svg width="24" height="24" viewBox="0 0 24 24" fill="none" xmlns="http://www.w3.org/2000/svg">
<path d="M9 6.875C10.8565 6.875 12.6374 7.56617 13.9502 8.79688C15.2629 10.0276 16 11.6971 16 13.4375C16 15.1779 15.2629 16.8474 13.9502 18.0781C12.6374 19.3088 10.8565 20 9 20C7.14348 20 5.36256 19.3088 4.0498 18.0781C2.73712 16.8474 2 15.1779 2 13.4375C2 11.6971 2.73713 10.0276 4.0498 8.79688C5.36256 7.56617 7.14348 6.875 9 6.875ZM9 7.8125C8.21219 7.8125 7.43196 7.95763 6.7041 8.24023C5.97627 8.52287 5.31491 8.93775 4.75781 9.45996C4.20066 9.98229 3.75856 10.6027 3.45703 11.2852C3.15553 11.9676 3 12.6988 3 13.4375C3 14.1762 3.15553 14.9074 3.45703 15.5898C3.75856 16.2723 4.20066 16.8927 4.75781 17.415C5.31491 17.9372 5.97627 18.3521 6.7041 18.6348C7.43196 18.9174 8.21219 19.0625 9 19.0625C9.78781 19.0625 10.568 18.9174 11.2959 18.6348C12.0237 18.3521 12.6851 17.9372 13.2422 17.415C13.7993 16.8927 14.2414 16.2723 14.543 15.5898C14.8445 14.9074 15 14.1762 15 13.4375C15 12.6988 14.8445 11.9676 14.543 11.2852C14.2414 10.6027 13.7993 9.98229 13.2422 9.45996C12.6851 8.93775 12.0237 8.52287 11.2959 8.24023C10.568 7.95763 9.78781 7.8125 9 7.8125ZM5.96289 14.668C6.10354 14.9961 6.43432 15.5206 6.95605 15.957C7.47168 16.3877 8.15 16.7188 9 16.7188C9.85 16.7188 10.5285 16.3877 11.041 15.96C11.5627 15.5235 11.8936 14.999 12.0342 14.6709L12.9629 15.0195C12.7691 15.4707 12.3529 16.1182 11.7061 16.6602C11.0561 17.205 10.1499 17.6562 9 17.6562C7.85013 17.6562 6.94412 17.205 6.29102 16.6572C5.64414 16.1152 5.22793 15.4678 5.03418 15.0166L5.96289 14.668ZM6.5127 11.3281C6.71154 11.3282 6.90236 11.4024 7.04297 11.5342C7.18354 11.666 7.2627 11.8448 7.2627 12.0312C7.2627 12.2177 7.18354 12.3965 7.04297 12.5283C6.90236 12.6601 6.71154 12.7343 6.5127 12.7344C6.31382 12.7344 6.12307 12.6601 5.98242 12.5283C5.84177 12.3965 5.7627 12.2177 5.7627 12.0312C5.7627 11.8448 5.84177 11.666 5.98242 11.5342C6.12307 11.4024 6.31382 11.3281 6.5127 11.3281ZM11.5127 11.3281C11.7115 11.3282 11.9024 11.4024 12.043 11.5342C12.1835 11.666 12.2627 11.8448 12.2627 12.0312C12.2627 12.2177 12.1835 12.3965 12.043 12.5283C11.9024 12.6601 11.7115 12.7343 11.5127 12.7344C11.3138 12.7344 11.1231 12.6601 10.9824 12.5283C10.8418 12.3965 10.7627 12.2177 10.7627 12.0312C10.7627 11.8448 10.8418 11.666 10.9824 11.5342C11.1231 11.4024 11.3138 11.3281 11.5127 11.3281ZM19.5 7.34375H22V8.28125H19.5V10.625H18.5V8.28125H16V7.34375H18.5V5H19.5V7.34375Z" fill="#090907"/>
</svg>
