<svg width="24" height="24" viewBox="0 0 24 24" fill="none" xmlns="http://www.w3.org/2000/svg">
<path d="M16.6953 3C19.6249 3 21.9999 5.44275 22 8.45605C22 9.90248 21.4414 11.2889 20.4453 12.3135L19.5 13.2861L12.8828 20.0918L12 21L11.1172 20.0918L4.5 13.2861L3.55469 12.3135C2.55859 11.2889 2 9.90248 2 8.45605C2.0001 5.44275 4.37506 3 7.30469 3C8.71083 3 10.0586 3.57423 11.0547 4.59863L11.1172 4.66309L12 5.57129L12.8828 4.66309L12.9453 4.59863C13.9414 3.57423 15.2892 3 16.6953 3ZM16.6953 4.28613C15.6212 4.28613 14.5898 4.72345 13.8281 5.50684L12.8828 6.47949L12 7.3916L11.1172 6.4834L10.168 5.50684C9.41017 4.72345 8.37883 4.28613 7.30469 4.28613C5.06647 4.28613 3.2501 6.15391 3.25 8.45605C3.25 9.56094 3.67581 10.6218 4.4375 11.4053L5.38281 12.3779L12 19.1836L18.6172 12.3779L19.5625 11.4053C20.3242 10.6218 20.75 9.56094 20.75 8.45605C20.7499 6.15391 18.9335 4.28613 16.6953 4.28613Z" fill="#090907"/>
</svg>
