<svg width="24" height="24" viewBox="0 0 24 24" fill="none" xmlns="http://www.w3.org/2000/svg">
<path d="M10.0713 2C10.0713 2 11.6145 3.37891 12.7676 4.55078C13.1091 4.89841 13.4148 5.22268 13.6357 5.49219C13.8246 5.25392 14.1902 4.91787 14.5557 4.60938C15.0498 4.19147 15.5361 3.82031 15.5361 3.82031C15.5776 3.85632 21 8.57988 21 13.1133C21 18.1016 16.9902 22 12 22C6.95357 22 3 18.0977 3 13.1133C3 7.94766 10.0436 2.02324 10.0713 2ZM9.87012 3.89844C9.2313 4.51171 8.3838 5.38293 7.53613 6.40234C6.68837 7.42578 5.8606 8.57813 5.25391 9.75391C4.63919 10.9414 4.28613 12.086 4.28613 13.1133C4.28613 17.4258 7.68482 20.75 12 20.75C16.267 20.75 19.7139 17.4258 19.7139 13.1133C19.7139 11.2695 18.5731 9.22656 17.2432 7.51562C16.6004 6.68766 15.954 5.99216 15.4639 5.5C15.0784 5.82405 14.7689 6.1132 14.6562 6.25391L13.6592 7.52344L12.6348 6.27734L12.6309 6.27344C12.2009 5.75391 11.3692 4.93359 10.5938 4.20312C10.4089 4.02734 10.2321 3.86328 10.0674 3.71094C10.0031 3.76953 9.93841 3.83204 9.87012 3.89844ZM10.542 9.10938C10.6593 9.25096 11.5346 10.3326 12.3779 11.375L13.5264 12.7969L13.5586 12.8359L15.082 11.1172L15.6045 10.5273L16.0859 11.1484C16.2908 11.4141 16.4236 11.6758 16.5361 11.8867L16.54 11.8906C17.6891 13.9453 17.1948 16.5938 15.21 17.9414L15.1982 17.9492C14.242 18.5625 13.2174 18.875 12.0684 18.875C10.6622 18.875 9.36064 18.4335 8.40039 17.582C7.43209 16.7266 6.85742 15.4883 6.85742 13.9844C6.85742 13.1836 7.11807 12.457 7.58008 11.6953C8.03007 10.9453 8.69728 10.1133 9.54102 9.10938L10.043 8.50781L10.542 9.10938ZM10.0352 10.5C9.44458 11.2226 9.00284 11.8047 8.68945 12.3203C8.30374 12.9688 8.14258 13.4727 8.14258 13.9844C8.14258 15.1601 8.58463 16.0547 9.26758 16.6602C9.95463 17.2734 10.9353 17.625 12.0684 17.625C12.9522 17.625 13.7275 17.3905 14.4707 16.9141C15.8247 15.9883 16.2512 14.1328 15.4639 12.6016L14.0254 14.2266L13.5146 14.8047L13.0322 14.207V14.2031L13.0244 14.1953L12.9961 14.1602L12.8916 14.0312L12.5186 13.5703L11.3691 12.1484C10.883 11.5469 10.3887 10.9375 10.0352 10.5Z" fill="#090907"/>
</svg>
