<svg width="24" height="24" viewBox="0 0 24 24" fill="none" xmlns="http://www.w3.org/2000/svg">
<path d="M21.439 5.25C21.8659 5.25 22.3451 5.46495 22.5161 5.98926C22.6581 6.42517 22.5055 6.85554 22.3208 7.16016L22.3169 7.16602L15.519 18.125L15.5142 18.1328L15.5083 18.1406C15.3141 18.4362 15.0399 18.6996 14.7485 18.8916C14.4685 19.076 14.089 19.2499 13.6812 19.25H2.5835C2.11937 19.2497 1.6779 18.9992 1.50146 18.5205C1.34766 18.1029 1.45492 17.6705 1.63721 17.3379L7.37451 6.75977L7.1626 6.33496L7.90088 5.96582C8.02459 5.83574 8.15939 5.72034 8.29736 5.62402C8.57347 5.43141 8.95279 5.2501 9.35791 5.25H21.439ZM13.6665 17.667L13.5005 17.75H13.6812C13.6748 17.75 13.6952 17.7505 13.7446 17.7324C13.7934 17.7145 13.8556 17.6833 13.9233 17.6387C14.0259 17.571 14.1174 17.4866 14.187 17.4053L13.6665 17.667ZM3.11963 17.75H12.8696L8.19287 8.39551L3.11963 17.75ZM9.31885 6.76465C9.27555 6.78136 9.21839 6.80983 9.15576 6.85352C9.14146 6.8635 9.12846 6.87517 9.11475 6.88574L14.2964 17.25L20.8101 6.75H9.35791C9.37659 6.74994 9.36443 6.74709 9.31885 6.76465Z" fill="#090907"/>
</svg>
