<svg width="24" height="24" viewBox="0 0 24 24" fill="none" xmlns="http://www.w3.org/2000/svg">
<path d="M7.73828 2C8.85547 2 9.89453 2.57422 10.4844 3.52344L12 5.94531L13.5156 3.52344C14.1094 2.57812 15.1445 2 16.2617 2H16.375C18.1016 2 19.5 3.39844 19.5 5.125C19.5 5.82812 19.2656 6.47656 18.875 7H22V13.25H20.75V22H3.25V13.25H2V7H5.125C4.73438 6.47656 4.5 5.82812 4.5 5.125C4.5 3.39844 5.89844 2 7.625 2H7.73828ZM4.5 20.75H11.375V13.25H4.5V20.75ZM12.625 20.75H19.5V13.25H12.625V20.75ZM3.25 12H11.375V8.25H3.25V12ZM12.625 12H20.75V8.25H12.625V12ZM7.625 3.25C6.58984 3.25 5.75 4.08984 5.75 5.125C5.75 6.16016 6.58984 7 7.625 7H11.1836L9.42578 4.18359C9.0625 3.60156 8.42578 3.25 7.73828 3.25H7.625ZM16.2617 3.25C15.5742 3.25 14.9375 3.60156 14.5742 4.18359L12.8164 7H16.375C17.4102 7 18.25 6.16016 18.25 5.125C18.25 4.08984 17.4102 3.25 16.375 3.25H16.2617Z" fill="black"/>
</svg>
