<svg width="24" height="24" viewBox="0 0 24 24" fill="none" xmlns="http://www.w3.org/2000/svg">
<path d="M10.5713 13.4287V22H2V13.4287H10.5713ZM17.7139 13.4287V17.1787H20.5713V13.4287H22V18.6074H16.2861V14.8574H14.8574V22H13.4287V13.4287H17.7139ZM18.4287 19.8574V22H16.2861V19.8574H18.4287ZM22 19.8574V22H19.8574V19.8574H22ZM3.42871 14.8574V20.5713H9.14258V14.8574H3.42871ZM7.35742 16.6426V18.7861H5.21387V16.6426H7.35742ZM10.5713 2V10.5713H2V2H10.5713ZM22 2V10.5713H13.4287V2H22ZM3.42871 3.42871V9.14258H9.14258V3.42871H3.42871ZM14.8574 3.42871V9.14258H20.5713V3.42871H14.8574ZM7.35742 5.21387V7.35742H5.21387V5.21387H7.35742ZM18.7861 5.21387V7.35742H16.6426V5.21387H18.7861Z" fill="#090907"/>
</svg>
