<svg width="24" height="24" viewBox="0 0 24 24" fill="none" xmlns="http://www.w3.org/2000/svg">
<path d="M15.875 5.12988L18.3643 7.19043H22V8.28613H17.9619L17.8057 8.15625L15.3164 6.0957H12.7676L8.3125 10.2305L9.94141 12.0107L13.3477 8.90918L13.7568 8.53613L14.5107 9.34082L14.1006 9.71387L13.7949 9.99023L17.5732 13.7217H22V14.8174H18.1943L18.0488 14.9609L15.1357 17.8359L14.7432 18.2227L14.3477 17.8359L13.8164 17.3125L12.5801 18.5312L12.1875 18.918L11.7949 18.5312L10.8711 17.6201L9.86426 18.6133L9.47266 19L9.08008 18.6133L7.55566 17.1074L7.16309 16.7207L6.91992 16.4805L5.27441 14.8584H2V13.7627H5.73242L5.89551 13.9238L7.70117 15.707L7.94434 15.9463L8.33691 16.334L9.46875 17.4492L10.4756 16.457L10.8682 16.0703L11.2607 16.457L12.1836 17.3672L13.4238 16.1484L13.8164 15.7617L14.208 16.1484L14.7432 16.6729L16.8711 14.5742L12.9756 10.7402L10.2773 13.1943L9.86426 13.5713L9.48926 13.1602L7.12109 10.5693L6.76074 10.1689L7.15625 9.80273L12.167 5.14746L12.3262 5H15.7188L15.875 5.12988ZM9.24316 6.0957H8.63574L6.14551 8.15625L5.98926 8.28613H2V7.19043H5.58691L8.07617 5.12988L8.23242 5H10.3545L9.24316 6.0957Z" fill="#090907"/>
</svg>
