<svg width="24" height="24" viewBox="0 0 24 24" fill="none" xmlns="http://www.w3.org/2000/svg">
<path d="M3.00879 5.29004L21.6064 18.9717L22 19.2617L21.3818 20L20.9873 19.71L2.39355 6.02832L2 5.73828L2.61914 5L3.00879 5.29004ZM5.62402 10.1709C4.92734 10.9911 4.41203 11.8292 4.08398 12.4971C4.56203 13.4726 5.44005 14.8027 6.68359 15.9248C8.07708 17.1816 9.85804 18.122 11.9951 18.1221C13.2104 18.1221 14.3102 17.8173 15.2881 17.3252L16.1357 17.9521C14.9484 18.6201 13.5636 19.0596 11.9951 19.0596C7.0461 19.0595 3.93448 14.6856 2.99707 12.4971C3.33451 11.709 3.95261 10.6366 4.83984 9.58789L5.62402 10.1709ZM9.00195 12.667C9.09568 14.1406 10.4017 15.3065 11.9951 15.3066C12.1701 15.3066 12.3421 15.292 12.5107 15.2656L13.4766 15.9805C13.0173 16.1533 12.5169 16.2471 11.9951 16.2471V16.2441C9.78618 16.244 7.99609 14.5654 7.99609 12.4941C7.99609 12.3096 8.00802 12.1279 8.03613 11.9521L9.00195 12.667ZM11.9951 5.93457C16.9443 5.93457 20.0568 10.3086 20.9941 12.4971C20.6567 13.2852 20.0378 14.3574 19.1504 15.4062L18.3662 14.8232C19.0629 14.003 19.5782 13.165 19.9062 12.4971C19.4282 11.5215 18.5501 10.1914 17.3066 9.06934C15.9131 7.81258 14.1322 6.87207 11.9951 6.87207C10.7798 6.8721 9.68005 7.1768 8.70215 7.66895L7.85547 7.04199C9.04271 6.37408 10.4267 5.93461 11.9951 5.93457ZM11.9951 8.74707C14.2041 8.74707 15.9951 10.4258 15.9951 12.4971V12.5C15.9951 12.6846 15.9822 12.8662 15.9541 13.042L14.9883 12.3271C14.8945 10.8535 13.5886 9.6875 11.9951 9.6875C11.8202 9.68751 11.6482 9.70216 11.4795 9.72852L10.5146 9.01367C10.9738 8.84092 11.4735 8.74709 11.9951 8.74707Z" fill="#090907"/>
</svg>
