<svg width="24" height="24" viewBox="0 0 24 24" fill="none" xmlns="http://www.w3.org/2000/svg">
<path d="M12 2C14.6522 2 17.1959 3.05335 19.0713 4.92871C20.9467 6.80407 22 9.34783 22 12C22 14.6522 20.9467 17.1959 19.0713 19.0713C17.1959 20.9467 14.6522 22 12 22C9.34783 22 6.80407 20.9467 4.92871 19.0713C3.05335 17.1959 2 14.6522 2 12C2 9.34783 3.05335 6.80407 4.92871 4.92871C6.80407 3.05335 9.34783 2 12 2ZM9.5 10.75V12.625H11.375V15.125H9.5V17H14.5V15.125H13.25V10.75H9.5ZM10.75 7V9.5H13.25V7H10.75Z" fill="#0351A0"/>
</svg>
