<svg width="24" height="24" viewBox="0 0 24 24" fill="none" xmlns="http://www.w3.org/2000/svg">
<path d="M15.125 2C18.9219 2 22 5.07812 22 8.875C22 12.6719 18.9219 15.75 15.125 15.75C14.7148 15.75 14.3164 15.7148 13.9258 15.6445L12.5703 17H10.75V19.5H8.25V22H2V17.0547L8.46484 10.5898C8.32422 10.0391 8.25 9.46484 8.25 8.875C8.25 5.07812 11.3281 2 15.125 2ZM15.125 3.25C12.0195 3.25 9.5 5.76953 9.5 8.875L9.50391 8.87109C9.50391 9.46875 9.59375 10.0391 9.76562 10.5781L9.87891 10.9414L3.25 17.5703V20.75H7V18.25H9.5V15.75H12.0547L13.5234 14.2812L13.8594 14.3594C14.2656 14.4492 14.6914 14.5 15.125 14.5C18.2305 14.5 20.75 11.9805 20.75 8.875C20.75 5.76953 18.2305 3.25 15.125 3.25ZM16.375 6.6875C16.6236 6.6875 16.8623 6.7861 17.0381 6.96191C17.2139 7.13773 17.3125 7.37636 17.3125 7.625C17.3125 7.87364 17.2139 8.11227 17.0381 8.28809C16.8623 8.4639 16.6236 8.5625 16.375 8.5625C16.1264 8.5625 15.8877 8.4639 15.7119 8.28809C15.5361 8.11227 15.4375 7.87364 15.4375 7.625C15.4375 7.37636 15.5361 7.13773 15.7119 6.96191C15.8877 6.7861 16.1264 6.6875 16.375 6.6875Z" fill="#090907"/>
</svg>
