<svg width="24" height="24" viewBox="0 0 24 24" fill="none" xmlns="http://www.w3.org/2000/svg">
<path d="M12 2C14.6522 2 17.1959 3.05335 19.0713 4.92871C20.9467 6.80407 22 9.34784 22 12C22 14.6522 20.9467 17.1959 19.0713 19.0713C17.1959 20.9467 14.6522 22 12 22C9.34784 22 6.80407 20.9467 4.92871 19.0713C3.05335 17.1959 2 14.6522 2 12C2 9.34784 3.05335 6.80407 4.92871 4.92871C6.80407 3.05335 9.34784 2 12 2ZM4.09375 15.75C5.27734 18.2422 7.60938 20.0898 10.4023 20.6055C9.42578 19.5742 8.23438 17.9648 7.55469 15.75H4.09375ZM16.4453 15.75C15.7617 17.9609 14.5742 19.5742 13.5977 20.6055C16.3945 20.0898 18.7227 18.2461 19.9062 15.75H16.4453ZM8.86719 15.7539C9.29688 16.9883 9.89453 17.9961 10.4961 18.7891C11.043 19.5117 11.5859 20.0547 12 20.4141C12.4102 20.0508 12.957 19.5117 13.5039 18.7891C14.1055 17.9961 14.7031 16.9883 15.1328 15.7539H8.86719ZM3.61328 9.5C3.37891 10.293 3.25 11.1328 3.25 12C3.25 12.8672 3.375 13.707 3.61328 14.5H7.23828C7.08594 13.7266 7 12.8945 7 12C7 11.1055 7.08594 10.2734 7.23828 9.5H3.61328ZM8.51562 9.5C8.34766 10.2617 8.25 11.0977 8.25 12C8.25 12.9023 8.34766 13.7383 8.51562 14.5H15.4844C15.6523 13.7383 15.75 12.9023 15.75 12C15.75 11.0977 15.6523 10.2617 15.4844 9.5H8.51562ZM16.7617 9.5C16.9141 10.2734 17 11.1055 17 12C17 12.8945 16.9141 13.7266 16.7617 14.5H20.3867C20.6211 13.707 20.75 12.8672 20.75 12C20.75 11.1328 20.625 10.293 20.3867 9.5H16.7617ZM10.4023 3.39453C7.60547 3.91016 5.27734 5.75781 4.09375 8.25H7.55469C8.23828 6.03906 9.42578 4.42578 10.4023 3.39453ZM12 3.58984C11.5898 3.95312 11.043 4.49219 10.4961 5.21484C9.89453 6.00781 9.29688 7.01562 8.86719 8.25H15.1328C14.7031 7.01562 14.1055 6.00781 13.5039 5.21484C12.957 4.49219 12.4141 3.94922 12 3.58984ZM13.6016 3.39453C14.5781 4.42578 15.7695 6.03516 16.4492 8.25H19.9102C18.7266 5.75781 16.3945 3.91016 13.6016 3.39453Z" fill="#090907"/>
</svg>
