<svg width="24" height="24" viewBox="0 0 24 24" fill="none" xmlns="http://www.w3.org/2000/svg">
<path d="M7.2417 8.00778C8.8595 6.40936 11.4771 6.40984 13.0981 8.01462C14.6318 9.53305 14.7195 11.9675 13.2993 13.5918L13.1274 13.7881L12.3442 13.1152L12.5161 12.9199C13.5807 11.7025 13.5157 9.87582 12.3638 8.73532C11.1504 7.53736 9.18616 7.53722 7.97607 8.73532L3.94482 12.7236C2.73147 13.9249 2.73157 15.8728 3.94482 17.0742C5.15822 18.2756 7.12498 18.2756 8.33838 17.0742L9.06982 16.3506L9.80127 17.0742L9.06982 17.7988C7.45197 19.4004 4.83118 19.4005 3.21338 17.7988C1.59552 16.197 1.59552 13.6018 3.21338 12L7.2417 8.00778ZM14.9302 6.20114C16.548 4.59957 19.1688 4.5995 20.7866 6.20114C22.4045 7.80297 22.4045 10.3981 20.7866 12H20.7837L16.7485 15.9853C15.1339 17.5839 12.5126 17.5839 10.8979 15.9853C9.36443 14.4668 9.27747 12.0324 10.6978 10.4082L10.8687 10.2119L11.6519 10.8847L11.481 11.081C10.4166 12.2984 10.4806 14.1241 11.6323 15.2646C12.8456 16.4627 14.8098 16.4626 16.02 15.2646L20.0522 11.2763C21.2656 10.075 21.2654 8.12714 20.0522 6.92575C18.8389 5.72438 16.8711 5.72438 15.6577 6.92575L14.9263 7.64938L14.1958 6.92575L14.9302 6.20114Z" fill="#090907"/>
</svg>
