<svg width="24" height="24" viewBox="0 0 24 24" fill="none" xmlns="http://www.w3.org/2000/svg">
<path d="M3.33301 17.333C3.68663 17.333 4.02632 17.4736 4.27637 17.7236C4.52642 17.9737 4.66699 18.3134 4.66699 18.667C4.66691 19.0204 4.52624 19.3594 4.27637 19.6094C4.02632 19.8594 3.68663 20 3.33301 20C2.9795 19.9999 2.6406 19.8593 2.39062 19.6094C2.14065 19.3594 2.00009 19.0205 2 18.667C2 18.3134 2.14058 17.9737 2.39062 17.7236C2.64058 17.4738 2.97958 17.3331 3.33301 17.333ZM22 18V19.333H7.33301V18H22ZM3.33301 10.667C3.68663 10.667 4.02632 10.8076 4.27637 11.0576C4.52621 11.3076 4.66699 11.6465 4.66699 12C4.66699 12.3535 4.52621 12.6924 4.27637 12.9424C4.02632 13.1924 3.68663 13.333 3.33301 13.333C2.9795 13.3329 2.6406 13.1924 2.39062 12.9424C2.14068 12.6923 2 12.3535 2 12C2 11.6465 2.14068 11.3077 2.39062 11.0576C2.6406 10.8076 2.9795 10.6671 3.33301 10.667ZM22 11.333V12.667H7.33301V11.333H22ZM3.33301 4C3.68663 4 4.02632 4.14058 4.27637 4.39062C4.52624 4.64058 4.66691 4.97958 4.66699 5.33301C4.66699 5.68663 4.52642 6.02632 4.27637 6.27637C4.02632 6.52642 3.68663 6.66699 3.33301 6.66699C2.97958 6.66691 2.64058 6.52624 2.39062 6.27637C2.14058 6.02632 2 5.68663 2 5.33301C2.00009 4.9795 2.14065 4.6406 2.39062 4.39062C2.6406 4.14065 2.9795 4.00009 3.33301 4ZM22 4.66699V6H7.33301V4.66699H22Z" fill="#090907"/>
</svg>
