<svg width="24" height="24" viewBox="0 0 24 24" fill="none" xmlns="http://www.w3.org/2000/svg">
<path d="M8.66699 18.667C9.1089 18.6671 9.53224 18.8428 9.84473 19.1553C10.1572 19.4678 10.3329 19.8911 10.333 20.333C10.333 20.775 10.1573 21.1992 9.84473 21.5117C9.53226 21.8241 9.10883 21.9999 8.66699 22C8.22496 22 7.80084 21.8243 7.48828 21.5117C7.17572 21.1992 7 20.775 7 20.333C7.00009 19.8912 7.1759 19.4677 7.48828 19.1553C7.80084 18.8427 8.22496 18.667 8.66699 18.667ZM15.333 18.667C15.775 18.667 16.1992 18.8427 16.5117 19.1553C16.8241 19.4677 16.9999 19.8912 17 20.333C17 20.775 16.8243 21.1992 16.5117 21.5117C16.1992 21.8243 15.775 22 15.333 22C14.8912 21.9999 14.4677 21.8241 14.1553 21.5117C13.8427 21.1992 13.667 20.775 13.667 20.333C13.6671 19.8911 13.8428 19.4678 14.1553 19.1553C14.4678 18.8428 14.8911 18.6671 15.333 18.667ZM8.66699 10.333C9.10875 10.3331 9.53227 10.509 9.84473 10.8213C10.1573 11.1339 10.333 11.558 10.333 12C10.333 12.442 10.1573 12.8661 9.84473 13.1787C9.53227 13.491 9.10875 13.6669 8.66699 13.667C8.22504 13.667 7.80083 13.4912 7.48828 13.1787C7.17572 12.8661 7 12.442 7 12C7 11.558 7.17572 11.1339 7.48828 10.8213C7.80083 10.5088 8.22504 10.333 8.66699 10.333ZM15.333 10.333C15.775 10.333 16.1992 10.5088 16.5117 10.8213C16.8243 11.1339 17 11.558 17 12C17 12.442 16.8243 12.8661 16.5117 13.1787C16.1992 13.4912 15.775 13.667 15.333 13.667C14.8913 13.6669 14.4677 13.491 14.1553 13.1787C13.8427 12.8661 13.667 12.442 13.667 12C13.667 11.558 13.8427 11.1339 14.1553 10.8213C14.4677 10.509 14.8913 10.3331 15.333 10.333ZM8.66699 2C9.10883 2.00009 9.53226 2.1759 9.84473 2.48828C10.1573 2.80084 10.333 3.22496 10.333 3.66699C10.3329 4.1089 10.1572 4.53224 9.84473 4.84473C9.53224 5.15721 9.1089 5.33292 8.66699 5.33301C8.22496 5.33301 7.80084 5.15729 7.48828 4.84473C7.1759 4.53226 7.00009 4.10883 7 3.66699C7 3.22496 7.17572 2.80084 7.48828 2.48828C7.80084 2.17572 8.22496 2 8.66699 2ZM15.333 2C15.775 2 16.1992 2.17572 16.5117 2.48828C16.8243 2.80084 17 3.22496 17 3.66699C16.9999 4.10883 16.8241 4.53226 16.5117 4.84473C16.1992 5.15729 15.775 5.33301 15.333 5.33301C14.8911 5.33292 14.4678 5.15721 14.1553 4.84473C13.8428 4.53224 13.6671 4.1089 13.667 3.66699C13.667 3.22496 13.8427 2.80084 14.1553 2.48828C14.4677 2.1759 14.8912 2.00009 15.333 2Z" fill="#090907"/>
</svg>
