<svg width="24" height="24" viewBox="0 0 24 24" fill="none" xmlns="http://www.w3.org/2000/svg">
<path d="M6.2998 9.5V12C6.2998 14.7617 8.62781 17 11.5 17C14.3722 17 16.7002 14.7617 16.7002 12V9.5H18V12C18 15.2421 15.4368 17.9061 12.1504 18.2188V20.75H15.4004V22H7.59961V20.75H10.8496V18.2188C7.56323 17.9061 5 15.2421 5 12V9.5H6.2998ZM15.4004 2V12C15.4004 14.0703 13.6531 15.75 11.5 15.75C9.34687 15.75 7.59961 14.0703 7.59961 12V2H15.4004ZM8.90039 3.25V12C8.90039 13.3789 10.0659 14.5 11.5 14.5C12.9341 14.5 14.0996 13.3789 14.0996 12V3.25H8.90039Z" fill="#090907"/>
</svg>
