<svg width="24" height="24" viewBox="0 0 24 24" fill="none" xmlns="http://www.w3.org/2000/svg">
<path d="M22 12V22H2V12H22ZM3.25 20.75H5.125C5.125 19.7148 4.28516 18.875 3.25 18.875V20.75ZM6.375 13.25C6.375 14.9766 4.97656 16.375 3.25 16.375V17.625C4.97656 17.625 6.375 19.0234 6.375 20.75H17.625C17.625 19.0234 19.0234 17.625 20.75 17.625V16.375C19.0234 16.375 17.625 14.9766 17.625 13.25H6.375ZM20.75 18.875C19.7148 18.875 18.875 19.7148 18.875 20.75H20.75V18.875ZM12 14.5C12.663 14.5 13.2987 14.7636 13.7676 15.2324C14.2364 15.7013 14.5 16.337 14.5 17C14.5 17.663 14.2364 18.2987 13.7676 18.7676C13.2987 19.2364 12.663 19.5 12 19.5C11.337 19.5 10.7013 19.2364 10.2324 18.7676C9.76358 18.2987 9.5 17.663 9.5 17C9.5 16.337 9.76358 15.7013 10.2324 15.2324C10.7013 14.7636 11.337 14.5 12 14.5ZM12 15.75C11.6685 15.75 11.3506 15.8818 11.1162 16.1162C10.8818 16.3506 10.75 16.6685 10.75 17C10.75 17.3315 10.8818 17.6494 11.1162 17.8838C11.3506 18.1182 11.6685 18.25 12 18.25C12.3315 18.25 12.6494 18.1182 12.8838 17.8838C13.1182 17.6494 13.25 17.3315 13.25 17C13.25 16.6685 13.1182 16.3506 12.8838 16.1162C12.6494 15.8818 12.3315 15.75 12 15.75ZM3.25 13.25V15.125C4.28516 15.125 5.125 14.2852 5.125 13.25H3.25ZM18.875 13.25C18.875 14.2852 19.7148 15.125 20.75 15.125V13.25H18.875ZM20.75 2V7H19.5V4.13281L13.2812 10.3516L12.8438 9.97656L8.875 6.57422L4.90625 9.97266L4.09375 9.02344L8.46875 5.27344L8.875 4.92578L9.28125 5.27734L13.2188 8.64844L18.6172 3.25H15.75V2H20.75Z" fill="#090907"/>
</svg>
