<svg width="24" height="24" viewBox="0 0 24 24" fill="none" xmlns="http://www.w3.org/2000/svg">
<path d="M18.3037 11.2861V13.7139L11.665 20.1426L10.7793 21L9.89355 20.1426L2 12.5V4H10.7793L18.3037 11.2861ZM15.9248 4.48145L21.8154 10.1816L22 10.3594V14.6367L21.8154 14.8145L15.9248 20.5186L15.4824 20.9473L14.5967 20.0889L15.0391 19.6602L20.7422 14.1357V10.8643L15.0391 5.33984L14.5967 4.91113L15.4824 4.05273L15.9248 4.48145ZM3.25391 11.9951L10.7793 19.2812L17.0498 13.21V11.79L10.2578 5.21387H3.25391V11.9951ZM6.38965 7.33887C6.51315 7.33888 6.6359 7.36244 6.75 7.4082C6.86402 7.45397 6.96741 7.52194 7.05469 7.60645C7.14193 7.69096 7.21156 7.79097 7.25879 7.90137C7.30606 8.01186 7.33008 8.1304 7.33008 8.25C7.33008 8.3696 7.30606 8.48814 7.25879 8.59863C7.21156 8.70903 7.14193 8.80904 7.05469 8.89355C6.96741 8.97806 6.86402 9.04603 6.75 9.0918C6.6359 9.13756 6.51315 9.16112 6.38965 9.16113C6.26612 9.16113 6.14342 9.13756 6.0293 9.0918C5.91523 9.04603 5.81192 8.97809 5.72461 8.89355C5.63735 8.80903 5.56775 8.70904 5.52051 8.59863C5.47324 8.48814 5.44922 8.3696 5.44922 8.25C5.44922 8.1304 5.47324 8.01186 5.52051 7.90137C5.56775 7.79096 5.63735 7.69097 5.72461 7.60645C5.81192 7.52191 5.91523 7.45397 6.0293 7.4082C6.14342 7.36244 6.26612 7.33887 6.38965 7.33887Z" fill="#090907"/>
</svg>
