<svg width="24" height="24" viewBox="0 0 24 24" fill="none" xmlns="http://www.w3.org/2000/svg">
<path d="M19.9648 2C20.5347 2 21.0167 2.19638 21.4102 2.58984C21.8036 2.9833 22 3.46533 22 4.03516V19.9648C22 20.5347 21.8036 21.0167 21.4102 21.4102C21.0167 21.8036 20.5347 22 19.9648 22H4.03516C3.46533 22 2.9833 21.8036 2.58984 21.4102C2.19638 21.0167 2 20.5347 2 19.9648V4.03516C2 3.46533 2.19638 2.9833 2.58984 2.58984C2.9833 2.19638 3.46533 2 4.03516 2H19.9648ZM4.03516 3.64551C3.93769 3.64551 3.84859 3.68635 3.76758 3.76758C3.68635 3.84859 3.64551 3.93769 3.64551 4.03516V19.9648C3.64551 20.0623 3.68635 20.1514 3.76758 20.2324C3.84859 20.3136 3.93769 20.3545 4.03516 20.3545H19.9648C20.0623 20.3545 20.1514 20.3136 20.2324 20.2324C20.3136 20.1514 20.3545 20.0623 20.3545 19.9648V4.03516C20.3545 3.93769 20.3136 3.84859 20.2324 3.76758C20.1514 3.68635 20.0623 3.64551 19.9648 3.64551H4.03516ZM12.8232 6.24023V11.1768H17.7598V12.8232H12.8232V17.7598H11.1768V12.8232H6.24023V11.1768H11.1768V6.24023H12.8232Z" fill="#090907"/>
</svg>
