<svg width="24" height="24" viewBox="0 0 24 24" fill="none" xmlns="http://www.w3.org/2000/svg">
<path d="M12.2295 4.75L18.9932 11.2188L19.7773 11.9688L18.9932 12.7188L11.1182 20.25L10.333 21L9.54883 20.25L2.78516 13.7812L2 13.0312L2.78516 12.2812L6.88574 8.35938L3.55176 5.17188L3.16016 4.79688L3.94434 4.04688L4.33691 4.42188L7.66992 7.60938L10.6602 4.75L11.4443 4L12.2295 4.75ZM20.4199 15.6943L21.7119 17.8594C21.8993 18.178 22 18.5363 22 18.9014C22 20.0601 21.0174 20.9999 19.8057 21H19.75C18.5382 21 17.5557 20.0602 17.5557 18.9014C17.5557 18.5363 17.6529 18.178 17.8438 17.8594H17.8477L19.1387 15.6943L19.7773 14.625L20.4199 15.6943ZM18.8086 18.3867C18.7149 18.5427 18.667 18.7222 18.667 18.9014C18.667 19.4725 19.1528 19.9375 19.75 19.9375H19.8057C20.4028 19.9374 20.8887 19.4724 20.8887 18.9014C20.8886 18.7221 20.8398 18.5427 20.7461 18.3867L19.7773 16.7666L18.8086 18.3867ZM5.23926 14.625L10.333 19.4961L15.4268 14.625H5.23926ZM8.45508 8.35938L11.2812 11.0625L11.6738 11.4375L10.8887 12.1875L10.4961 11.8125L7.66992 9.11035L3.57324 13.0312L4.12891 13.5625H16.5381L18.2051 11.9688L11.4443 5.50391L8.45508 8.35938Z" fill="#090907"/>
</svg>
