<svg width="24" height="24" viewBox="0 0 24 24" fill="none" xmlns="http://www.w3.org/2000/svg">
<path d="M11.3545 2L17.4834 7.9375V13.25H16.1934V9.5H9.74219V3.25H3.29004V20.75H5.87109V22H2V2H11.3545ZM10.3867 15.75C11.6327 15.75 12.6455 16.7305 12.6455 17.9375C12.6455 19.1445 11.6327 20.125 10.3867 20.125H9.74219V22H8.45117V15.75H10.3867ZM15.5488 15.75C16.6172 15.7502 17.4834 16.59 17.4834 17.625V20.125C17.4834 21.16 16.6172 21.9998 15.5488 22H13.6133V15.75H15.5488ZM22 15.75V17H20.0645V18.25H22V19.5H20.0645V22H18.7744V15.75H22ZM14.9033 17V20.75H15.5488C15.9035 20.7498 16.1934 20.4686 16.1934 20.125V17.625C16.1934 17.2814 15.9035 17.0002 15.5488 17H14.9033ZM9.74219 17V18.875H10.3867C10.923 18.875 11.3545 18.457 11.3545 17.9375C11.3545 17.418 10.923 17 10.3867 17H9.74219ZM11.0322 8.25H15.9795L11.0322 3.45703V8.25Z" fill="#090907"/>
</svg>
