<svg width="24" height="24" viewBox="0 0 24 24" fill="none" xmlns="http://www.w3.org/2000/svg">
<path d="M11.375 8.25L9.20312 10.4219C10.25 12.2383 11.7617 13.75 13.5781 14.7969L15.75 12.625L22 15.125L20.75 22H19.5C9.83594 22 2 14.1641 2 4.5V3.25L8.875 2L11.375 8.25ZM3.25 4.29297V4.5C3.25 13.4727 10.5273 20.75 19.5 20.75H19.707L20.5859 15.9062L16.0508 14.0898L14.4609 15.6797L13.7852 16.3594L12.9531 15.8789C10.9453 14.7227 9.27734 13.0508 8.12109 11.0469L7.64062 10.2148L9.90625 7.94922L8.09375 3.41406L3.25 4.29297Z" fill="#090907"/>
</svg>
