<svg width="24" height="24" viewBox="0 0 24 24" fill="none" xmlns="http://www.w3.org/2000/svg">
<path d="M22 21H2V3H22V21ZM3.25 16.7656V19.7139H6.11719L9.86719 15.8574L7 12.9082L3.25 16.7656ZM7.88281 19.7139H20.75V14.1934L17 10.3369L7.88281 19.7139ZM3.25 14.9492L6.55859 11.5459L7 11.0918L7.44141 11.5459L10.75 14.9492L16.5586 8.97461L17 8.52051L17.4414 8.97461L20.75 12.3779V4.28613H3.25V14.9492ZM7.625 5.57129C8.12228 5.57129 8.59954 5.77504 8.95117 6.13672C9.30256 6.49836 9.5 6.9887 9.5 7.5C9.5 8.0113 9.30256 8.50164 8.95117 8.86328C8.59954 9.22496 8.12228 9.42871 7.625 9.42871C7.12772 9.42871 6.65046 9.22496 6.29883 8.86328C5.94744 8.50164 5.75 8.0113 5.75 7.5C5.75 6.9887 5.94744 6.49836 6.29883 6.13672C6.65046 5.77504 7.12772 5.57129 7.625 5.57129ZM7.625 6.85742C7.45924 6.85742 7.29983 6.92534 7.18262 7.0459C7.06569 7.16641 7 7.32972 7 7.5C7 7.67028 7.06569 7.83359 7.18262 7.9541C7.29983 8.07466 7.45924 8.14258 7.625 8.14258C7.79076 8.14258 7.95017 8.07466 8.06738 7.9541C8.18431 7.83359 8.25 7.67028 8.25 7.5C8.25 7.32972 8.18431 7.16641 8.06738 7.0459C7.95017 6.92534 7.79076 6.85742 7.625 6.85742Z" fill="#090907"/>
</svg>
