<svg width="24" height="24" viewBox="0 0 24 24" fill="none" xmlns="http://www.w3.org/2000/svg">
<path d="M22 21H2V4H22V21ZM3.25 17V19.7861H6.11719L9.86719 16.1426L7 13.3574L3.25 17ZM7.88281 19.7861H20.75V14.5723L17 10.9287L7.88281 19.7861ZM3.25 15.2852L6.55859 12.0713L7 11.6426L7.44141 12.0713L10.75 15.2852L16.5586 9.64258L17 9.21387L17.4414 9.64258L20.75 12.8564V5.21387H3.25V15.2852ZM7.625 6.42871C8.12228 6.42871 8.59954 6.62033 8.95117 6.96191C9.30274 7.30349 9.5 7.76698 9.5 8.25C9.5 8.73302 9.30274 9.19651 8.95117 9.53809C8.59954 9.87967 8.12228 10.0713 7.625 10.0713C7.12772 10.0713 6.65046 9.87967 6.29883 9.53809C5.94726 9.19651 5.75 8.73302 5.75 8.25C5.75 7.76698 5.94726 7.30349 6.29883 6.96191C6.65046 6.62033 7.12772 6.42871 7.625 6.42871ZM7.625 7.64258C7.45924 7.64258 7.29983 7.70645 7.18262 7.82031C7.06543 7.93417 7 8.08899 7 8.25C7 8.41101 7.06543 8.56583 7.18262 8.67969C7.29983 8.79355 7.45924 8.85742 7.625 8.85742C7.79076 8.85742 7.95017 8.79355 8.06738 8.67969C8.18457 8.56583 8.25 8.41101 8.25 8.25C8.25 8.08899 8.18457 7.93417 8.06738 7.82031C7.95017 7.70645 7.79076 7.64258 7.625 7.64258Z" fill="black"/>
</svg>
