<svg width="24" height="24" viewBox="0 0 24 24" fill="none" xmlns="http://www.w3.org/2000/svg">
<path d="M18.9443 8.25L18.667 9.3125C19.4307 9.86031 20.0379 10.591 20.4268 11.4375H22V16.75H19.7773C19.2045 17.4804 18.441 18.0651 17.5557 18.4336V21H13.1113V18.875H10.8887V21H6.44434V17.8125C5.09368 16.843 4.22266 15.299 4.22266 13.5625C2.99002 13.5359 2 12.5727 2 11.3906C2.00015 10.5673 2.48612 9.81674 3.25684 9.44824L3.41992 9.37207L3.91699 10.3223L3.75391 10.3984C3.36167 10.5843 3.11148 10.9691 3.11133 11.3906C3.11133 12.0015 3.63177 12.4998 4.27051 12.5H4.33301C4.84687 10.0763 7.09004 8.2502 9.77734 8.25H15.0693C15.6804 7.59922 16.5696 7.1875 17.5557 7.1875H19.2227L18.9443 8.25ZM17.5557 8.25C16.896 8.25 16.3091 8.52216 15.8994 8.95703L15.5664 9.3125H9.77734C7.32268 9.31272 5.33301 11.2152 5.33301 13.5625C5.33301 14.9537 6.03147 16.1859 7.11133 16.9629L7.55566 17.2812V19.9375H9.77734V17.8125H14.2227V19.9375H16.4443V17.7363L17.1113 17.457C17.8195 17.1616 18.4304 16.6936 18.8887 16.1094L19.2227 15.6875H20.8887V12.5H19.6982L19.4062 11.8623C19.0972 11.185 18.6072 10.6004 17.9961 10.1621L17.4062 9.7373L17.583 9.05371L17.7988 8.25H17.5557ZM16.7227 11.9688C16.9435 11.9689 17.1553 12.0528 17.3115 12.2021C17.4678 12.3516 17.5557 12.5543 17.5557 12.7656C17.5557 12.977 17.4678 13.1797 17.3115 13.3291C17.1553 13.4784 16.9435 13.5624 16.7227 13.5625C16.5016 13.5625 16.2891 13.4785 16.1328 13.3291C15.9766 13.1797 15.8887 12.9769 15.8887 12.7656C15.8887 12.5543 15.9766 12.3516 16.1328 12.2021C16.2891 12.0527 16.5016 11.9688 16.7227 11.9688ZM11.4443 4C13.1388 4 14.5801 5.03613 15.1113 6.48047L14.0664 6.83203C13.6845 5.79943 12.6527 5.0625 11.4443 5.0625C10.0695 5.06255 8.92747 6.0186 8.70508 7.27344L7.60742 7.09766C7.91651 5.34132 9.51736 4.00005 11.4443 4Z" fill="#090907"/>
</svg>
