<svg width="24" height="24" viewBox="0 0 24 24" fill="none" xmlns="http://www.w3.org/2000/svg">
<path d="M8.85742 15.75L10.8193 18.4414L11.5176 17H10.6787V15.75H14.3213V17H13.4824L14.1807 18.4414L16.1426 15.75H19.1787L21 22H4L5.82129 15.75H8.85742ZM6.72461 17L5.63184 20.75H10.9824L8.25 17H6.72461ZM11.6348 19.5586H11.6309L11.7412 19.707L12.5 20.75L13.2588 19.707L13.3691 19.5586L12.5 17.7734L11.6348 19.5586ZM16.75 17L14.0176 20.75H19.3682L18.2754 17H16.75ZM17.3574 9.5C17.3574 12.2617 15.1828 14.5 12.5 14.5C9.81719 14.5 7.64258 12.2617 7.64258 9.5C7.64258 9.39453 7.6428 9.29297 7.65039 9.19141C8.04503 9.35156 8.4476 9.48828 8.85742 9.60938C8.91435 11.6289 10.523 13.25 12.5 13.25C14.477 13.25 16.0857 11.6289 16.1426 9.60938C16.5524 9.48828 16.955 9.34766 17.3496 9.19141C17.3534 9.29297 17.3574 9.39453 17.3574 9.5ZM19.1787 3.875V5.125L17.9639 5.875V7.625C17.3564 8.04303 15.4138 8.875 12.5 8.875C9.58617 8.875 7.6436 8.04303 7.03613 7.625V5.875L5.82129 5.125V3.875L12.5 2L19.1787 3.875ZM11.3125 5.66016C11.4036 6.33593 11.7221 7.11719 12.5 7.55859C13.2779 7.11719 13.5964 6.33593 13.6875 5.66016L12.5 5.17188L11.3125 5.66016ZM7.49512 4.70312L7.66211 4.80469L8.25 5.16797V6.86328C8.76606 7.08203 9.59707 7.35156 10.7051 7.50391C10.2156 6.73829 10.0713 5.86327 10.0713 5.25V4.82812L10.4551 4.67188L12.2764 3.92188L12.5 3.82812L12.7236 3.92188L14.5449 4.67188L14.9287 4.82812V5.25C14.9287 5.86327 14.7844 6.73438 14.2949 7.50391C15.4029 7.35156 16.2339 7.08203 16.75 6.86328V5.16797L17.3379 4.80469L17.5049 4.70312L12.5 3.29688L7.49512 4.70312Z" fill="#090907"/>
</svg>
