<svg width="24" height="24" viewBox="0 0 24 24" fill="none" xmlns="http://www.w3.org/2000/svg">
<path d="M18.5713 13.875L21 22H4L6.42871 13.875H18.5713ZM12.5 2C13.7882 2 15.0237 2.52716 15.9346 3.46484C16.8453 4.4025 17.3574 5.67402 17.3574 7C17.3574 8.32598 16.8453 9.5975 15.9346 10.5352C15.0237 11.4728 13.7882 12 12.5 12C11.2118 12 9.97632 11.4728 9.06543 10.5352C8.15467 9.5975 7.64258 8.32598 7.64258 7C7.64258 5.67402 8.15467 4.4025 9.06543 3.46484C9.97632 2.52716 11.2118 2 12.5 2Z" fill="#090907"/>
</svg>
