<svg width="24" height="24" viewBox="0 0 24 24" fill="none" xmlns="http://www.w3.org/2000/svg">
<path d="M12 2C14.6522 2 17.1959 3.05335 19.0713 4.92871C20.9467 6.80407 22 9.34783 22 12C22 14.6522 20.9467 17.1959 19.0713 19.0713C17.1959 20.9467 14.6522 22 12 22C9.34783 22 6.80407 20.9467 4.92871 19.0713C3.05335 17.1959 2 14.6522 2 12C2 9.34783 3.05335 6.80407 4.92871 4.92871C6.80407 3.05335 9.34783 2 12 2ZM12 3.25C9.67936 3.25 7.45344 4.17156 5.8125 5.8125C4.17156 7.45344 3.25 9.67936 3.25 12C3.25 14.3206 4.17156 16.5466 5.8125 18.1875C7.45344 19.8284 9.67936 20.75 12 20.75C14.3206 20.75 16.5466 19.8284 18.1875 18.1875C19.8284 16.5466 20.75 14.3206 20.75 12C20.75 9.67936 19.8284 7.45344 18.1875 5.8125C16.5466 4.17156 14.3206 3.25 12 3.25ZM12.9375 16.375H11.0625V14.5H12.9375V16.375ZM12.9375 7C14.3242 7 15.4375 8.13281 15.4375 9.51172C15.4375 10.4492 14.9141 11.3164 14.0742 11.7461L12.625 12.4805V13.25H11.375V11.7148L11.7148 11.5391L13.5039 10.625C13.9219 10.4141 14.1875 9.97656 14.1875 9.50391C14.1875 8.80859 13.625 8.24219 12.9375 8.24219H10.75C10.2305 8.24219 9.8125 8.66016 9.8125 9.17969V9.49219H8.5625V9.1875C8.5625 7.98047 9.54297 7 10.75 7H12.9375Z" fill="#090907"/>
</svg>
