<svg width="24" height="24" viewBox="0 0 24 24" fill="none" xmlns="http://www.w3.org/2000/svg">
<path d="M22 22H2V2H22V22ZM3.42871 20.5713H20.5713V3.42871H3.42871V20.5713ZM13.0713 17H10.9287V14.8574H13.0713V17ZM13.0713 6.28613C14.6561 6.28613 15.9287 7.58036 15.9287 9.15625C15.9287 10.2277 15.3299 11.2189 14.3701 11.71L12.7139 12.5488V13.4287H11.2861V11.6738L11.6738 11.4736L13.7188 10.4287C14.1964 10.1877 14.4999 9.68759 14.5 9.14746C14.5 8.35282 13.857 7.70508 13.0713 7.70508H10.5713C9.97774 7.70515 9.50022 8.18286 9.5 8.77637V9.13379H8.07129V8.78613C8.07129 7.40672 9.19189 6.28621 10.5713 6.28613H13.0713Z" fill="#090907"/>
</svg>
