<svg width="24" height="24" viewBox="0 0 24 24" fill="none" xmlns="http://www.w3.org/2000/svg">
<path d="M22 18.25H13.875L9.5 21.168L8.25 22V18.25H2V2H22V18.25ZM3.25 17H9.5V19.6641L13.4961 17H20.75V3.25H3.25V17ZM12.9375 14.5H11.0625V12.625H12.9375V14.5ZM12.9375 5.125C14.3242 5.125 15.4375 6.25781 15.4375 7.63672C15.4375 8.57422 14.9141 9.44141 14.0742 9.87109L12.625 10.6055V11.375H11.375V9.83984L11.7148 9.66406L13.5039 8.75C13.9219 8.53906 14.1875 8.10156 14.1875 7.62891C14.1875 6.93359 13.625 6.36719 12.9375 6.36719H10.75C10.2305 6.36719 9.8125 6.78516 9.8125 7.30469V7.61719H8.5625V7.3125C8.5625 6.10547 9.54297 5.125 10.75 5.125H12.9375Z" fill="#090907"/>
</svg>
