<svg width="24" height="24" viewBox="0 0 24 24" fill="none" xmlns="http://www.w3.org/2000/svg">
<path d="M20 22L18.75 21.4453L17.1875 20.75L15 22L12.5 20.75L10 22L7.8125 20.75L6.25 21.4453L5 22V2L6.25 2.55469L7.8125 3.25L10 2L12.5 3.25L15 2L17.1875 3.25L18.75 2.55469L20 2V22ZM13.0586 4.36719L12.5 4.64844L11.9414 4.36719L10.0391 3.41797L8.43359 4.33594L7.88281 4.64844L7.30469 4.39062L6.25 3.92188V20.0781L7.30469 19.6094L7.88281 19.3516L8.43359 19.6641L10.0391 20.582L11.9414 19.6328L12.5 19.3516L13.0586 19.6328L14.9609 20.582L16.5664 19.6641L17.1172 19.3516L17.6953 19.6094L18.75 20.0781V3.92188L17.6953 4.39062L17.1172 4.64844L16.5664 4.33594L14.9609 3.41797L13.0586 4.36719ZM16.875 15.125V16.375H8.125V15.125H16.875ZM16.875 11.375V12.625H8.125V11.375H16.875ZM16.875 7.625V8.875H8.125V7.625H16.875Z" fill="#090907"/>
</svg>
