<svg width="20" height="12" viewBox="0 0 20 12" fill="none" xmlns="http://www.w3.org/2000/svg">
<path d="M16.4568 1.0448C16.7425 0.74499 17.2175 0.733823 17.5174 1.01941C17.8173 1.30503 17.8293 1.78 17.5437 2.07996L8.97147 11.08C8.82006 11.2388 8.60663 11.3234 8.38749 11.3114C8.16817 11.2993 7.9649 11.1912 7.83183 11.0165L7.40311 10.454C7.15257 10.1245 7.21631 9.65403 7.54569 9.4032C7.82879 9.18763 8.21571 9.20485 8.47831 9.42273L16.4568 1.0448ZM11.4353 1.00671C11.7078 0.694849 12.181 0.663067 12.493 0.935425C12.8049 1.20778 12.8374 1.68102 12.5652 1.99304L4.7078 10.993C4.56538 11.1562 4.35894 11.2499 4.14237 11.2499C3.92598 11.2497 3.72024 11.1561 3.57792 10.993L0.435341 7.39343C0.16293 7.0814 0.194596 6.60725 0.50663 6.33484C0.818664 6.06244 1.29282 6.09507 1.56522 6.4071L4.14237 9.35925L11.4353 1.00671Z" fill="#535353"/>
</svg>
