<svg width="24" height="24" viewBox="0 0 24 24" fill="none" xmlns="http://www.w3.org/2000/svg">
<path d="M21.8975 13.4287C21.2051 18.2769 17.033 22 11.9951 22C8.36438 21.9999 5.18046 20.0624 3.42969 17.1699V20.5713H2V14.8574H7.7168V16.2861H4.56836C6.05116 18.8483 8.81994 20.5711 11.9951 20.5713C16.2425 20.5713 19.7717 17.4822 20.4551 13.4287H21.8975ZM11.9951 2C15.6351 2 18.8195 3.94238 20.5703 6.84863V3.42871H22V9.14258H16.2832V7.71387H19.4229C17.94 5.15157 15.1705 3.42871 11.9951 3.42871C7.74793 3.42891 4.21993 6.51793 3.54102 10.5713H2.09375C2.78606 5.72327 6.95739 2.00021 11.9951 2Z" fill="#090907"/>
</svg>
