<svg width="24" height="24" viewBox="0 0 24 24" fill="none" xmlns="http://www.w3.org/2000/svg">
<path d="M3.42871 6.84863C5.17871 3.94238 8.36161 2 12 2C17.5223 2 22 6.47768 22 12C22 17.5223 17.5223 22 12 22C8.1429 22 4.79466 19.8126 3.125 16.6162L4.39258 15.9551C5.82561 18.7006 8.69196 20.5713 12 20.5713C16.7321 20.5713 20.5713 16.7321 20.5713 12C20.5713 7.26786 16.7321 3.42871 12 3.42871C8.83054 3.42871 6.05838 5.15161 4.57617 7.71387H9.14258V9.14258H2V2H3.42871V6.84863Z" fill="#090907"/>
</svg>
