<svg width="24" height="24" viewBox="0 0 24 24" fill="none" xmlns="http://www.w3.org/2000/svg">
<path d="M5.17383 16.5322V18.835H7.48242V19.6982H5.17383V22H4.30859V19.6982H2V18.835H4.30859V16.5322H5.17383ZM11.2598 2C15.3391 2 18.6445 5.29672 18.6445 9.36523C18.6445 11.1958 17.9778 12.8709 16.8701 14.1562L22 19.2764L21.1973 20.0762L16.0635 14.96C14.7747 16.0646 13.0952 16.7305 11.2598 16.7305C7.18066 16.7302 3.87507 13.4335 3.875 9.36523C3.875 5.29687 7.18062 2.00024 11.2598 2ZM11.2598 3.13281C10.4394 3.13287 9.62707 3.29434 8.86914 3.60742C8.11112 3.92057 7.42199 4.37941 6.8418 4.95801C6.26156 5.5367 5.80133 6.22437 5.4873 6.98047C5.17333 7.73652 5.01172 8.5469 5.01172 9.36523C5.01174 10.1836 5.1733 10.9939 5.4873 11.75C5.8013 12.506 6.26164 13.1928 6.8418 13.7715C7.42203 14.3502 8.11102 14.8099 8.86914 15.123C9.62705 15.4361 10.4394 15.5966 11.2598 15.5967C12.0803 15.5967 12.8933 15.4362 13.6514 15.123C14.4095 14.8099 15.0985 14.3502 15.6787 13.7715C16.2589 13.1928 16.7192 12.506 17.0332 11.75C17.3472 10.9939 17.5088 10.1836 17.5088 9.36523C17.5088 8.54692 17.3472 7.73651 17.0332 6.98047C16.7192 6.22437 16.2589 5.5367 15.6787 4.95801C15.0985 4.37939 14.4094 3.92058 13.6514 3.60742C12.8933 3.29426 12.0803 3.13281 11.2598 3.13281Z" fill="#090907"/>
</svg>
