<svg width="24" height="24" viewBox="0 0 24 24" fill="none" xmlns="http://www.w3.org/2000/svg">
<path d="M10.1484 2C14.6498 2 18.2976 5.64717 18.2979 10.1484C18.2979 12.1699 17.5611 14.0232 16.3389 15.4492L22 21.1143L21.1143 22L15.4492 16.3389C14.0271 17.5611 12.1738 18.2979 10.1484 18.2979C5.64717 18.2976 2 14.6498 2 10.1484C2.00024 5.64731 5.64731 2.00024 10.1484 2ZM10.1484 3.25391C9.2431 3.25396 8.3462 3.43186 7.50977 3.77832C6.67332 4.12483 5.91364 4.63323 5.27344 5.27344C4.63323 5.91364 4.12483 6.67332 3.77832 7.50977C3.43186 8.3462 3.25396 9.2431 3.25391 10.1484C3.25391 11.0538 3.43193 11.9507 3.77832 12.7871C4.12484 13.6237 4.63316 14.3841 5.27344 15.0244C5.91364 15.6646 6.67332 16.173 7.50977 16.5195C8.3462 16.866 9.2431 17.0439 10.1484 17.0439C11.0538 17.0439 11.9507 16.8659 12.7871 16.5195C13.6237 16.173 14.3841 15.6647 15.0244 15.0244C15.6647 14.3841 16.173 13.6237 16.5195 12.7871C16.8659 11.9507 17.0439 11.0538 17.0439 10.1484C17.0439 9.2431 16.866 8.3462 16.5195 7.50977C16.173 6.67332 15.6646 5.91364 15.0244 5.27344C14.3841 4.63316 13.6237 4.12484 12.7871 3.77832C11.9507 3.43193 11.0538 3.25391 10.1484 3.25391ZM10.7754 6.3877V9.52246H13.9102V10.7754H10.7754V13.9102H9.52246V10.7754H6.3877V9.52246H9.52246V6.3877H10.7754Z" fill="black"/>
</svg>
