<svg width="24" height="24" viewBox="0 0 24 24" fill="none" xmlns="http://www.w3.org/2000/svg">
<path d="M14.9316 5.0625C15.5643 5.31637 16.1568 5.65242 16.6934 6.05469L19.7568 5.10156L22 8.89062L19.6211 11.0039C19.6651 11.3281 19.6895 11.6602 19.6895 11.9961C19.6895 12.332 19.6651 12.6641 19.6211 12.9883L22 15.1016L19.7568 18.8906L16.6934 17.9375C16.1568 18.3398 15.5643 18.6758 14.9316 18.9297L14.2432 22H9.75684L9.06836 18.9375C8.43571 18.6836 7.84321 18.3476 7.30664 17.9453L4.24316 18.8945L2 15.1055L4.37891 12.9922C4.33485 12.668 4.31055 12.3359 4.31055 12C4.31055 11.6641 4.33485 11.332 4.37891 11.0078L2 8.89453L4.24316 5.10547L7.30664 6.05859C7.84321 5.65633 8.43571 5.32028 9.06836 5.06641L9.75684 2H14.2432L14.9316 5.0625ZM10.3223 5.33203L10.1777 5.97266L9.55664 6.21875C9.02815 6.42967 8.53535 6.71102 8.08691 7.04688L7.55469 7.44531L6.91406 7.24609L4.83105 6.59766L3.62598 8.64844L5.24023 10.082L5.73633 10.5234L5.64844 11.1719C5.61239 11.4414 5.59277 11.7188 5.59277 12C5.59277 12.2812 5.61239 12.5586 5.64844 12.8281L5.73633 13.4766L5.24023 13.918L3.62598 15.3516L4.83496 17.3984L6.91797 16.75L7.55859 16.5508L8.0918 16.9492C8.54025 17.2851 9.03301 17.5665 9.56152 17.7773L10.1816 18.0273L10.3262 18.668L10.791 20.75H13.2139L13.6816 18.668L13.8262 18.0273L14.4434 17.7812C14.9719 17.5703 15.4647 17.289 15.9131 16.9531L16.4453 16.5547L17.0859 16.7539L19.1689 17.4023L20.3779 15.3555L18.7637 13.9219L18.2676 13.4805L18.3555 12.832C18.3915 12.5625 18.4121 12.2852 18.4121 12.0039C18.4121 11.7227 18.3915 11.4453 18.3555 11.1758L18.2676 10.5273L18.7637 10.0859L20.3779 8.65234L19.1689 6.60547L17.0859 7.25391L16.4453 7.45312L15.9131 7.05469C15.4647 6.71883 14.9719 6.43748 14.4434 6.22656L13.8223 5.97656L13.6777 5.33594L13.209 3.25H10.791L10.3223 5.33203ZM12 8.5625C12.9347 8.5625 13.8313 8.92468 14.4922 9.56934C15.153 10.214 15.5244 11.0884 15.5244 12C15.5244 12.9116 15.153 13.786 14.4922 14.4307C13.8313 15.0753 12.9347 15.4375 12 15.4375C11.0653 15.4375 10.1687 15.0753 9.50781 14.4307C8.84695 13.786 8.47559 12.9116 8.47559 12C8.47559 11.0884 8.84695 10.214 9.50781 9.56934C10.1687 8.92468 11.0653 8.5625 12 8.5625ZM12 9.8125C11.4052 9.8125 10.8346 10.0429 10.4141 10.4531C9.99349 10.8634 9.75684 11.4198 9.75684 12C9.75684 12.5802 9.99349 13.1366 10.4141 13.5469C10.8346 13.9571 11.4052 14.1875 12 14.1875C12.5948 14.1875 13.1654 13.9571 13.5859 13.5469C14.0065 13.1366 14.2432 12.5802 14.2432 12C14.2432 11.4198 14.0065 10.8634 13.5859 10.4531C13.1654 10.0429 12.5948 9.8125 12 9.8125Z" fill="#090907"/>
</svg>
