<svg width="24" height="24" viewBox="0 0 24 24" fill="none" xmlns="http://www.w3.org/2000/svg">
<path d="M12.4351 2.17578L20.2173 5.32031L20.938 5.61328L20.9829 6.41406H20.979C21.0878 8.36328 20.7948 11.3438 19.5796 14.2617C18.3531 17.2031 16.1666 20.1211 12.4761 21.7852L11.9995 22L11.5239 21.7852C7.83329 20.1211 5.64589 17.2031 4.41943 14.2617C3.20428 11.3477 2.91223 8.36325 3.021 6.41406L3.06592 5.61328L3.78271 5.32031L11.5649 2.17578L11.9995 2L12.4351 2.17578ZM4.21729 6.48828C4.11602 8.26953 4.38635 11.0508 5.51904 13.7656C6.6517 16.4803 8.64668 19.125 11.9995 20.6367C15.3526 19.125 17.3483 16.4766 18.481 13.7617C19.6136 11.0469 19.884 8.26563 19.7827 6.48438L11.9995 3.33984L4.21729 6.48828ZM16.4478 9.5L16.0239 9.94141L11.2231 14.9414L10.7993 15.3828L10.3755 14.9414L7.9751 12.4414L7.55127 12L8.39893 11.1172L8.82275 11.5586L10.7993 13.6172L15.1763 9.05859L15.6001 8.61719L16.4478 9.5Z" fill="#090907"/>
</svg>
