<svg width="24" height="24" viewBox="0 0 24 24" fill="none" xmlns="http://www.w3.org/2000/svg">
<path d="M12.4351 2.17578L20.2173 5.32031L20.938 5.61328L20.983 6.41406H20.9791C21.0878 8.36328 20.7949 11.3438 19.5797 14.2617C18.3532 17.2031 16.1667 20.1211 12.4761 21.7852L11.9996 22L11.524 21.7852C7.83335 20.1211 5.64596 17.2031 4.41949 14.2617C3.20434 11.3477 2.91229 8.36325 3.02106 6.41406L3.06598 5.61328L3.78278 5.32031L11.565 2.17578L11.9996 2L12.4351 2.17578ZM4.21735 6.48828C4.11608 8.26953 4.38641 11.0508 5.5191 13.7656C6.58429 16.3125 8.40698 18.8008 11.4 20.3477V3.58594L4.21735 6.48828ZM12.6002 20.3477C15.5931 18.8047 17.4158 16.3125 18.481 13.7656C19.6137 11.0508 19.884 8.26953 19.7828 6.48828L12.6002 3.58594V20.3477Z" fill="#090907"/>
</svg>
