<svg width="24" height="24" viewBox="0 0 24 24" fill="none" xmlns="http://www.w3.org/2000/svg">
<path d="M12.958 2.17578L21.1709 5.32031L21.9307 5.60938L21.9775 6.41016C22.0923 8.36325 21.7843 11.3438 20.502 14.2578C19.2077 17.1953 16.8955 20.1172 13.0049 21.7812L12.499 22L11.9961 21.7852C8.10155 20.1211 5.79029 17.2031 4.5 14.2617C3.21368 11.3477 2.9047 8.36328 3.02344 6.41406L3.07129 5.61328L3.82715 5.32031L12.0391 2.17578L12.499 2L12.958 2.17578ZM15.625 8.83984L11.2324 13.1758L9.37207 11.3398L8.69922 10.6758L7.35742 12L8.03027 12.6641L10.5635 15.1641L11.2363 15.8281L11.9092 15.1641L16.9707 10.1641L17.6436 9.5L16.2979 8.17578L15.625 8.83984Z" fill="#090907"/>
</svg>
