<svg width="24" height="24" viewBox="0 0 24 24" fill="none" xmlns="http://www.w3.org/2000/svg">
<path d="M12 5C17.5 5 20.9583 9.99888 22 12.5C20.9583 15.0011 17.5 20 12 20C6.5 20 3.04167 15.0011 2 12.5C3.04167 9.99888 6.5 5 12 5ZM12 7.67871C10.674 7.67871 9.40251 8.18672 8.46484 9.09082C7.52716 9.99501 7 11.2213 7 12.5C7 13.7787 7.52716 15.005 8.46484 15.9092C9.40251 16.8133 10.674 17.3213 12 17.3213C13.326 17.3213 14.5975 16.8133 15.5352 15.9092C16.4728 15.005 17 13.7787 17 12.5C17 11.2213 16.4728 9.99501 15.5352 9.09082C14.5975 8.18672 13.326 7.67871 12 7.67871ZM12 9.28613C13.8403 9.28613 15.333 10.7254 15.333 12.5C15.333 14.2746 13.8403 15.7139 12 15.7139C10.1597 15.7139 8.66699 14.2746 8.66699 12.5C8.66699 12.2857 8.68783 12.0744 8.72949 11.8701L12 12.5L11.3477 9.3457C11.5593 9.30558 11.7779 9.28613 12 9.28613Z" fill="#090907"/>
</svg>
