<svg width="24" height="24" viewBox="0 0 24 24" fill="none" xmlns="http://www.w3.org/2000/svg">
<path d="M12 5C17.5 5 20.9583 9.99888 22 12.5C20.9583 15.0011 17.5 20 12 20C6.5 20 3.04167 15.0011 2 12.5C3.04167 9.99888 6.5 5 12 5ZM12 6.07129C9.62154 6.07129 7.64626 7.14664 6.09766 8.58301C4.71571 9.86872 3.73926 11.385 3.20801 12.5C3.73926 13.615 4.71571 15.1346 6.09766 16.417C7.64626 17.8534 9.62154 18.9287 12 18.9287C14.3785 18.9287 16.3537 17.8534 17.9023 16.417C19.2843 15.1313 20.2607 13.615 20.792 12.5C20.2607 11.385 19.2843 9.86537 17.9023 8.58301C16.3537 7.14664 14.3785 6.07129 12 6.07129ZM12 8.21387C13.1787 8.21387 14.3091 8.666 15.1426 9.46973C15.9761 10.2735 16.4443 11.3634 16.4443 12.5C16.4443 13.6366 15.9761 14.7265 15.1426 15.5303C14.3091 16.334 13.1787 16.7861 12 16.7861C10.8213 16.7861 9.69092 16.334 8.85742 15.5303C8.02395 14.7265 7.55566 13.6366 7.55566 12.5C7.55566 11.3634 8.02395 10.2735 8.85742 9.46973C9.69092 8.666 10.8213 8.21387 12 8.21387ZM12 9.28613C11.1159 9.28613 10.2677 9.62474 9.64258 10.2275C9.01771 10.8303 8.66699 11.6477 8.66699 12.5C8.66699 13.3523 9.01771 14.1697 9.64258 14.7725C10.2677 15.3753 11.1159 15.7139 12 15.7139C12.8841 15.7139 13.7323 15.3753 14.3574 14.7725C14.9823 14.1697 15.333 13.3523 15.333 12.5C15.333 11.6477 14.9823 10.8303 14.3574 10.2275C13.7323 9.62474 12.8841 9.28613 12 9.28613Z" fill="#090907"/>
</svg>
