<svg width="24" height="24" viewBox="0 0 24 24" fill="none" xmlns="http://www.w3.org/2000/svg">
<path d="M12 2C14.6522 2 17.1959 3.05335 19.0713 4.92871C20.9467 6.80407 22 9.34784 22 12C22 14.6522 20.9467 17.1959 19.0713 19.0713C17.1959 20.9467 14.6522 22 12 22C9.34784 22 6.80407 20.9467 4.92871 19.0713C3.05335 17.1959 2 14.6522 2 12C2 9.34784 3.05335 6.80407 4.92871 4.92871C6.80407 3.05335 9.34784 2 12 2ZM12 3.25C9.67936 3.25 7.45344 4.17156 5.8125 5.8125C4.17156 7.45344 3.25 9.67936 3.25 12C3.25 14.3206 4.17156 16.5466 5.8125 18.1875C7.45344 19.8284 9.67936 20.75 12 20.75C14.3206 20.75 16.5466 19.8284 18.1875 18.1875C19.8284 16.5466 20.75 14.3206 20.75 12C20.75 9.67936 19.8284 7.45344 18.1875 5.8125C16.5466 4.17156 14.3206 3.25 12 3.25ZM17.2227 7.37109L16.9258 7.92188L13.6992 13.9141C14.1914 14.3711 14.5 15.0234 14.5 15.75C14.5 17.1289 13.3789 18.25 12 18.25C10.6211 18.25 9.5 17.1289 9.5 15.75C9.5 14.3711 10.6211 13.25 12 13.25C12.207 13.25 12.4062 13.2734 12.5977 13.3203L15.8242 7.32812L16.1211 6.77734L17.2227 7.37109ZM12 14.5C11.6685 14.5 11.3506 14.6318 11.1162 14.8662C10.8818 15.1006 10.75 15.4185 10.75 15.75C10.75 16.0815 10.8818 16.3994 11.1162 16.6338C11.3506 16.8682 11.6685 17 12 17C12.3315 17 12.6494 16.8682 12.8838 16.6338C13.1182 16.3994 13.25 16.0815 13.25 15.75C13.25 15.4185 13.1182 15.1006 12.8838 14.8662C12.6494 14.6318 12.3315 14.5 12 14.5ZM5.75 11.0625C5.99864 11.0625 6.23727 11.1611 6.41309 11.3369C6.5889 11.5127 6.6875 11.7514 6.6875 12C6.6875 12.2486 6.5889 12.4873 6.41309 12.6631C6.23727 12.8389 5.99864 12.9375 5.75 12.9375C5.50136 12.9375 5.26273 12.8389 5.08691 12.6631C4.9111 12.4873 4.8125 12.2486 4.8125 12C4.8125 11.7514 4.9111 11.5127 5.08691 11.3369C5.26273 11.1611 5.50136 11.0625 5.75 11.0625ZM18.25 11.0625C18.4986 11.0625 18.7373 11.1611 18.9131 11.3369C19.0889 11.5127 19.1875 11.7514 19.1875 12C19.1875 12.2486 19.0889 12.4873 18.9131 12.6631C18.7373 12.8389 18.4986 12.9375 18.25 12.9375C18.0014 12.9375 17.7627 12.8389 17.5869 12.6631C17.4111 12.4873 17.3125 12.2486 17.3125 12C17.3125 11.7514 17.4111 11.5127 17.5869 11.3369C17.7627 11.1611 18.0014 11.0625 18.25 11.0625ZM7.625 6.6875C7.87364 6.6875 8.11227 6.7861 8.28809 6.96191C8.4639 7.13773 8.5625 7.37636 8.5625 7.625C8.5625 7.87364 8.4639 8.11227 8.28809 8.28809C8.11227 8.4639 7.87364 8.5625 7.625 8.5625C7.37636 8.5625 7.13773 8.4639 6.96191 8.28809C6.7861 8.11227 6.6875 7.87364 6.6875 7.625C6.6875 7.37636 6.7861 7.13773 6.96191 6.96191C7.13773 6.7861 7.37636 6.6875 7.625 6.6875ZM12 4.8125C12.2486 4.8125 12.4873 4.9111 12.6631 5.08691C12.8389 5.26273 12.9375 5.50136 12.9375 5.75C12.9375 5.99864 12.8389 6.23727 12.6631 6.41309C12.4873 6.5889 12.2486 6.6875 12 6.6875C11.7514 6.6875 11.5127 6.5889 11.3369 6.41309C11.1611 6.23727 11.0625 5.99864 11.0625 5.75C11.0625 5.50136 11.1611 5.26273 11.3369 5.08691C11.5127 4.9111 11.7514 4.8125 12 4.8125Z" fill="#090907"/>
</svg>
