<svg width="24" height="24" viewBox="0 0 24 24" fill="none" xmlns="http://www.w3.org/2000/svg">
<path d="M9.5 7.0293C11.4531 7.0293 13.2461 7.31648 14.5742 7.80371C15.2343 8.0473 15.8164 8.34949 16.2422 8.71484C16.668 9.08026 17 9.5717 17 10.1689V18.7305C17 19.3355 16.6796 19.8386 16.2539 20.2236C15.8281 20.6087 15.25 20.9272 14.5859 21.1826C13.2539 21.6974 11.4531 22 9.5 22C7.54688 22 5.74609 21.6973 4.41797 21.1865C3.75392 20.9311 3.17577 20.6126 2.75 20.2275C2.32431 19.8425 2 19.3394 2 18.7344V10.1729C2.00001 9.57169 2.33595 9.08416 2.75781 8.71875C3.18357 8.34947 3.76182 8.04727 4.42578 7.80762C5.75391 7.31646 7.54688 7.0293 9.5 7.0293ZM3.25 18.7344C3.25 18.8562 3.3125 19.0494 3.58203 19.293C3.85157 19.5365 4.27744 19.7878 4.85938 20.0078C6.01953 20.4518 7.65625 20.7422 9.5 20.7422C11.3438 20.7422 12.9805 20.4557 14.1406 20.0117C14.7226 19.7878 15.1484 19.5405 15.418 19.2969C15.6875 19.0533 15.75 18.8601 15.75 18.7383V16.1338C15.4102 16.3538 15.0156 16.5459 14.582 16.7109C13.2539 17.2217 11.4531 17.5205 9.5 17.5205C7.54688 17.5205 5.74609 17.2178 4.41797 16.707C3.98835 16.542 3.59371 16.3499 3.25 16.1299V18.7344ZM14.5 2C16.4531 2 18.2461 2.28718 19.5742 2.77441C20.2343 3.01801 20.8164 3.32017 21.2422 3.68555C21.6641 4.0549 22 4.54238 22 5.14355V13.7051C22 14.3101 21.6796 14.8132 21.2539 15.1982C20.8281 15.5833 20.25 15.9018 19.5859 16.1572C19.1797 16.3105 18.7343 16.4476 18.2539 16.5615V15.2656C18.5742 15.1792 18.8711 15.0846 19.1445 14.9824C19.7264 14.7585 20.1523 14.5111 20.4219 14.2676C20.6914 14.024 20.7539 13.8308 20.7539 13.709V11.1045C20.4141 11.3245 20.0194 11.5166 19.5859 11.6816C19.1797 11.8349 18.7344 11.973 18.2539 12.0869V10.79C18.5742 10.7036 18.8711 10.609 19.1445 10.5068C19.7265 10.2829 20.1523 10.0356 20.4219 9.79199C20.6914 9.54838 20.7539 9.35521 20.7539 9.2334V6.95508C20.4102 7.16723 20.0117 7.35164 19.5781 7.50879C18.9024 7.75633 18.1093 7.95237 17.2344 8.08203C17.1602 8.00746 17.0859 7.93294 17.0117 7.86621C16.6172 7.5087 16.164 7.22208 15.6914 6.98242C17.0508 6.89205 18.2461 6.65232 19.1484 6.32227C19.7304 6.11011 20.1562 5.87048 20.4297 5.63867C20.7029 5.40307 20.7538 5.23008 20.7539 5.13574C20.7539 5.04145 20.703 4.86853 20.4297 4.63281C20.1602 4.401 19.7343 4.16139 19.1484 3.94922C17.9883 3.53272 16.3438 3.25781 14.5 3.25781C12.6562 3.25781 11.0117 3.53267 9.85156 3.95703C9.26957 4.1692 8.84374 4.40881 8.57031 4.64062C8.29694 4.87635 8.24609 5.04926 8.24609 5.14355H8.25C8.25005 5.23789 8.30091 5.41084 8.57422 5.64648C8.62889 5.69362 8.68752 5.74095 8.75391 5.78809C8.15235 5.81166 7.5664 5.86282 7 5.94141V5.14355C7 4.54238 7.33594 4.05488 7.75781 3.68945C8.18356 3.32015 8.7618 3.01799 9.42578 2.77832C10.7539 2.28716 12.5469 2 14.5 2ZM15.75 11.9844C15.4063 12.1965 15.0078 12.3809 14.5742 12.5381C13.2461 13.0292 11.4531 13.3164 9.5 13.3164C7.54688 13.3164 5.75391 13.0292 4.42578 12.542C3.99223 12.3848 3.59372 12.2004 3.25 11.9883V14.2598C3.25015 14.3816 3.31282 14.5741 3.58203 14.8174C3.85156 15.061 4.27741 15.3122 4.85938 15.5322C6.01953 15.9762 7.65625 16.2637 9.5 16.2637C11.3438 16.2637 12.9805 15.9762 14.1406 15.5322C14.7226 15.3083 15.1484 15.061 15.418 14.8174C15.6872 14.5741 15.7499 14.3816 15.75 14.2598V11.9844ZM9.5 8.28711C7.65625 8.28711 6.01172 8.56197 4.85156 8.98633C4.26955 9.1985 3.84375 9.4381 3.57031 9.66992C3.29691 9.90565 3.24611 10.0785 3.24609 10.1729H3.25C3.25 10.2672 3.3008 10.44 3.57422 10.6758C3.84374 10.9076 4.26956 11.1472 4.85547 11.3594C6.01172 11.7837 7.65625 12.0586 9.5 12.0586C11.3438 12.0586 12.9883 11.7837 14.1484 11.3594C14.7304 11.1472 15.1563 10.9076 15.4297 10.6758C15.7031 10.44 15.7539 10.2672 15.7539 10.1729C15.7539 10.0785 15.7031 9.90565 15.4297 9.66992C15.1602 9.4381 14.7344 9.1985 14.1484 8.98633C12.9883 8.56197 11.3438 8.28711 9.5 8.28711Z" fill="black"/>
</svg>
