<svg width="24" height="24" viewBox="0 0 24 24" fill="none" xmlns="http://www.w3.org/2000/svg">
<path d="M12.6709 4.27246L15.2158 9.08594L20.5811 10.0137L22 10.2588L20.9971 11.29L17.1992 15.1904L17.9766 20.5752L18.1807 22L16.8916 21.3652L12.002 18.9648L7.1123 21.3652L5.81934 22L6.02344 20.5752L6.80078 15.1904L3.00293 11.29L2 10.2588L3.41895 10.0137L8.78418 9.08594L11.3291 4.27246L12.002 3L12.6709 4.27246ZM9.83594 9.63867L9.56445 10.1543L8.98828 10.2549L4.42285 11.0449L7.65137 14.3594L8.05957 14.7783L7.97852 15.3574L7.31641 19.9404L11.4775 17.9033L12.002 17.6475L12.5254 17.9033L16.6836 19.9443L16.0215 15.3613L15.9404 14.7822L16.3486 14.3633L19.5771 11.0449L15.0117 10.2549L14.4355 10.1543L14.1641 9.63867L12.002 5.5459L9.83594 9.63867Z" fill="#090907"/>
</svg>
