<svg width="24" height="24" viewBox="0 0 24 24" fill="none" xmlns="http://www.w3.org/2000/svg">
<path d="M22 18.9131H6.75391L8.66797 20.6445L9.13281 21.0654L8.29688 22L7.83203 21.5801L4.70703 18.752L4.19141 18.2842L4.70703 17.8174L7.83203 14.9893L8.29688 14.5684L9.13281 15.5039L8.66797 15.9238L6.75391 17.6562H20.75V11.3711H22V18.9131ZM16.168 2.41992L19.293 5.24805L19.8086 5.71582L19.293 6.18262L16.168 9.01074L15.7031 9.43164L14.8672 8.49609L15.332 8.07617L17.2461 6.34375H3.25V12.6289H2V5.08691H17.2461L15.332 3.35547L14.8672 2.93457L15.7031 2L16.168 2.41992Z" fill="#090907"/>
</svg>
