<svg width="24" height="24" viewBox="0 0 24 24" fill="none" xmlns="http://www.w3.org/2000/svg">
<path d="M7.45801 3V18.4844L10.2441 15.7246L10.7021 15.2705L11.6191 16.1787L11.1602 16.6328L7.26758 20.4893L6.80957 20.9434L6.35156 20.4893L2.45801 16.6328L2 16.1787L2.91602 15.2705L3.375 15.7246L6.16016 18.4844V3H7.45801ZM17.2676 3.4541L21.1602 7.31152L21.6191 7.76562L20.7021 8.67285L20.2441 8.21875L17.458 5.45898V20.9434H16.1602V5.45898L13.375 8.21875L12.916 8.67285L12 7.76562L12.458 7.31152L16.3516 3.4541L16.8096 3L17.2676 3.4541Z" fill="black"/>
</svg>
