<svg width="24" height="24" viewBox="0 0 24 24" fill="none" xmlns="http://www.w3.org/2000/svg">
<path d="M8.72949 13.2979L8.27539 13.7559L5.51562 16.542H21V17.8398H5.51562L8.27539 20.625L8.72949 21.084L7.82129 22L7.36719 21.542L3.51074 17.6484L3.05664 17.1904L3.51074 16.7324L7.36719 12.8398L7.82129 12.3809L8.72949 13.2979ZM16.6328 2.45801L20.4893 6.35156L20.9434 6.80957L20.4893 7.26758L16.6328 11.1602L16.1787 11.6191L15.2705 10.7021L15.7246 10.2441L18.4844 7.45801H3V6.16016H18.4844L15.7246 3.375L15.2705 2.91602L16.1787 2L16.6328 2.45801Z" fill="#090907"/>
</svg>
