<svg width="24" height="24" viewBox="0 0 24 24" fill="none" xmlns="http://www.w3.org/2000/svg">
<path d="M12 2L22 12L12 22L2 12V2H12ZM3.42871 3.42871V11.4062L12 19.9775L19.9775 12L11.4062 3.42871H3.42871ZM7 5.92871C7.28416 5.92871 7.55688 6.04126 7.75781 6.24219C7.95874 6.44312 8.07129 6.71584 8.07129 7C8.07129 7.28416 7.95874 7.55688 7.75781 7.75781C7.55688 7.95874 7.28416 8.07129 7 8.07129C6.71584 8.07129 6.44312 7.95874 6.24219 7.75781C6.04126 7.55688 5.92871 7.28416 5.92871 7C5.92871 6.71584 6.04126 6.44312 6.24219 6.24219C6.44312 6.04126 6.71584 5.92871 7 5.92871Z" fill="#090907"/>
</svg>
