<svg width="24" height="24" viewBox="0 0 24 24" fill="none" xmlns="http://www.w3.org/2000/svg">
<path d="M19.5 4V6.125H20.4375V8.55371H21.375V11.2861H22V16.1426H15.4141C15.6328 16.8939 15.75 17.6798 15.75 18.4805V21H10.75V18.4805C10.75 17.2624 10.125 16.1276 9.08203 15.4521L8.25 14.9131V13.5166L8.43359 13.5889L8.49609 13.6123L8.55078 13.6455L8.80469 13.8125L9.77344 14.4395C11.164 15.3388 12 16.8564 12 18.4805V19.7861H14.5V18.4883C14.5 17.5397 14.3085 16.6213 13.957 15.7676L13.6133 14.9326H20.75V12.5039H20.125V9.77148H19.1875V7.34277H18.25V5.21777H12.2461L8.25 7.80566V6.34473L11.2422 4.41016L11.7148 4.10254L11.8711 4H19.5ZM7 6.42871V17.3574H2V6.42871H7ZM3.25 7.64258V16.1426H5.75V7.64258H3.25Z" fill="black"/>
</svg>
