<svg width="24" height="24" viewBox="0 0 24 24" fill="none" xmlns="http://www.w3.org/2000/svg">
<path d="M7 21H2V10.0713H7V21ZM15.75 6.51953C15.75 7.3202 15.6328 8.10608 15.4141 8.85742H22V13.7139H21.375V16.4463H20.4375V18.875H19.5V21H11.8711L11.7148 20.8975L11.2422 20.5898L8.25391 18.6553V17.1982L11.9336 19.5811L12.25 19.7861H18.25V17.6611H19.1875V15.2324H20.125V12.5H20.75V10.0713H13.6133L13.957 9.23633C14.3085 8.3826 14.5 7.4642 14.5 6.51562V5.21387H12V6.51953C12 8.14357 11.164 9.6612 9.77344 10.5605L8.80469 11.1875L8.55078 11.3545L8.49609 11.3877L8.43359 11.4111L8.25 11.4834V10.0869L9.08203 9.54785C10.125 8.8762 10.75 7.73761 10.75 6.51953V4H15.75V6.51953ZM3.25 19.7861H5.75V11.2861H3.25V19.7861Z" fill="#090907"/>
</svg>
