<svg width="24" height="24" viewBox="0 0 24 24" fill="none" xmlns="http://www.w3.org/2000/svg">
<path d="M15.7529 2C16.5303 2.00003 17.2724 2.14069 17.96 2.39844C18.374 2.55465 18.7686 2.75399 19.1357 2.99219L15.7529 6.375V8.25H17.6279L20.1016 5.77734L21.0039 4.87109C21.2422 5.23826 21.4414 5.63285 21.5977 6.04688C21.8594 6.73437 22 7.47657 22 8.25391C22 11.7069 19.2027 14.5038 15.749 14.5039C15.1786 14.5039 14.6231 14.4258 14.0957 14.2812L7.25879 21.1172L6.37598 22L5.48926 21.1133L2.88281 18.5078L2 17.625L2.88672 16.7383L9.72461 9.90234C9.58005 9.37891 9.50195 8.82422 9.50195 8.25C9.50195 4.79687 12.2991 2 15.7529 2ZM15.7529 3.25391C12.9907 3.25391 10.752 5.49219 10.752 8.25391C10.752 8.71484 10.8144 9.15625 10.9277 9.57812L11.1191 10.2773L10.6074 10.7891L3.76953 17.625L6.37598 20.2305L13.2129 13.3945L13.7285 12.8828L14.4277 13.0742C14.8497 13.1875 15.2919 13.25 15.7529 13.25C18.5151 13.2499 20.7539 11.0116 20.7539 8.25C20.7539 7.83205 20.7031 7.42576 20.6055 7.03906L18.5146 9.13281L18.1475 9.5H14.5029V5.85547L14.8701 5.49219L16.9639 3.40234C16.5771 3.30471 16.1709 3.25393 15.7529 3.25391ZM7.57129 17.3125L6.68848 18.1953L5.80566 17.3125L6.68848 16.4297L7.57129 17.3125Z" fill="#090907"/>
</svg>
