<svg width="24" height="24" viewBox="0 0 24 24" fill="none" xmlns="http://www.w3.org/2000/svg">
<path d="M15.75 2C16.668 2 17.5391 2.19922 18.3242 2.55078L14.5 6.375V9.5H17.625L21.4492 5.67578C21.8008 6.46094 22 7.33203 22 8.25C22 11.7031 19.2031 14.5 15.75 14.5C15.0039 14.5 14.2852 14.3711 13.6211 14.1289L5.75 22L2 18.25L9.87109 10.3789C9.63281 9.71484 9.5 8.99609 9.5 8.25C9.5 4.79688 12.2969 2 15.75 2ZM4.73828 17.9375L6.0625 19.2617L7.38672 17.9375L6.0625 16.6133L4.73828 17.9375Z" fill="#090907"/>
</svg>
