<svg width="24" height="24" viewBox="0 0 24 24" fill="none" xmlns="http://www.w3.org/2000/svg">
<path d="M22 18H2V6H22V18ZM3 17H11.5V7H3V17ZM12.5 17H21V7H12.5V17ZM17.5 10H20V11H19.3096L18.0029 13.6152C18.0561 13.6496 18.1127 13.6844 18.1689 13.7188L18.7598 14.0723L19.1875 14.3281L18.6719 15.1875L18.2441 14.9316L17.6533 14.5781C17.4783 14.4719 17.3092 14.359 17.1436 14.2402L15.7246 14.9502L15.2783 15.1748L14.8311 14.2812L15.2783 14.0566L16.3223 13.5312L15.6465 12.8564L15.2939 12.5L16 11.7939L16.3535 12.1465L17.0596 12.8535C17.1063 12.9003 17.1505 12.9436 17.1973 12.9873L18.1904 11H14V10H16.5V9H17.5V10ZM7.46582 9.30957L9.71582 14.8096L9.79395 15H8.71289L8.30273 13.9971C8.28719 14.0001 8.26842 14 8.25293 14H5.75293C5.73736 14 5.71868 14.0002 5.70312 13.9971L5.29102 15H4.20898L4.28711 14.8096L6.53711 9.30957L6.66602 9H7.33789L7.46582 9.30957ZM6.10938 13H7.89355L7 10.8223L6.10938 13Z" fill="black"/>
</svg>
