<svg width="24" height="24" viewBox="0 0 24 24" fill="none" xmlns="http://www.w3.org/2000/svg">
<path d="M2 5V16.5C2 17.8813 3.11875 19 4.5 19C5.31875 19 6.04375 18.6062 6.5 18C6.95625 18.6062 7.68125 19 8.5 19C9.88125 19 11 17.8813 11 16.5H16C16 17.8813 17.1187 19 18.5 19C19.8813 19 21 17.8813 21 16.5H22V10.8096L21.8721 10.666L19.6221 8.16602L19.4717 8H17V5H2ZM18.5 15C18.697 15 18.8922 15.0389 19.0742 15.1143C19.2561 15.1896 19.4213 15.3002 19.5605 15.4395C19.6998 15.5787 19.8104 15.7439 19.8857 15.9258C19.9611 16.1078 20 16.303 20 16.5C20 16.697 19.9611 16.8922 19.8857 17.0742C19.8104 17.2561 19.6998 17.4213 19.5605 17.5605C19.4213 17.6998 19.2561 17.8104 19.0742 17.8857C18.8922 17.9611 18.697 18 18.5 18C18.303 18 18.1078 17.9611 17.9258 17.8857C17.7439 17.8104 17.5787 17.6998 17.4395 17.5605C17.3002 17.4213 17.1896 17.2561 17.1143 17.0742C17.0389 16.8922 17 16.697 17 16.5C17 16.303 17.0389 16.1078 17.1143 15.9258C17.1896 15.7439 17.3002 15.5787 17.4395 15.4395C17.5787 15.3002 17.7439 15.1896 17.9258 15.1143C18.1078 15.0389 18.303 15 18.5 15ZM8.5 15C8.89782 15 9.27924 15.1581 9.56055 15.4395C9.84185 15.7208 10 16.1022 10 16.5C10 16.8978 9.84185 17.2792 9.56055 17.5605C9.27924 17.8419 8.89782 18 8.5 18C8.10218 18 7.72076 17.8419 7.43945 17.5605C7.15815 17.2792 7 16.8978 7 16.5C7 16.1022 7.15815 15.7208 7.43945 15.4395C7.72076 15.1581 8.10218 15 8.5 15ZM4.5 15C4.69698 15 4.89223 15.0389 5.07422 15.1143C5.25613 15.1896 5.42131 15.3002 5.56055 15.4395C5.69979 15.5787 5.81036 15.7439 5.88574 15.9258C5.96112 16.1078 6 16.303 6 16.5C6 16.697 5.96112 16.8922 5.88574 17.0742C5.81036 17.2561 5.69979 17.4213 5.56055 17.5605C5.42131 17.6998 5.25613 17.8104 5.07422 17.8857C4.89223 17.9611 4.69698 18 4.5 18C4.30302 18 4.10777 17.9611 3.92578 17.8857C3.74387 17.8104 3.57869 17.6998 3.43945 17.5605C3.30021 17.4213 3.18964 17.2561 3.11426 17.0742C3.03888 16.8922 3 16.697 3 16.5C3 16.303 3.03888 16.1078 3.11426 15.9258C3.18964 15.7439 3.30021 15.5787 3.43945 15.4395C3.57869 15.3002 3.74387 15.1896 3.92578 15.1143C4.10777 15.0389 4.30302 15 4.5 15ZM21 12V15.5H20.791C20.4066 14.6156 19.525 14 18.5 14C17.9375 14 17.4187 14.1875 17 14.5V12H21ZM16 6V15.5H10.791C10.4066 14.6156 9.525 14 8.5 14C7.68125 14 6.95625 14.3938 6.5 15C6.04375 14.3938 5.31875 14 4.5 14C3.9375 14 3.41875 14.1875 3 14.5V6H16ZM19.0283 9L20.8281 11H17V9H19.0283Z" fill="#090907"/>
</svg>
