<svg width="24" height="24" viewBox="0 0 24 24" fill="none" xmlns="http://www.w3.org/2000/svg">
<path d="M12.3682 3.70239L21.8487 7.44458L22.1631 7.56958V19.385H21.1651V8.24927L12.1846 4.70337L3.20415 8.24927V19.385H2.2061V7.56958L2.52055 7.44458L12.001 3.70239L12.1846 3.6311L12.3682 3.70239ZM19.17 19.385H18.1719V10.4036H6.19731V19.385H5.19926V9.40552H19.17V19.385ZM13.1827 14.8938H17.1739V19.385H7.19536V11.4016H13.1827V14.8938ZM8.19341 18.387H12.1846V15.8918H8.19341V18.387ZM13.1827 18.387H16.1758V15.8918H13.1827V18.387ZM8.19341 14.8938H12.1846V12.3997H8.19341V14.8938Z" fill="black"/>
</svg>
