<svg width="24" height="24" viewBox="0 0 24 24" fill="none" xmlns="http://www.w3.org/2000/svg">
<path d="M7 16.25C8.65625 16.25 10 17.5098 10 19.0625H14C14 17.5098 15.3438 16.25 17 16.25V7.8125H18V20H6V7.8125H7V16.25ZM7 19.0625H9C9 18.0283 8.10313 17.1875 7 17.1875V19.0625ZM17 17.1875C15.8969 17.1875 15 18.0283 15 19.0625H17V17.1875ZM12 10.1562C13.8438 10.1562 15.5 11.3398 15.5 12.9688C15.5 14.5977 13.8438 15.7812 12 15.7812C10.1562 15.7812 8.5 14.5977 8.5 12.9688C8.5 11.3398 10.1562 10.1562 12 10.1562ZM12 11.0938C10.5312 11.0938 9.5 12.0107 9.5 12.9688C9.5 13.9268 10.5312 14.8438 12 14.8438C13.4688 14.8438 14.5 13.9268 14.5 12.9688C14.5 12.0107 13.4688 11.0938 12 11.0938ZM22 10.625H21V5.9375H3V10.625H2V5H22V10.625Z" fill="#090907"/>
</svg>
