<svg width="20" height="20" viewBox="0 0 20 20" fill="none" xmlns="http://www.w3.org/2000/svg">
<path opacity="0.4" d="M3 10C3 13.8656 6.13437 17 10 17C13.8656 17 17 13.8656 17 10C17 6.13437 13.8656 3 10 3C6.13437 3 3 6.13437 3 10ZM6.5 9.5H9.5V6.5H10.5V9.5H13.5V10.5H10.5V13.5H9.5V10.5H6.5V9.5Z" fill="#333333"/>
<path d="M10 3C13.8656 3 17 6.13438 17 10C17 13.8656 13.8656 17 10 17C6.13438 17 3 13.8656 3 10C3 6.13438 6.13438 3 10 3ZM10 18C14.4187 18 18 14.4187 18 10C18 5.58125 14.4187 2 10 2C5.58125 2 2 5.58125 2 10C2 14.4187 5.58125 18 10 18ZM9.5 13.5H10.5V10.5H13.5V9.5H10.5V6.5H9.5V9.5H6.5V10.5H9.5V13.5Z" fill="#333333"/>
</svg>
