<svg width="20" height="20" viewBox="0 0 20 20" fill="none" xmlns="http://www.w3.org/2000/svg">
<path opacity="0.4" d="M3 9.00626V10.9906L17 14.9281V5.06876L3 9.00626Z" fill="#333333"/>
<path d="M18 3H17V4.03125L3 7.96875V7H2V13H3V12.0312L6.19688 12.9312C6.06875 13.2625 6 13.625 6 14C6 15.6562 7.34375 17 9 17C10.4688 17 11.6937 15.9437 11.95 14.5469L17 15.9687V17H18V3ZM17 14.9312L3 10.9937V9.00937L17 5.07187V14.9312ZM10.9812 14.275C10.8469 15.25 10.0125 16 9 16C7.89687 16 7 15.1031 7 14C7 13.7156 7.05938 13.4469 7.16563 13.2031L10.9812 14.275Z" fill="#333333"/>
</svg>
