<svg width="20" height="20" viewBox="0 0 20 20" fill="none" xmlns="http://www.w3.org/2000/svg">
<path opacity="0.4" d="M1 14.5C1 16.4344 2.56562 18 4.5 18C6.43437 18 8 16.4344 8 14.5C8 12.5656 6.43437 11 4.5 11C2.56562 11 1 12.5656 1 14.5ZM12 14.5C12 16.4344 13.5656 18 15.5 18C17.4344 18 19 16.4344 19 14.5C19 12.5656 17.4344 11 15.5 11C13.5656 11 12 12.5656 12 14.5Z" fill="#333333"/>
<path d="M13.35 7L10.5 4.75L6.97504 7.475C6.01567 8.21875 6.08442 9.6875 7.10942 10.3375L9.00004 11.5375V16.0031H11V10.4688L9.21879 9.28125L11.1032 7.76562L12.65 9.00313H16V7.00313H13.35V7ZM11 3.5C11 2.67188 11.6719 2 12.5 2C13.3282 2 14 2.67188 14 3.5C14 4.32812 13.3282 5 12.5 5C11.6719 5 11 4.32812 11 3.5Z" fill="#333333"/>
</svg>
