<svg width="20" height="20" viewBox="0 0 20 20" fill="none" xmlns="http://www.w3.org/2000/svg">
<path opacity="0.4" d="M1.5 18H10.3219C9.16875 16.6625 8.5 14.9344 8.5 13.1V11.5H3.5L1.5 18ZM4.25 6C4.25 8.07188 5.92812 9.75 8 9.75C10.0719 9.75 11.75 8.07188 11.75 6C11.75 3.92812 10.0719 2.25 8 2.25C5.92812 2.25 4.25 3.92812 4.25 6Z" fill="#333333"/>
<path d="M19 13.1031C19 15.475 17.6031 17.6219 15.4375 18.5875L14.5 19.0031L13.5625 18.5875C11.3969 17.625 10 15.475 10 13.1031V11.5031L14.5 10.0031L19 11.5031V13.1031ZM14.8281 17.2156C16.4531 16.4937 17.5 14.8812 17.5 13.1031V12.5844L14.5 11.5844V17.3625L14.8281 17.2156Z" fill="#333333"/>
</svg>
