<svg width="20" height="20" viewBox="0 0 20 20" fill="none" xmlns="http://www.w3.org/2000/svg">
<path opacity="0.4" d="M3.53125 4H16.7969L15.6719 10H4.625L3.53437 4H3.53125ZM7.125 16.375C7.125 16.7188 6.84375 17 6.5 17C6.15625 17 5.875 16.7188 5.875 16.375C5.875 16.0312 6.15625 15.75 6.5 15.75C6.84375 15.75 7.125 16.0312 7.125 16.375ZM14.125 16.375C14.125 16.7188 13.8438 17 13.5 17C13.1562 17 12.875 16.7188 12.875 16.375C12.875 16.0312 13.1562 15.75 13.5 15.75C13.8438 15.75 14.125 16.0312 14.125 16.375Z" fill="#333333"/>
<path d="M0.5 2H0V3H2.33125L4.25625 13.5906L4.33125 14H15V13H5.16875L4.80625 11H16.5031L18.0031 3H3.35313C3.275 2.57812 3.21563 2.24375 3.17188 2H0.5ZM3.53125 4H16.7969L15.6719 10H4.625L3.53437 4H3.53125ZM5.875 16.375C5.875 16.0312 6.15625 15.75 6.5 15.75C6.84375 15.75 7.125 16.0312 7.125 16.375C7.125 16.7188 6.84375 17 6.5 17C6.15625 17 5.875 16.7188 5.875 16.375ZM8.125 16.375C8.125 15.4781 7.39687 14.75 6.5 14.75C5.60313 14.75 4.875 15.4781 4.875 16.375C4.875 17.2719 5.60313 18 6.5 18C7.39687 18 8.125 17.2719 8.125 16.375ZM13.5 15.75C13.8438 15.75 14.125 16.0312 14.125 16.375C14.125 16.7188 13.8438 17 13.5 17C13.1562 17 12.875 16.7188 12.875 16.375C12.875 16.0312 13.1562 15.75 13.5 15.75ZM13.5 18C14.3969 18 15.125 17.2719 15.125 16.375C15.125 15.4781 14.3969 14.75 13.5 14.75C12.6031 14.75 11.875 15.4781 11.875 16.375C11.875 17.2719 12.6031 18 13.5 18Z" fill="#333333"/>
</svg>
