<svg width="20" height="20" viewBox="0 0 20 20" fill="none" xmlns="http://www.w3.org/2000/svg">
<path opacity="0.4" d="M2 10C2 14.4187 5.58125 18 10 18C14.4187 18 18 14.4187 18 10C18 5.58125 14.4187 2 10 2C5.58125 2 2 5.58125 2 10ZM5.69063 10.75L6.75 9.69063L8.90938 11.85L12.6406 6.71875L13.0813 6.1125L14.2937 6.99687L13.8531 7.60313L9.60625 13.4438L9.09062 14.1531L8.47188 13.5312L5.69375 10.7531L5.69063 10.75Z" fill="#333333"/>
<path d="M14.2937 6.99375L13.8531 7.6L9.60623 13.4406L9.0906 14.15L8.47185 13.5281L5.69373 10.75L6.7531 9.69063L8.91248 11.85L12.6437 6.71875L13.0844 6.1125L14.2969 6.99688L14.2937 6.99375Z" fill="#333333"/>
</svg>
