<svg width="20" height="20" viewBox="0 0 20 20" fill="none" xmlns="http://www.w3.org/2000/svg">
<path opacity="0.4" d="M2 10C2 14.4187 5.58125 18 10 18C14.4187 18 18 14.4187 18 10C18 5.58125 14.4187 2 10 2C5.58125 2 2 5.58125 2 10ZM9.25 5H10.75V9.6C12.8687 11.0125 13.9656 11.7437 14.0406 11.7937C13.7625 12.2094 13.4844 12.625 13.2094 13.0406L12.5844 12.625C11.5844 11.9594 10.5844 11.2906 9.58438 10.625L9.25 10.4C9.25 10.2656 9.25 10.1313 9.25 10C9.25 8.58437 9.25 7.16563 9.25 5.75C9.25 5.5 9.25 5.25 9.25 5Z" fill="#333333"/>
<path d="M9.25 5V10.4L9.58438 10.6219L12.5844 12.6219L13.2094 13.0375L14.0406 11.7906C13.9656 11.7406 12.8688 11.0094 10.75 9.59687V4.99687H9.25V5Z" fill="#333333"/>
</svg>
