<svg width="20" height="20" viewBox="0 0 20 20" fill="none" xmlns="http://www.w3.org/2000/svg">
<path opacity="0.4" d="M2 10C2 14.4187 5.58125 18 10 18C14.4187 18 18 14.4187 18 10C18 5.58125 14.4187 2 10 2C5.58125 2 2 5.58125 2 10ZM6.84688 7.90938L7.90625 6.85C8.0875 7.03125 8.78437 7.72813 9.99687 8.94063C11.2094 7.72813 11.9062 7.03125 12.0875 6.85L13.1469 7.90938C12.9656 8.09063 12.2687 8.7875 11.0562 10C12.2687 11.2125 12.9656 11.9094 13.1469 12.0906L12.0875 13.15C11.9062 12.9688 11.2094 12.2719 9.99687 11.0594C8.78437 12.2719 8.0875 12.9688 7.90625 13.15L6.84688 12.0906C7.02813 11.9094 7.725 11.2125 8.9375 10C7.725 8.7875 7.02813 8.09063 6.84688 7.90938Z" fill="#333333"/>
<path d="M8.9406 10C7.7281 11.2125 7.03123 11.9094 6.84998 12.0906L7.90935 13.15C8.0906 12.9688 8.78748 12.2719 9.99998 11.0594C11.2125 12.2719 11.9094 12.9688 12.0906 13.15L13.15 12.0906C12.9687 11.9094 12.2719 11.2125 11.0594 10C12.2719 8.78751 12.9687 8.09063 13.15 7.90938L12.0906 6.85001C11.9094 7.03126 11.2125 7.72813 9.99998 8.94063C8.78748 7.72813 8.0906 7.03126 7.90935 6.85001L6.84998 7.90938C7.03123 8.09063 7.7281 8.78751 8.9406 10Z" fill="#333333"/>
</svg>
