<svg width="20" height="20" viewBox="0 0 20 20" fill="none" xmlns="http://www.w3.org/2000/svg">
<g clip-path="url(#clip0_1955_1793)">
<path opacity="0.4" d="M8.40625 13.6375L10.1906 14.5188C10.2125 14.6781 10.2438 14.8375 10.2875 14.9938C10.3313 15.15 10.3813 15.3063 10.4438 15.4531L9.34062 17.1094L10.8969 18.6656L12.5531 17.5625C12.85 17.6844 13.1656 17.7688 13.4906 17.8156L14.3719 19.5969L16.4969 19.0281L16.3656 17.0438C16.625 16.8438 16.8531 16.6125 17.05 16.3563L19.0344 16.4844L19.6031 14.3594L17.8188 13.4781C17.7969 13.3188 17.7688 13.1625 17.725 13.0031C17.6813 12.8438 17.6281 12.6906 17.5688 12.5438L18.6719 10.8875L17.1156 9.33125L15.4594 10.4344C15.1625 10.3125 14.8469 10.225 14.5219 10.1813L13.6406 8.4L11.5156 8.97188L11.6438 10.9531C11.3844 11.1531 11.1563 11.3844 10.9594 11.6406L8.975 11.5125L8.40625 13.6375ZM15.3781 14C15.3781 14.7594 14.7625 15.375 14.0031 15.375C13.2438 15.375 12.6281 14.7594 12.6281 14C12.6281 13.2406 13.2438 12.625 14.0031 12.625C14.7625 12.625 15.3781 13.2406 15.3781 14Z" fill="#333333"/>
<path d="M8.49063 0.971876L8.3625 2.95313C8.62187 3.15313 8.85 3.38438 9.04688 3.64063L11.0312 3.5125L11.6 5.6375L9.81563 6.51875C9.79375 6.67813 9.7625 6.8375 9.72188 6.99375C9.68125 7.15 9.625 7.30625 9.56563 7.45313L10.6687 9.10938L9.11563 10.6656L7.45937 9.5625C7.1625 9.68438 6.84687 9.77188 6.52187 9.81563L5.64062 11.5969L3.51562 11.0281L3.64375 9.04375C3.38437 8.84375 3.15625 8.6125 2.95937 8.35625L0.975 8.48438L0.40625 6.35938L2.19062 5.47813C2.2125 5.31875 2.24375 5.1625 2.2875 5.00313C2.33125 4.84375 2.38125 4.69063 2.44375 4.54375L1.3375 2.89063L2.89375 1.33438L4.54688 2.4375C4.84688 2.31563 5.15938 2.22813 5.48438 2.18438L6.36562 0.403126L8.49063 0.971876ZM6.00313 4.625C5.24375 4.625 4.62813 5.24063 4.62813 6C4.62813 6.75938 5.24375 7.375 6.00313 7.375C6.7625 7.375 7.37813 6.75938 7.37813 6C7.37813 5.24063 6.7625 4.625 6.00313 4.625Z" fill="#333333"/>
</g>
<defs>
<clipPath id="clip0_1955_1793">
<rect width="20" height="20" fill="white"/>
</clipPath>
</defs>
</svg>
