<svg width="20" height="20" viewBox="0 0 20 20" fill="none" xmlns="http://www.w3.org/2000/svg">
<path opacity="0.4" d="M6 4.5C6 3.11875 8.6875 2 12 2C15.3125 2 18 3.11875 18 4.5V5C18 5.95625 16.7094 6.7875 14.8125 7.20937C14.7375 7.12187 14.6594 7.0375 14.5813 6.95937C14.0969 6.48125 13.4719 6.11875 12.8188 5.85C11.5094 5.30312 9.80312 5.00313 8 5.00313C7.31562 5.00313 6.64687 5.04688 6.00625 5.13125C6 5.09062 6 5.04688 6 5.00313V4.50313V4.5ZM15.4688 8.59375C15.9531 8.47188 16.4062 8.325 16.8188 8.15C17.2313 7.975 17.6344 7.76875 18 7.51562V7.99687C18 8.83437 17.0156 9.575 15.5 10.0281V8.99687C15.5 8.85625 15.4875 8.72187 15.4688 8.59062V8.59375ZM15.5 11.5844C15.9719 11.4625 16.4156 11.3187 16.8188 11.15C17.2313 10.9781 17.6344 10.7688 18 10.5156V10.9969C18 11.8344 17.0156 12.575 15.5 13.0281V11.5844Z" fill="#333333"/>
<path d="M2 9V9.5C2 10.8812 4.6875 12 8 12C11.3125 12 14 10.8812 14 9.5V9C14 7.61875 11.3125 6.5 8 6.5C4.6875 6.5 2 7.61875 2 9ZM14 12.0188C13.6375 12.2719 13.2344 12.4781 12.8188 12.6531C11.5094 13.2 9.80312 13.5 8 13.5C6.19688 13.5 4.49063 13.1969 3.18125 12.6531C2.76563 12.4812 2.3625 12.2719 2 12.0188V12.5C2 13.8812 4.6875 15 8 15C11.3125 15 14 13.8812 14 12.5V12.0188ZM14 15.5V15.0188C13.6375 15.2719 13.2344 15.4781 12.8188 15.6531C11.5094 16.2 9.80312 16.5 8 16.5C6.19688 16.5 4.49063 16.1969 3.18125 15.6531C2.76563 15.4812 2.3625 15.2719 2 15.0188V15.5C2 16.8813 4.6875 18 8 18C11.3125 18 14 16.8813 14 15.5Z" fill="#333333"/>
</svg>
