<svg width="20" height="20" viewBox="0 0 20 20" fill="none" xmlns="http://www.w3.org/2000/svg">
<path opacity="0.4" d="M1.57178 9.14062L5.7124 5H8.79678L5.1499 8.64688L4.79678 9L5.52803 9.73125C6.89365 11.0969 9.1124 11.0969 10.478 9.73125L11.503 8.70625L15.7968 13L14.128 14.6687C13.3343 13.875 12.878 13.4187 12.753 13.2937L12.0468 14C12.1718 14.125 12.628 14.5844 13.4218 15.375L12.7968 16H10.9624C9.89365 14.9312 9.3249 14.3625 9.25615 14.2937L8.54678 15C8.73428 15.1875 9.06553 15.5219 9.54678 16H7.2124C6.14365 14.9312 5.5749 14.3625 5.50615 14.2937L5.1499 14.6469L2.4374 17.3594L1.57178 9.14062ZM6.2124 9L10.2124 5H13.853C14.9405 5.725 15.5124 6.10625 15.5687 6.14375L15.8593 5.85313L17.5874 4.125L18.4218 10.3781L16.5062 12.2937L11.8593 7.64687L11.5062 7.29375C11.4405 7.35937 10.8624 7.9375 9.7749 9.025C8.7999 10 7.21553 10 6.24053 9.025L6.21553 9H6.2124Z" fill="#333333"/>
<path d="M17.8563 3.85313L18.2094 3.5L17.5031 2.79375L17.15 3.14688L15.4406 4.85625L14.2812 4.08438L14.1562 4H5.29688L5.15 4.14688C4.81563 4.48125 3.48438 5.8125 1.15 8.14688L0.796875 8.5L1.50312 9.20625L5.7125 5H8.79688L5.15 8.64688L4.79688 9L5.52812 9.73125C6.89375 11.0969 9.1125 11.0969 10.4781 9.73125L11.5031 8.70625L15.7969 13L14.1281 14.6688C13.3344 13.875 12.8781 13.4188 12.7531 13.2938L12.0469 14C12.1719 14.125 12.6281 14.5844 13.4219 15.375L12.7969 16H10.9625C9.89375 14.9313 9.325 14.3625 9.25625 14.2938L8.54688 15C8.73438 15.1875 9.06563 15.5219 9.54688 16H7.2125C6.14375 14.9313 5.575 14.3625 5.50625 14.2938L5.15312 14.6469L2.15313 17.6469L1.8 18L2.50625 18.7063L2.85938 18.3531L5.50625 15.7063L6.65312 16.8531L6.8 17H13.2156L13.3625 16.8531L15.2594 14.9563C15.3469 14.8688 15.8812 14.3344 16.8625 13.3531L17.2156 13L18.8625 11.3531L19.2156 11L18.5094 10.2938L16.5094 12.2938L11.8625 7.64688L11.5094 7.29375C11.4437 7.35938 10.8656 7.9375 9.77812 9.025C8.80312 10 7.21875 10 6.24375 9.025L6.21875 9L10.2188 5H13.8594C14.9469 5.725 15.5188 6.10625 15.575 6.14375L15.8656 5.85313L17.8656 3.85313H17.8563Z" fill="#333333"/>
</svg>
