<svg width="20" height="20" viewBox="0 0 20 20" fill="none" xmlns="http://www.w3.org/2000/svg">
<path opacity="0.4" d="M12.0093 4H19.0093V14H18.7093C18.253 13.1094 17.328 12.5 16.2593 12.5C15.1905 12.5 14.2655 13.1094 13.8093 14H12.0093V4Z" fill="#333333"/>
<path d="M11.5094 3H11.0094V14.1281L1.36563 17.0219L0.8875 17.1656L1.175 18.125L1.65313 17.9813L11.5844 15.0031H13.5219C13.5156 15.0844 13.5094 15.1687 13.5094 15.2531C13.5094 16.7719 14.7406 18.0031 16.2594 18.0031C17.7781 18.0031 19.0094 16.7719 19.0094 15.2531C19.0094 13.7344 17.7781 12.5031 16.2594 12.5031C15.1906 12.5031 14.2656 13.1125 13.8094 14.0031H12.0094V4.00313H19.0094V3.00312H11.5094V3ZM14.5094 15.25C14.5094 14.2844 15.2937 13.5 16.2594 13.5C17.225 13.5 18.0094 14.2844 18.0094 15.25C18.0094 16.2156 17.225 17 16.2594 17C15.2937 17 14.5094 16.2156 14.5094 15.25ZM1.96875 7.91875L6.75 6.45625L8.2125 11.2375L3.43125 12.7L1.96875 7.91875ZM0.71875 7.25625L1.0125 8.2125L2.475 12.9937L2.76875 13.95L3.725 13.6562L8.50625 12.1938L9.4625 11.9L9.16875 10.9438L7.70625 6.1625L7.4125 5.20625L6.45625 5.5L1.675 6.9625L0.71875 7.25625Z" fill="#333333"/>
</svg>
