<svg width="20" height="20" viewBox="0 0 20 20" fill="none" xmlns="http://www.w3.org/2000/svg">
<path opacity="0.4" d="M3 10C3 10.8844 3.49687 11.6562 4.23125 12.0437L4.59688 12.2375L4.475 12.6312C4.23125 13.425 4.425 14.3219 5.05 14.9469C5.675 15.5719 6.57187 15.7656 7.36562 15.5219L7.75937 15.4L7.95312 15.7656C8.34375 16.5031 9.11562 17 10 17C10.8844 17 11.6562 16.5031 12.0437 15.7687L12.2375 15.4031L12.6312 15.525C13.425 15.7687 14.3219 15.575 14.9469 14.95C15.5719 14.325 15.7656 13.4281 15.5219 12.6344L15.4 12.2406L15.7656 12.0469C16.5031 11.6562 17 10.8844 17 10C17 9.11562 16.5031 8.34375 15.7687 7.95625L15.4031 7.7625L15.525 7.36875C15.7687 6.575 15.575 5.67812 14.95 5.05312C14.325 4.42812 13.4281 4.23438 12.6344 4.47812L12.2406 4.6L12.0469 4.23437C11.6562 3.49687 10.8844 3 10 3C9.11562 3 8.34375 3.49687 7.95625 4.23125L7.7625 4.59688L7.36875 4.475C6.575 4.23125 5.67812 4.425 5.05312 5.05C4.42812 5.675 4.23438 6.57187 4.47812 7.36562L4.6 7.75937L4.23437 7.95312C3.49687 8.34375 3 9.11562 3 10ZM6.79375 12.5L7.14687 12.1469L12.1469 7.14687L12.5 6.79375L13.2062 7.5L12.8531 7.85312L7.85312 12.8531L7.5 13.2062L6.79375 12.5ZM8.75 8C8.75 8.41562 8.41562 8.75 8 8.75C7.58437 8.75 7.25 8.41562 7.25 8C7.25 7.58437 7.58437 7.25 8 7.25C8.41562 7.25 8.75 7.58437 8.75 8ZM12.75 12C12.75 12.4156 12.4156 12.75 12 12.75C11.5844 12.75 11.25 12.4156 11.25 12C11.25 11.5844 11.5844 11.25 12 11.25C12.4156 11.25 12.75 11.5844 12.75 12Z" fill="#333333"/>
<path d="M7.95625 4.23125C8.34375 3.49687 9.11562 3 10 3C10.8844 3 11.6562 3.49687 12.0437 4.23125L12.2375 4.59688L12.6313 4.475C13.425 4.23125 14.3219 4.425 14.9469 5.05C15.5719 5.675 15.7656 6.57188 15.5219 7.36562L15.4 7.75938L15.7656 7.95312C16.5031 8.34375 17 9.11562 17 10C17 10.8844 16.5031 11.6562 15.7688 12.0437L15.4031 12.2375L15.525 12.6313C15.7687 13.425 15.575 14.3219 14.95 14.9469C14.325 15.5719 13.4281 15.7656 12.6344 15.5219L12.2406 15.4L12.0469 15.7656C11.6562 16.5031 10.8844 17 10 17C9.11562 17 8.34375 16.5031 7.95625 15.7688L7.7625 15.4031L7.36875 15.525C6.575 15.7687 5.67812 15.575 5.05312 14.95C4.42812 14.325 4.23438 13.4281 4.47813 12.6344L4.6 12.2406L4.23438 12.0469C3.49688 11.6562 3 10.8844 3 10C3 9.11562 3.49687 8.34375 4.23125 7.95625L4.59688 7.7625L4.475 7.36875C4.23125 6.575 4.425 5.67812 5.05 5.05312C5.675 4.42812 6.57188 4.23438 7.36562 4.47813L7.75938 4.6L7.95312 4.23438L7.95625 4.23125ZM10 2C8.87187 2 7.875 2.56562 7.27812 3.425C6.24687 3.2375 5.14375 3.54375 4.34375 4.34375C3.54375 5.14375 3.24062 6.24687 3.425 7.27812C2.56562 7.875 2 8.87187 2 10C2 11.1281 2.56562 12.125 3.425 12.7219C3.2375 13.7531 3.54375 14.8562 4.34375 15.6562C5.14375 16.4563 6.24687 16.7594 7.27812 16.575C7.875 17.4344 8.87187 18 10 18C11.1281 18 12.125 17.4344 12.7219 16.575C13.7531 16.7625 14.8562 16.4563 15.6562 15.6562C16.4563 14.8562 16.7594 13.7531 16.575 12.7219C17.4344 12.125 18 11.1281 18 10C18 8.87187 17.4344 7.875 16.575 7.27812C16.7625 6.24687 16.4563 5.14375 15.6562 4.34375C14.8562 3.54375 13.7531 3.24062 12.7219 3.425C12.125 2.56562 11.1281 2 10 2ZM13.2063 7.5L12.5 6.79375L12.1469 7.14687L7.14687 12.1469L6.79375 12.5L7.5 13.2063L7.85313 12.8531L12.8531 7.85313L13.2063 7.5ZM8 8.75C8.41563 8.75 8.75 8.41563 8.75 8C8.75 7.58437 8.41563 7.25 8 7.25C7.58437 7.25 7.25 7.58437 7.25 8C7.25 8.41563 7.58437 8.75 8 8.75ZM12 12.75C12.4156 12.75 12.75 12.4156 12.75 12C12.75 11.5844 12.4156 11.25 12 11.25C11.5844 11.25 11.25 11.5844 11.25 12C11.25 12.4156 11.5844 12.75 12 12.75Z" fill="#333333"/>
</svg>
