<svg width="20" height="20" viewBox="0 0 20 20" fill="none" xmlns="http://www.w3.org/2000/svg">
<path opacity="0.4" d="M4.80933 12.1031L7.8937 15.1875L13.9375 9.14375L10.8531 6.05937L4.80933 12.1031Z" fill="#333333"/>
<path d="M1.81562 17.3719L1.5 18.5C1.58438 18.475 3.66875 17.8937 7.75 16.75L17.7938 6.70625L18.5 6C18.425 5.925 17.1594 4.65937 14.7063 2.20625L14 1.5L13.2937 2.20625L3.25 12.25L1.81562 17.3719ZM7.89687 15.1875L4.8125 12.1031L10.8562 6.05937L13.9406 9.14375L7.89687 15.1875ZM7.16875 15.875L2.94375 17.0562L4.125 12.8313L7.16875 15.875ZM17.0844 6L14.6438 8.44063L11.5594 5.35625L14 2.91563L17.0844 6Z" fill="#333333"/>
</svg>
