<svg width="20" height="20" viewBox="0 0 20 20" fill="none" xmlns="http://www.w3.org/2000/svg">
<path opacity="0.4" d="M5.11865 10H10.7374C10.6312 10.4938 10.3249 11.925 9.81865 14.2875L14.9999 8.13437V8H9.78115C9.85303 7.6375 10.1874 5.96875 10.7812 3H5.89365L5.11865 10Z" fill="#333333"/>
<path d="M11.2 6C11.6656 3.66563 11.9344 2.33437 12 2H5L4.1125 10L4 11H9.5C9.4625 11.1812 9.10937 12.8188 8.44687 15.9187L8 18C8.0375 17.9531 10.7063 14.7875 16 8.5V7H11L11.2 6ZM15 8V8.13437L9.81875 14.2875C10.325 11.9219 10.6313 10.4937 10.7375 10H5.11875L5.89375 3H10.7812C10.1875 5.96875 9.85313 7.6375 9.78125 8H15Z" fill="#333333"/>
</svg>
