<svg width="20" height="20" viewBox="0 0 20 20" fill="none" xmlns="http://www.w3.org/2000/svg">
<path opacity="0.4" d="M3 11.9562V17H8.04375C6.83437 15.7906 6.20937 15.1656 6.16875 15.125L6.52187 14.7719L9.29375 12L8 10.7062L5.22812 13.4781L4.875 13.8312C4.83437 13.7906 4.20937 13.1656 3 11.9562ZM10.7062 8L12 9.29375L14.7719 6.52187L15.125 6.16875C15.1656 6.20937 15.7906 6.83437 17 8.04375V3H11.9562C13.1656 4.20937 13.7906 4.83437 13.8312 4.875L13.4781 5.22812L10.7062 8Z" fill="#333333"/>
<path d="M10.75 2H9.54375C9.91875 2.375 10.8781 3.33438 12.4187 4.875L9.64688 7.64688L9.29375 8L9.64688 8.35312L11.6469 10.3531L12 10.7063L12.3531 10.3531L15.125 7.58125C16.6688 9.125 17.625 10.0813 18 10.4563V2H10.75ZM13.4781 4.52188L11.9563 3H17V8.04375C15.7906 6.83437 15.1656 6.20937 15.125 6.16875L14.7719 6.52187L12 9.29375L10.7063 8L13.4781 5.22813L13.8313 4.875L13.4781 4.52188ZM9.25 18H10.4563C10.0813 17.625 9.12188 16.6656 7.58125 15.125L10.3531 12.3531L10.7063 12L10.3531 11.6469L8.35312 9.64688L8 9.29375L7.64688 9.64688L4.875 12.4187C3.33125 10.875 2.375 9.91875 2 9.54375V18H9.25ZM6.52187 15.4781L8.04375 17H3V11.9563C4.20938 13.1656 4.83437 13.7906 4.875 13.8313L5.22813 13.4781L8 10.7063L9.29375 12L6.52187 14.7719L6.16875 15.125L6.52187 15.4781Z" fill="#333333"/>
</svg>
