<svg width="20" height="20" viewBox="0 0 20 20" fill="none" xmlns="http://www.w3.org/2000/svg">
<path opacity="0.4" d="M3 7.15938C3 8.29688 3.49687 9.3625 4.09375 10.3062C4.7875 11.4031 5.73125 12.4781 6.7 13.4344C7.66562 14.3875 8.6375 15.2 9.36563 15.7781C9.60625 15.9688 9.81875 16.1313 9.99687 16.2625C10.175 16.1281 10.3875 15.9656 10.6281 15.7781C11.3594 15.2031 12.3281 14.3875 13.2937 13.4344C14.2625 12.4781 15.2062 11.4031 15.9 10.3062C16.5 9.3625 16.9937 8.29688 16.9937 7.15938C16.9937 5.4125 15.5781 4 13.8344 4C12.8188 4 11.8687 4.4875 11.275 5.30937L9.99687 7.07812L8.71875 5.30937C8.12813 4.4875 7.175 4 6.15938 4C4.41563 4 3 5.41563 3 7.15938Z" fill="#333333"/>
<path d="M10 17.5C10 17.5 2 11.9812 2 7.24062C2 4.94375 3.83125 3 6.15938 3C7.9125 3 9.04688 4.05312 10 5.37187C10.9531 4.05312 12.0875 3 13.8406 3C16.1719 3 18 4.94375 18 7.24062C18 11.9812 10 17.5 10 17.5ZM10 7.07812L8.72188 5.30937C8.12813 4.4875 7.175 4 6.1625 4C4.41562 4 3.00312 5.41563 3.00312 7.15938C3.00312 8.29688 3.5 9.3625 4.09688 10.3062C4.79063 11.4031 5.73438 12.4781 6.70312 13.4344C7.66875 14.3875 8.64062 15.2 9.36875 15.7781C9.60937 15.9688 9.82188 16.1313 10 16.2625C10.1781 16.1281 10.3906 15.9656 10.6313 15.7781C11.3625 15.2031 12.3313 14.3875 13.2969 13.4344C14.2656 12.4781 15.2094 11.4031 15.9031 10.3062C16.5031 9.3625 16.9969 8.29688 16.9969 7.15938C16.9969 5.4125 15.5812 4 13.8375 4C12.8219 4 11.8719 4.4875 11.2781 5.30937L10 7.07812Z" fill="#333333"/>
</svg>
