<svg width="20" height="20" viewBox="0 0 20 20" fill="none" xmlns="http://www.w3.org/2000/svg">
<path opacity="0.4" d="M4 11C4 14.3125 6.6875 17 10 17C13.3125 17 16 14.3125 16 11C16 9.06562 15.2125 7.3 14.4125 6.00625C14.0125 5.3625 13.6156 4.84062 13.3156 4.47812C13.2188 4.35937 13.1125 4.24062 13 4.11875C12.8969 4.23125 12.8 4.34062 12.7031 4.45625C12.5813 4.60312 12.4406 4.77812 12.2906 4.975C11.9937 5.36875 11.6969 5.7625 11.4 6.15625C11.1437 5.73437 10.8906 5.3125 10.6344 4.89062C10.1719 4.12812 9.69688 3.4875 9.3 3C9.04063 2.68437 8.77188 2.3875 8.4875 2.09687C8.29688 2.26875 8.11562 2.44062 7.9375 2.625C7.5 3.075 6.9125 3.72812 6.32812 4.54687C5.15625 6.18125 4 8.44375 4 10.9937V11ZM6 11.5875C6 10.4031 6.56562 9.4 7.09062 8.71875C7.35625 8.375 7.62188 8.1 7.82188 7.90937C8.03125 7.70937 8.25 7.54062 8.47812 7.3625C8.50312 7.34062 8.53125 7.32187 8.55625 7.3L8.86563 7.68437C8.95625 7.79687 9.6375 8.6625 10.2937 9.49687L11.2125 10.6656L12.8 8.81875L13.175 9.31562C13.3344 9.52812 13.4406 9.74062 13.525 9.90937C14.4187 11.5531 14.0344 13.6719 12.4906 14.75C11.7531 15.2406 10.9469 15.4969 10.0531 15.4969C8.95938 15.4969 7.94687 15.1437 7.2 14.4625C6.44687 13.775 6 12.7844 6 11.5844V11.5875Z" fill="#333333"/>
<path d="M8.85625 1.05937L8.52812 0.740623L8.18125 1.04062C7.85 1.325 7.53437 1.6125 7.22187 1.93437C6.75625 2.4125 6.13437 3.10312 5.51562 3.96875C4.28437 5.6875 3 8.15312 3 11C3 14.8656 6.13437 18 10 18C13.8656 18 17 14.8656 17 11C17 8.80312 16.1125 6.85312 15.2625 5.48125C14.8344 4.79062 14.4062 4.23125 14.0844 3.84375C13.8594 3.575 13.6062 3.30625 13.3562 3.05L13 2.68437L12.6437 3.04687C12.4 3.29375 12.1625 3.54375 11.9344 3.81875C11.8031 3.975 11.6531 4.1625 11.4906 4.37812C11 3.56875 10.4969 2.89062 10.075 2.37187C9.6875 1.9 9.28437 1.475 8.85625 1.05937ZM7.9375 2.63125C8.11562 2.44687 8.29688 2.275 8.4875 2.10312C8.77187 2.39375 9.04062 2.6875 9.3 3.00625C9.7 3.49375 10.175 4.13437 10.6344 4.89687C10.8906 5.31875 11.1437 5.74062 11.4 6.1625C11.6969 5.76875 11.9937 5.375 12.2906 4.98125C12.4406 4.78125 12.5812 4.60625 12.7031 4.4625C12.8 4.34687 12.8969 4.23437 13 4.125C13.1125 4.24687 13.2188 4.36562 13.3156 4.48437C13.6156 4.84375 14.0125 5.36562 14.4125 6.0125C15.2125 7.30625 16 9.07187 16 11.0062C16 14.3187 13.3125 17.0062 10 17.0062C6.6875 17.0062 4 14.3125 4 11C4 8.45 5.15625 6.1875 6.32812 4.55312C6.9125 3.7375 7.49687 3.08437 7.9375 2.63125ZM8.55625 7.30312C8.53125 7.325 8.50312 7.34375 8.47812 7.36562C8.25 7.54062 8.03125 7.7125 7.82187 7.9125C7.62187 8.10312 7.35625 8.37812 7.09062 8.72187C6.56562 9.40312 6 10.4062 6 11.5906C6 12.7937 6.44687 13.7844 7.2 14.4687C7.94687 15.15 8.9625 15.5031 10.0531 15.5031C10.9437 15.5031 11.7531 15.2469 12.4906 14.7562C14.0344 13.6781 14.4187 11.5562 13.525 9.91562C13.4406 9.74687 13.3344 9.53437 13.175 9.32187L12.8 8.825L11.2125 10.6719L10.2937 9.50312C9.6375 8.66875 8.95312 7.8 8.86562 7.69062L8.55625 7.30625V7.30312ZM7.88437 9.33125C8.07187 9.0875 8.25937 8.88437 8.41562 8.73125C9.20625 9.73125 9.99375 10.7344 10.7812 11.7375C10.9156 11.9062 11.0469 12.075 11.1812 12.2437L12.6969 10.4812C13.3094 11.7062 12.9812 13.1937 11.925 13.9312C11.3469 14.3125 10.7437 14.5 10.0562 14.5C9.175 14.5 8.4125 14.2187 7.875 13.7281C7.34375 13.2437 7 12.5281 7 11.5875C7 10.7219 7.42188 9.93125 7.88437 9.33125Z" fill="#333333"/>
</svg>
