<svg width="20" height="20" viewBox="0 0 20 20" fill="none" xmlns="http://www.w3.org/2000/svg">
<path opacity="0.4" d="M4.76245 10H9.51245C9.44683 10.2344 8.8812 12.2969 7.80933 16.1906L15.2375 10H10.4875C10.5531 9.76563 11.1187 7.70313 12.1906 3.80938L4.76245 10Z" fill="#333333"/>
<path d="M12.075 8C13.2156 3.85625 13.8562 1.52188 14 1L12.6531 2.12188L3.2 10L2 11H8.2L7.925 12C6.78438 16.1438 6.14375 18.4781 6 19L7.34688 17.8781L16.8 10L18 9H11.8L12.075 8ZM15.2375 10L7.80937 16.1906C8.88125 12.2969 9.44687 10.2344 9.5125 10H4.7625L12.1906 3.80938C11.1188 7.70312 10.5531 9.76562 10.4875 10H15.2375Z" fill="#333333"/>
</svg>
