<svg width="20" height="20" viewBox="0 0 20 20" fill="none" xmlns="http://www.w3.org/2000/svg">
<path opacity="0.4" d="M7 4H18V6H7V4ZM7 9H18V11H7V9ZM7 14H18V16H7V14Z" fill="#333333"/>
<path d="M3.5 6.5C4.32812 6.5 5 5.82812 5 5C5 4.17188 4.32812 3.5 3.5 3.5C2.67188 3.5 2 4.17188 2 5C2 5.82812 2.67188 6.5 3.5 6.5ZM5 10C5 9.17188 4.32812 8.5 3.5 8.5C2.67188 8.5 2 9.17188 2 10C2 10.8281 2.67188 11.5 3.5 11.5C4.32812 11.5 5 10.8281 5 10ZM5 15C5 14.1719 4.32812 13.5 3.5 13.5C2.67188 13.5 2 14.1719 2 15C2 15.8281 2.67188 16.5 3.5 16.5C4.32812 16.5 5 15.8281 5 15Z" fill="#333333"/>
</svg>
