<svg width="20" height="20" viewBox="0 0 20 20" fill="none" xmlns="http://www.w3.org/2000/svg">
<path opacity="0.4" d="M3 11V12.5C3.82812 12.5 4.5 11.8281 4.5 11H3ZM3 13.5V14.5C4.38125 14.5 5.5 15.6188 5.5 17H14.5C14.5 15.6188 15.6187 14.5 17 14.5V13.5C15.6187 13.5 14.5 12.3813 14.5 11H5.5C5.5 12.3813 4.38125 13.5 3 13.5ZM3 15.5V17H4.5C4.5 16.1719 3.82812 15.5 3 15.5ZM12 14C12 15.1031 11.1031 16 10 16C8.89687 16 8 15.1031 8 14C8 12.8969 8.89687 12 10 12C11.1031 12 12 12.8969 12 14ZM15.5 11C15.5 11.8281 16.1719 12.5 17 12.5V11H15.5ZM15.5 17H17V15.5C16.1719 15.5 15.5 16.1719 15.5 17Z" fill="#333333"/>
<path d="M13 2V3H15.2937L10.975 7.31875L7.825 4.61875L7.5 4.34063L7.175 4.61875L3.675 7.61875L4.325 8.37813L7.5 5.65625L10.675 8.37813L11.0281 8.67813L11.3562 8.35L16.0031 3.70313V5.99688H17.0031V1.99688H13.0031L13 2ZM17 11V12.5C16.1719 12.5 15.5 11.8281 15.5 11H17ZM5.5 11H14.5C14.5 12.3813 15.6187 13.5 17 13.5V14.5C15.6187 14.5 14.5 15.6188 14.5 17H5.5C5.5 15.6188 4.38125 14.5 3 14.5V13.5C4.38125 13.5 5.5 12.3813 5.5 11ZM15.5 17C15.5 16.1719 16.1719 15.5 17 15.5V17H15.5ZM3 15.5C3.82812 15.5 4.5 16.1719 4.5 17H3V15.5ZM4.5 11C4.5 11.8281 3.82812 12.5 3 12.5V11H4.5ZM3 10H2V18H18V10H3ZM9 14C9 13.4469 9.44688 13 10 13C10.5531 13 11 13.4469 11 14C11 14.5531 10.5531 15 10 15C9.44688 15 9 14.5531 9 14ZM12 14C12 12.8969 11.1031 12 10 12C8.89687 12 8 12.8969 8 14C8 15.1031 8.89687 16 10 16C11.1031 16 12 15.1031 12 14Z" fill="#333333"/>
</svg>
