<svg width="20" height="20" viewBox="0 0 20 20" fill="none" xmlns="http://www.w3.org/2000/svg">
<path opacity="0.4" d="M4.19995 14H15.8L14.125 10.9844C14.0437 10.8344 14 10.6687 14 10.5V8C14 5.79063 12.2093 4 9.99995 4C7.79058 4 5.99995 5.79063 5.99995 8V10.5C5.99995 10.6687 5.9562 10.8375 5.87495 10.9844L4.19995 14Z" fill="#333333"/>
<path d="M10.5 2H9.5V3.025C6.97188 3.275 5 5.40625 5 8V10.5C3.47187 13.25 2.6375 14.75 2.5 15H17.5C17.3625 14.75 16.5281 13.25 15 10.5V8C15 5.40625 13.0281 3.275 10.5 3.025V2ZM10 4C12.2094 4 14 5.79063 14 8V10.5C14 10.6687 14.0437 10.8375 14.125 10.9844L15.8 14H4.2L5.875 10.9844C5.95625 10.8344 6 10.6687 6 10.5V8C6 5.79063 7.79063 4 10 4ZM8.0625 16.5C8.28438 17.3625 9.06875 18 10 18C10.9312 18 11.7156 17.3625 11.9375 16.5H10.8656C10.6938 16.8 10.3688 17 10 17C9.63125 17 9.30625 16.8 9.13437 16.5H8.0625Z" fill="#333333"/>
</svg>
