<svg width="20" height="20" viewBox="0 0 20 20" fill="none" xmlns="http://www.w3.org/2000/svg">
<path opacity="0.4" d="M3 4V9.58438L8.75 15.3344L14.3375 9.75L8.5875 4H3ZM6.25 6.5C6.25 6.91563 5.91563 7.25 5.5 7.25C5.08437 7.25 4.75 6.91563 4.75 6.5C4.75 6.08437 5.08437 5.75 5.5 5.75C5.91563 5.75 6.25 6.08437 6.25 6.5Z" fill="#333333"/>
<path d="M3 9.58438L8.75 15.3344L14.3375 9.75L8.5875 4H3V9.58438ZM9 3L15.0437 9.04375L15.75 9.75L15.0437 10.4563L9.45938 16.0438L8.75 16.75L8.04375 16.0438L2 10V3H9ZM13.2563 3.29375L13.6062 3.65L19.2812 9.4L19.6281 9.75L19.2812 10.1L13.3531 16.1L13.0031 16.4562L12.2906 15.7531L12.6406 15.3969L18.2219 9.74687L12.8938 4.34688L12.5437 3.99062L13.2563 3.2875V3.29375ZM5.5 5.75C5.91563 5.75 6.25 6.08437 6.25 6.5C6.25 6.91563 5.91563 7.25 5.5 7.25C5.08437 7.25 4.75 6.91563 4.75 6.5C4.75 6.08437 5.08437 5.75 5.5 5.75Z" fill="#333333"/>
</svg>
