<svg width="20" height="20" viewBox="0 0 20 20" fill="none" xmlns="http://www.w3.org/2000/svg">
<path opacity="0.4" d="M3.51245 11.2187L8.26558 13.9344L8.75308 14.2125C8.84683 13.9937 9.09995 13.4 9.51558 12.4344V17.1375L3.51558 13.7094V11.2187H3.51245ZM10.5125 10.2906L16.5156 6.8625V13.7125L10.5125 17.1406V10.2906Z" fill="#333333"/>
<path d="M8.97505 13.6969L8.75317 14.2125L8.26567 13.9344L3.51255 11.2187V13.7094L9.51255 17.1375V12.4344L8.97192 13.6969H8.97505ZM9.3813 10.2125L3.2563 6.7125L2.15317 9.2875L8.27817 12.7875L9.3813 10.2125ZM4.02192 6L10.0125 9.425L16.0063 6L10.0157 2.575L4.02192 6ZM17.5157 7.80312V14.2875L17.2626 14.4312L10.2625 18.4312L10.0157 18.5719L9.7688 18.4312L2.7688 14.4312L2.51567 14.2875V10.6469C1.53755 10.0906 0.993799 9.77812 0.878174 9.7125L1.05317 9.30312L2.55317 5.80312L2.6188 5.65L2.76567 5.56562L9.76567 1.56562L10.0125 1.425L10.2594 1.56562L17.2594 5.56562L17.3719 5.63125L17.4407 5.74375L18.9407 8.24375L19.1969 8.67187L18.3407 9.1875C18.2219 8.99062 17.9438 8.52812 17.5126 7.80625L17.5157 7.80312ZM10.5157 10.2875V17.1375L16.5188 13.7094V6.85937L10.5157 10.2875Z" fill="#333333"/>
</svg>
