<svg width="20" height="20" viewBox="0 0 20 20" fill="none" xmlns="http://www.w3.org/2000/svg">
<path opacity="0.4" d="M3 7H15V8.52188C14.8344 8.50938 14.6687 8.5 14.5 8.5C11.1875 8.5 8.5 11.1875 8.5 14.5C8.5 15.0188 8.56563 15.5219 8.6875 16H3V7ZM3.22813 6L5.0125 3.5H8.49687V6H3.225H3.22813ZM9.5 3.5H12.9844L14.7688 6H9.49687V3.5H9.5Z" fill="#333333"/>
<path d="M14.7719 6L12.9875 3.5H9.50313V6H14.775H14.7719ZM15 7H3V16H8.6875C8.77812 16.3469 8.89687 16.6812 9.04375 17H2V6L4.5 2.5H13.5L16 6V8.6875C15.675 8.60313 15.3438 8.54688 15 8.51875V6.99687V7ZM3.22813 6H8.5V3.5H5.01562L3.23125 6H3.22813ZM14.5 18C16.4344 18 18 16.4344 18 14.5C18 12.5656 16.4344 11 14.5 11C12.5656 11 11 12.5656 11 14.5C11 16.4344 12.5656 18 14.5 18ZM14.5 10C16.9844 10 19 12.0156 19 14.5C19 16.9844 16.9844 19 14.5 19C12.0156 19 10 16.9844 10 14.5C10 12.0156 12.0156 10 14.5 10ZM16.7 12.8906L16.4062 13.2937L14.4062 16.0438L14.0625 16.5156C13.925 16.3781 13.3719 15.825 12.4 14.8531L12.0437 14.5L12.75 13.7937C12.9062 13.95 13.3031 14.3469 13.9406 14.9844L15.5969 12.7063L15.8906 12.3031L16.7 12.8906Z" fill="#333333"/>
</svg>
