<svg width="20" height="20" viewBox="0 0 20 20" fill="none" xmlns="http://www.w3.org/2000/svg">
<path opacity="0.4" d="M5 5H15V14C13.3438 14 12 15.3438 12 17H8C8 15.3438 6.65625 14 5 14V5ZM5 15C6.10312 15 7 15.8969 7 17H5V15ZM7 10C7 11.6562 8.34375 13 10 13C11.6562 13 13 11.6562 13 10C13 8.34375 11.6562 7 10 7C8.34375 7 7 8.34375 7 10ZM13 17C13 15.8969 13.8969 15 15 15V17H13Z" fill="#333333"/>
<path d="M1 2H19V8H18V3H2V8H1V2ZM15 17V15C13.8969 15 13 15.8969 13 17H15ZM12 17C12 15.3438 13.3438 14 15 14V5H16V18H4V5H5V14C6.65625 14 8 15.3438 8 17H12ZM7 17C7 15.8969 6.10313 15 5 15V17H7ZM10 12C11.1031 12 12 11.1031 12 10C12 8.89687 11.1031 8 10 8C8.89687 8 8 8.89687 8 10C8 11.1031 8.89687 12 10 12ZM10 7C11.6562 7 13 8.34375 13 10C13 11.6562 11.6562 13 10 13C8.34375 13 7 11.6562 7 10C7 8.34375 8.34375 7 10 7Z" fill="#333333"/>
</svg>
