<svg width="20" height="20" viewBox="0 0 20 20" fill="none" xmlns="http://www.w3.org/2000/svg">
<path opacity="0.4" d="M3 4.61875C3.0625 11.4281 8.57188 16.9375 15.3813 17L16.6906 14.3812L13.1594 12.2625C12.2375 13.1969 11.6844 13.7562 11.5031 13.9437L10.8906 13.7094C8.77812 12.8969 7.10625 11.225 6.29375 9.1125L6.05937 8.5C6.24687 8.31562 6.80625 7.7625 7.74062 6.84062L5.61875 3.30937L3 4.61875Z" fill="#333333"/>
<path d="M7.225 8.75L9 7L6 2L2 4V4.5C2 11.9563 8.04375 18 15.5 18H16L18 14L13 11L11.25 12.775C9.4 12.0625 7.9375 10.6 7.225 8.75ZM13.1594 12.2625L16.6906 14.3813L15.3813 17C8.57188 16.9375 3.0625 11.4281 3 4.61875L5.61875 3.30938L7.7375 6.84062C6.80313 7.7625 6.24375 8.31563 6.05625 8.5L6.29063 9.1125C7.10313 11.225 8.775 12.8969 10.8875 13.7094L11.5 13.9438C11.6844 13.7563 12.2375 13.1969 13.1562 12.2625H13.1594Z" fill="#333333"/>
</svg>
