<svg width="20" height="20" viewBox="0 0 20 20" fill="none" xmlns="http://www.w3.org/2000/svg">
<path opacity="0.4" d="M3 6V16H17V6H13.3812C13.2719 5.78125 12.9375 5.1125 12.3812 4H7.61875C7.0625 5.1125 6.72812 5.78125 6.61875 6H3ZM13.5 11C13.5 12.9344 11.9344 14.5 10 14.5C8.06562 14.5 6.5 12.9344 6.5 11C6.5 9.06563 8.06562 7.5 10 7.5C11.9344 7.5 13.5 9.06563 13.5 11Z" fill="#333333"/>
<path d="M7 3H13L14 5H18V17H2V5H6L7 3ZM14 6H13.3813C13.2719 5.78125 12.9375 5.1125 12.3813 4H7.61875C7.0625 5.1125 6.72813 5.78125 6.61875 6H3V16H17V6H14ZM10 7.5C11.9344 7.5 13.5 9.06562 13.5 11C13.5 12.9344 11.9344 14.5 10 14.5C8.06563 14.5 6.5 12.9344 6.5 11C6.5 9.06562 8.06563 7.5 10 7.5ZM12.5 11C12.5 9.61875 11.3813 8.5 10 8.5C8.61875 8.5 7.5 9.61875 7.5 11C7.5 12.3812 8.61875 13.5 10 13.5C11.3813 13.5 12.5 12.3812 12.5 11Z" fill="#333333"/>
</svg>
