<svg width="20" height="20" viewBox="0 0 20 20" fill="none" xmlns="http://www.w3.org/2000/svg">
<path opacity="0.4" d="M2 10C2 11.4125 2.36562 12.7375 3.00625 13.8906L3.49688 10.8969L3.52813 10.7125L3.64062 10.5625L7.11562 6.0125L4.52812 4.1625C2.97187 5.62187 2 7.69688 2 10ZM4.25313 15.5656C4.82813 16.1594 5.49375 16.6656 6.23125 17.0594L6.57188 13.575L6.59062 13.3687L6.7125 13.2031L9.1375 9.90625L8.00625 7.32188L4.94688 11.3281L4.25313 15.5688V15.5656ZM5.77187 3.20625L8.61875 5.24375L8.7875 5.3625L8.86875 5.55L10.5125 9.3L13.3188 9.6125L11.3813 4.95937L8.05313 2.2375C7.2375 2.44062 6.46875 2.77187 5.775 3.20625H5.77187ZM7.67812 17.6562C8.4125 17.8781 9.19063 17.9969 10 17.9969C12.9156 17.9969 15.4656 16.4375 16.8625 14.1094L14.0281 15.1812L13.8531 15.2469L13.6656 15.2219L7.9875 14.4875L7.67812 17.6562ZM8.675 13.0656L13.6719 13.7125L17.6938 12.1906C17.8906 11.4938 17.9969 10.7562 17.9969 9.99687C17.9969 9.90937 17.9969 9.82188 17.9937 9.73438L14.8094 11.1812L14.6219 11.2656L14.4156 11.2437L10.3469 10.7906L8.675 13.0656ZM10.1313 2L12.475 3.91875L12.6187 4.0375L12.6906 4.20937L14.8938 9.49375L17.7906 8.17813C16.9781 4.67813 13.8656 2.05937 10.1313 2Z" fill="black"/>
<path d="M3.0063 13.8906L3.49692 10.8969L3.52817 10.7125L3.64067 10.5625L7.11567 6.0125L4.52817 4.1625C4.90942 3.80625 5.32505 3.48438 5.77192 3.20625L8.6188 5.24375L8.78755 5.3625L8.8688 5.55L10.5125 9.3L13.3188 9.6125L11.3813 4.95937L8.05317 2.2375C8.67817 2.08125 9.32817 2 10 2C10.0438 2 10.0875 2 10.1313 2L12.475 3.91875L12.6188 4.0375L12.6907 4.20937L14.8938 9.49375L17.7907 8.17813C17.9063 8.68125 17.9782 9.2 17.9938 9.73438L14.8094 11.1812L14.6219 11.2656L14.4157 11.2437L10.3469 10.7906L8.67505 13.0656L13.6719 13.7125L17.6938 12.1906C17.5 12.8719 17.2188 13.5156 16.8625 14.1094L14.0282 15.1812L13.8532 15.2469L13.6657 15.2219L7.98755 14.4875L7.67817 17.6562C7.17192 17.5031 6.68755 17.3 6.22817 17.0562L6.5688 13.5719L6.58755 13.3656L6.70942 13.2L9.13442 9.90312L8.00317 7.31875L4.9438 11.325L4.25005 15.5656C3.76567 15.0656 3.34692 14.5031 3.00317 13.8906H3.0063Z" fill="black"/>
</svg>
