<svg width="20" height="20" viewBox="0 0 20 20" fill="none" xmlns="http://www.w3.org/2000/svg">
<path opacity="0.4" d="M3.51558 5.59063L9.99995 3.07188L16.4875 5.59063C16.6531 8.44063 15.5875 14.4938 9.99995 16.9094C4.41558 14.4938 3.34995 8.44063 3.51558 5.59063ZM6.7937 10.3781L7.14058 10.7375L8.84058 12.4969L9.25308 12.925L9.60308 12.4438L12.9031 7.90625L13.1968 7.50313L12.3875 6.91563L12.0937 7.31875L9.1437 11.375C8.1312 10.3281 7.58433 9.7625 7.50933 9.68438L6.79058 10.3781H6.7937Z" fill="#333333"/>
<path d="M10.3624 2.14062L16.8468 4.65625L17.4468 4.8875L17.4843 5.52812C17.5749 7.09062 17.3312 9.475 16.3187 11.8062C15.2968 14.1562 13.4718 16.4938 10.3999 17.825L10.0031 17.9969L9.60618 17.825C6.52806 16.4969 4.70618 14.1625 3.68431 11.8094C2.67181 9.47812 2.42806 7.09062 2.51868 5.53125L2.55618 4.89062L3.15618 4.65625L9.64056 2.14062L9.99993 2L10.3624 2.14062ZM3.51556 5.59062C3.34993 8.44062 4.41556 14.4937 9.99993 16.9094C15.5874 14.4937 16.6531 8.44062 16.4874 5.59062L9.99993 3.07188L3.51556 5.59062ZM13.1968 7.50313L12.9031 7.90625L9.60306 12.4438L9.25306 12.925L8.84056 12.4969L7.14056 10.7375L6.79368 10.3781L7.51243 9.68437C7.58743 9.7625 8.13118 10.325 9.14681 11.375L12.0968 7.31875L12.3906 6.91563L13.1999 7.50313H13.1968Z" fill="#333333"/>
</svg>
