<svg width="20" height="20" viewBox="0 0 20 20" fill="none" xmlns="http://www.w3.org/2000/svg">
<path opacity="0.4" d="M2 10C2 14.4187 5.58125 18 10 18C14.4187 18 18 14.4187 18 10C18 5.58125 14.4187 2 10 2C5.58125 2 2 5.58125 2 10ZM7.675 8.6625C7.675 7.37813 8.71562 6.3375 10 6.3375C11.2844 6.3375 12.325 7.37813 12.325 8.6625C12.325 9.70938 11.6125 10.5062 10.6625 10.8375V11.4094H9.3375V9.7375C10 9.64062 11 9.54375 11 8.65938C11 8.10625 10.5531 7.65938 10 7.65938C9.44688 7.65938 9 8.10625 9 8.65938H7.675V8.6625ZM9.25 12.25H10.75V13.75H9.25V12.25Z" fill="#333333"/>
<path d="M10.75 12.25H9.25005V13.75H10.75V12.25ZM9.00005 8.6625C9.00005 8.10937 9.44692 7.6625 10 7.6625C10.5532 7.6625 11 8.10937 11 8.6625C11 9.54687 10 9.64375 9.33755 9.74062V11.4125H10.6625V10.8406C11.6125 10.5094 12.325 9.7125 12.325 8.66562C12.325 7.38125 11.2844 6.34062 10 6.34062C8.71567 6.34062 7.67505 7.38125 7.67505 8.66562H9.00005V8.6625Z" fill="#333333"/>
</svg>
