<svg width="20" height="20" viewBox="0 0 20 20" fill="none" xmlns="http://www.w3.org/2000/svg">
<path opacity="0.4" d="M1.0937 16.5L3.5062 18.9156L6.9187 15.5L6.4187 15L6.38745 15.0312C6.3562 14.975 6.32495 14.9187 6.2812 14.8687L6.21245 14.7937L5.21245 13.7937C5.20933 13.7906 5.20308 13.7844 5.19995 13.7812C5.1312 13.7156 5.05308 13.6594 4.97183 13.6156L5.00308 13.5844L4.50308 13.0844L1.09058 16.4969L1.0937 16.5ZM8.5062 8.40625L8.5187 8.73125C8.58433 9.47812 8.87495 10.1375 9.37183 10.6344C10.6343 11.8969 13.1437 11.8531 15 9.99375C15.95 9.04375 16.4437 7.87812 16.5 6.80625L16.5062 6.59375C16.5062 5.7125 16.2062 4.93125 15.6406 4.36562C15.1437 3.86875 14.4843 3.57813 13.7375 3.5125L13.4125 3.5C12.2875 3.5 11.025 3.99375 10.0125 5.00625C8.99995 6.01875 8.5062 7.27812 8.5062 8.40625Z" fill="#333333"/>
<path d="M13.6625 1.50625C14.9125 1.55938 16.125 2.025 17.0532 2.95312L17.2313 3.14375C18.0969 4.10937 18.5032 5.34063 18.5032 6.59687L18.4938 6.91562C18.4094 8.50937 17.6875 10.1344 16.4094 11.4094C14.2782 13.5406 11.025 14.1875 8.73442 12.6812L6.38755 15.0312C6.3563 14.975 6.32505 14.9187 6.2813 14.8687L6.21255 14.7937L5.21255 13.7937C5.14067 13.7219 5.05942 13.6625 4.97192 13.6156L7.32505 11.2656C6.81567 10.4844 6.55317 9.58125 6.51255 8.65625L6.5063 8.40625C6.5063 6.7125 7.23755 4.95312 8.59692 3.59375C9.9563 2.23437 11.7188 1.5 13.4125 1.5L13.6625 1.50625ZM13.4125 3.5C12.2875 3.5 11.025 3.99375 10.0125 5.00625C9.00005 6.01875 8.5063 7.27812 8.5063 8.40625L8.5188 8.73125C8.58442 9.47812 8.87505 10.1375 9.37192 10.6344C10.6344 11.8969 13.1438 11.8531 15 9.99375C15.95 9.04375 16.4438 7.87812 16.5 6.80625L16.5063 6.59375C16.5063 5.7125 16.2063 4.93125 15.6407 4.36562C15.1438 3.86875 14.4844 3.57812 13.7375 3.5125L13.4125 3.5Z" fill="#333333"/>
</svg>
