<svg width="20" height="20" viewBox="0 0 20 20" fill="none" xmlns="http://www.w3.org/2000/svg">
<path opacity="0.4" d="M2 12V18.25L4.46875 15.7812C7.60313 18.7812 12.575 18.7406 15.6562 15.6562C17.2188 14.0938 18 12.0438 18 10H16C16 11.5375 15.4156 13.0719 14.2437 14.2437C11.9437 16.5437 8.2375 16.5875 5.88438 14.3656L8.25 12H2Z" fill="#333333"/>
<path d="M18 8V1.75L15.5312 4.21875C12.3969 1.21875 7.425 1.25938 4.34375 4.34375C2.78125 5.90625 2 7.95312 2 10H4C4 8.4625 4.58437 6.92812 5.75625 5.75625C8.05625 3.45625 11.7625 3.4125 14.1156 5.63438L11.75 8H18Z" fill="#333333"/>
</svg>
