<svg width="20" height="20" viewBox="0 0 20 20" fill="none" xmlns="http://www.w3.org/2000/svg">
<path opacity="0.4" d="M1 4.99375V6.49375H6V4.99375H1ZM1 10.9938V12.4938H7V10.9938H1ZM2 7.99375V9.49375H5.5V7.99375H2ZM5.59375 17.3375L6.86562 18.8813C7.00938 18.7625 8.26562 17.7281 10.6375 15.7719L10.85 15.5969C10.8594 15.5688 11.025 15.1063 11.3438 14.2125L11.1969 14.1688C10.5594 13.9781 10.0125 13.6188 9.59688 13.1563L9.15 14.4063C6.95625 16.2156 5.76875 17.1938 5.59062 17.3406L5.59375 17.3375Z" fill="#333333"/>
<path d="M14 4.5C14.9656 4.5 15.75 3.71563 15.75 2.75C15.75 1.78438 14.9656 1 14 1C13.0343 1 12.25 1.78438 12.25 2.75C12.25 3.71563 13.0343 4.5 14 4.5ZM8.99995 5.5H8.32183C8.27808 5.60625 7.86245 6.65 7.07183 8.62813L6.69995 9.55625L8.5562 10.3C8.74058 9.8375 9.11558 8.90312 9.67495 7.5H10.9687L10.2593 10.3313C9.99995 11.3688 10.6031 12.425 11.625 12.7312L14.625 13.6313C13.4093 16.3656 12.7625 17.8219 12.6812 18.0063L14.5093 18.8188L14.9156 17.9062C16.5062 14.3281 17.325 12.4844 17.3781 12.3687C16.9562 12.2406 15.625 11.8438 13.3906 11.1719L14.0375 8.97188C14.4906 9.74687 14.7875 10.2562 14.9281 10.4969H19.0031V8.49687H16.0781L15.1968 6.98438C14.6562 6.06563 13.6687 5.5 12.6 5.5H8.99995Z" fill="#333333"/>
</svg>
