<svg width="20" height="20" viewBox="0 0 20 20" fill="none" xmlns="http://www.w3.org/2000/svg">
<path opacity="0.4" d="M4.00317 4V10.2937L10.5032 16.7938L16.7969 10.5L10.2969 4H4.00317ZM7.25317 6.5C7.25317 6.91563 6.9188 7.25 6.50317 7.25C6.08755 7.25 5.75317 6.91563 5.75317 6.5C5.75317 6.08437 6.08755 5.75 6.50317 5.75C6.9188 5.75 7.25317 6.08437 7.25317 6.5Z" fill="#333333"/>
<path d="M3.50317 3H3.00317V10.7063L3.15005 10.8531L10.15 17.8531L10.5032 18.2062L10.8563 17.8531L17.8563 10.8531L18.2094 10.5L17.8563 10.1469L10.8563 3.14687L10.7094 3H3.50317ZM4.00317 10.2937V4H10.2969L16.7969 10.5L10.5032 16.7938L4.00317 10.2937ZM6.50317 7.25C6.9188 7.25 7.25317 6.91563 7.25317 6.5C7.25317 6.08437 6.9188 5.75 6.50317 5.75C6.08755 5.75 5.75317 6.08437 5.75317 6.5C5.75317 6.91563 6.08755 7.25 6.50317 7.25Z" fill="#333333"/>
</svg>
