<svg width="20" height="20" viewBox="0 0 20 20" fill="none" xmlns="http://www.w3.org/2000/svg">
<path opacity="0.4" d="M2.5 11.5C2.5 8.85625 4.64062 6.60938 7.60938 5.8125C8.15625 6.53437 9.025 7 10 7C10.975 7 11.8438 6.53437 12.3906 5.8125C12.8562 5.9375 13.3 6.09688 13.7219 6.29063C14.2563 5.8 14.9688 5.5 15.75 5.5H17L16.3094 8.25625C16.6188 8.64375 16.8781 9.05938 17.0719 9.5H18.5V14.5H16.5C15.9844 15.1875 15.2969 15.7375 14.5 16.0844V18H11.7156L11.2875 16.5H8.71562L8.2875 18H5.50313V16.0844C3.73438 15.3125 2.5 13.55 2.5 11.5ZM6.5 8V9.5H13.5V8H6.5ZM13.5 11.25C13.5 11.6656 13.8344 12 14.25 12C14.6656 12 15 11.6656 15 11.25C15 10.8344 14.6656 10.5 14.25 10.5C13.8344 10.5 13.5 10.8344 13.5 11.25Z" fill="#333333"/>
<path d="M7 4C7 2.34375 8.34375 1 10 1C11.6562 1 13 2.34375 13 4C13 5.65625 11.6562 7 10 7C8.34375 7 7 5.65625 7 4Z" fill="#333333"/>
</svg>
