<svg width="20" height="20" viewBox="0 0 20 20" fill="none" xmlns="http://www.w3.org/2000/svg">
<path opacity="0.4" d="M3.00317 8.5C3.00317 11.5375 5.46567 14 8.50317 14C11.5407 14 14.0032 11.5375 14.0032 8.5C14.0032 5.4625 11.5407 3 8.50317 3C5.46567 3 3.00317 5.4625 3.00317 8.5ZM5.75317 8H8.00317V5.75H9.00317V8H11.2532V9H9.00317V11.25H8.00317V9H5.75317V8Z" fill="#333333"/>
<path d="M8.50317 3C11.5407 3 14.0032 5.4625 14.0032 8.5C14.0032 11.5375 11.5407 14 8.50317 14C5.46567 14 3.00317 11.5375 3.00317 8.5C3.00317 5.4625 5.46567 3 8.50317 3ZM8.50317 15C10.1188 15 11.5969 14.4125 12.7313 13.4375L17.15 17.8562L17.5032 18.2094L18.2094 17.5031L17.8563 17.15L13.4375 12.7312C14.4125 11.5937 15 10.1156 15 8.50312C15 4.9125 12.0907 2.00312 8.50005 2.00312C4.90942 2.00312 2.00317 4.90937 2.00317 8.5C2.00317 12.0906 4.91567 15 8.50317 15ZM8.00317 11.25H9.00317V9H11.2532V8H9.00317V5.75H8.00317V8H5.75317V9H8.00317V11.25Z" fill="#333333"/>
</svg>
