<svg width="20" height="20" viewBox="0 0 20 20" fill="none" xmlns="http://www.w3.org/2000/svg">
<path opacity="0.4" d="M2.91553 7.275C4.3249 8.52812 5.0374 9.15937 5.04678 9.16875L5.01553 9.65625C4.9999 9.88125 4.9999 10.1125 5.01553 10.3375L5.04678 10.825L4.68115 11.15L2.91553 12.7187L4.0999 14.7719L6.34053 14.0281L6.80615 13.8719L7.2124 14.1469C7.3999 14.2719 7.59678 14.3875 7.7999 14.4875L8.24053 14.7031C8.24365 14.7187 8.43428 15.6469 8.81553 17.4969H11.1843L11.6593 15.1844L11.7593 14.7031L12.1999 14.4875C12.403 14.3875 12.5999 14.275 12.7874 14.1469L13.1937 13.8719L13.6593 14.0281L15.8999 14.7719L17.0843 12.7187L15.3187 11.15L14.953 10.825L14.9843 10.3375C14.9999 10.1125 14.9999 9.88125 14.9843 9.65625L14.953 9.16875L15.3187 8.84375L17.0843 7.275L15.8999 5.22187C14.1093 5.81562 13.2062 6.11562 13.1937 6.12187L12.7874 5.84687C12.5999 5.72187 12.403 5.60625 12.1999 5.50625L11.7593 5.29062L11.6593 4.80937L11.1843 2.49687H8.81553C8.43428 4.34375 8.24365 5.275 8.24053 5.29062L7.7999 5.50625C7.59678 5.60625 7.3999 5.71875 7.2124 5.84687L6.80615 6.12187C6.79053 6.11562 5.89053 5.81875 4.0999 5.22187L2.91553 7.275ZM12.7468 10C12.7468 11.5187 11.5155 12.75 9.9999 12.75C8.48115 12.75 7.2499 11.5187 7.2499 10C7.2499 8.48125 8.48115 7.25312 9.9999 7.25312C11.5155 7.25312 12.7468 8.48125 12.7468 10Z" fill="#333333"/>
<path d="M12.0031 1.5L12.6438 4.60937C12.8875 4.72812 13.125 4.86562 13.35 5.01875L16.3656 4.01875L18.3656 7.48437L15.9906 9.59375C16.0094 9.8625 16.0094 10.1406 15.9906 10.4062L18.3656 12.5156L16.3656 15.9812L13.35 14.9812C13.125 15.1312 12.8906 15.2687 12.6438 15.3906L12.0031 18.5H8.00313L7.3625 15.3906C7.11875 15.2719 6.88125 15.1344 6.65625 14.9812L3.64062 15.9812L1.64062 12.5156L4.01562 10.4062C3.99688 10.1375 3.99688 9.85937 4.01562 9.59375L1.64062 7.48125L3.64062 4.01562L6.65625 5.01562C6.88125 4.86562 7.11563 4.72812 7.3625 4.60625L8.00313 1.49687H12.0031V1.5ZM13.6656 5.96875L13.2 6.125L12.7937 5.85C12.6062 5.725 12.4094 5.60937 12.2063 5.50937L11.7656 5.29375L11.6656 4.8125L11.1906 2.5H8.82187C8.44062 4.34687 8.25 5.27812 8.24687 5.29375L7.80625 5.50937C7.60313 5.60937 7.40625 5.72187 7.21875 5.85L6.8125 6.125C6.79688 6.11875 5.89687 5.82187 4.10625 5.225L2.91563 7.275C4.325 8.52812 5.0375 9.15937 5.04688 9.16875L5.01562 9.65625C5 9.88125 5 10.1125 5.01562 10.3375L5.04688 10.825L4.68125 11.15L2.91563 12.7187L4.1 14.7719L6.34062 14.0281L6.80625 13.8719L7.2125 14.1469C7.4 14.2719 7.59688 14.3875 7.8 14.4875L8.24063 14.7031C8.24375 14.7187 8.43438 15.6469 8.81563 17.4969H11.1844L11.6594 15.1844L11.7594 14.7031L12.2 14.4875C12.4031 14.3875 12.6 14.275 12.7875 14.1469L13.1938 13.8719L13.6594 14.0281L15.9 14.7719L17.0844 12.7187L15.3188 11.15L14.9531 10.825L14.9844 10.3375C15 10.1125 15 9.88125 14.9844 9.65625L14.9531 9.16875L15.3188 8.84375L17.0844 7.275L15.9 5.22187L13.6594 5.96562L13.6656 5.96875ZM8.25313 10C8.25313 10.9656 9.03438 11.75 10.0031 11.75C10.9688 11.75 11.75 10.9656 11.75 10C11.75 9.03437 10.9688 8.25312 10.0031 8.25312C9.03438 8.25312 8.25313 9.03437 8.25313 10ZM10 12.75C8.48125 12.75 7.25 11.5187 7.25313 10C7.25313 8.47812 8.48438 7.25 10.0031 7.25C11.5219 7.25 12.7531 8.48125 12.7531 10.0031C12.75 11.5219 11.5188 12.75 10 12.75Z" fill="#333333"/>
</svg>
