<svg width="20" height="20" viewBox="0 0 20 20" fill="none" xmlns="http://www.w3.org/2000/svg">
<path opacity="0.4" d="M10.0063 2.00938L10.0282 2L10.3907 2.14062L16.8751 4.65625L17.4751 4.8875L17.5126 5.52812C17.6032 7.0875 17.3595 9.475 16.347 11.8062C15.3251 14.1594 13.5032 16.4938 10.4282 17.825L10.0313 18C10.0251 17.9969 10.0157 17.9937 10.0095 18C10.0095 12.6625 10.0095 7.3375 10.0095 2.00938H10.0063Z" fill="#333333"/>
<path d="M10.0063 2L9.64691 2.14062L3.16253 4.65625L2.56253 4.89062L2.52503 5.53125C2.43441 7.09062 2.67816 9.47812 3.69066 11.8094C4.71253 14.1625 6.53441 16.4969 9.60941 17.8281L10.0063 18V2Z" fill="#333333"/>
</svg>
