<svg width="20" height="20" viewBox="0 0 20 20" fill="none" xmlns="http://www.w3.org/2000/svg">
<path opacity="0.4" d="M6.00005 9.59375C5.90942 9.68437 4.67505 10.9187 2.2938 13.3L1.58755 14.0062L6.00317 18.4219L7.4188 17.0062L5.4188 15.0062H18.0032V13.0062H5.4188L7.4188 11.0062L6.00317 9.59062L6.00005 9.59375Z" fill="#333333"/>
<path d="M18.4155 6.00938C18.3249 6.1 17.0905 7.33437 14.7093 9.71562L14.003 10.4219L12.5874 9.00625C12.9624 8.63125 13.628 7.96562 14.5874 7.00625L2.00303 7.00625V5.00625L14.5874 5.00625C13.628 4.04688 12.9624 3.38125 12.5874 3.00625L13.9999 1.59375C14.0905 1.68438 15.3249 2.91875 17.7062 5.3L18.4124 6.00625L18.4155 6.00938Z" fill="#333333"/>
</svg>
