<svg width="20" height="20" viewBox="0 0 20 20" fill="none" xmlns="http://www.w3.org/2000/svg">
<path opacity="0.4" d="M3 9.5C3 10.9563 3.51562 12.3063 4.39687 13.3969L4.76875 13.8562C4.71563 13.9875 4.37812 14.8156 3.75625 16.3406L6.44062 15.4187L6.8 15.2969L7.15 15.4406C8.01875 15.8 8.98125 16.0031 10 16.0031C13.9281 16.0031 17 13.0344 17 9.50313C17 5.97188 13.9281 3 10 3C6.07187 3 3 5.96875 3 9.5Z" fill="#333333"/>
<path d="M4.76875 13.8562C4.71563 13.9875 4.37812 14.8156 3.75625 16.3406L6.44063 15.4187L6.8 15.2969L7.15 15.4406C8.01875 15.8 8.98125 16.0031 10 16.0031C13.9281 16.0031 17 13.0344 17 9.50313C17 5.97188 13.9281 3 10 3C6.07188 3 3 5.96875 3 9.5C3 10.9563 3.51562 12.3063 4.39687 13.3969L4.76875 13.8562ZM3.25625 17.5688L2 18C2.23125 17.4344 2.77188 16.1062 3.61875 14.025C2.60313 12.7687 2 11.2 2 9.5C2 5.35938 5.58125 2 10 2C14.4187 2 18 5.35938 18 9.5C18 13.6406 14.4187 17 10 17C8.85 17 7.75313 16.7719 6.76562 16.3625L3.25625 17.5688Z" fill="#333333"/>
</svg>
