<svg width="20" height="20" viewBox="0 0 20 20" fill="none" xmlns="http://www.w3.org/2000/svg">
<path opacity="0.4" d="M5.99995 5.85938V12.0469L6.1437 12.3031C7.92808 15.4719 8.85933 17.1344 8.94683 17.2844L10.9062 16.1781C10.675 15.7688 10.0312 14.625 8.97495 12.7437L8.5562 12H16V10H15.5V8H15V6H14.5V4H8.59995L8.27183 4.23438C7.69058 4.65 7.1062 5.06875 6.52183 5.48438L5.99683 5.85938H5.99995Z" fill="#333333"/>
<path d="M15.5 3V5H16V7H16.5V9H17V13H10.2656C10.9344 14.1875 11.5188 15.2281 12.0219 16.125L12.2656 16.5594L11.8313 16.8031L9 18.3969L8.56563 18.6406C8.49375 18.5125 8.14687 17.8969 7.525 16.7875L6 14.0781V14.9938H2V4.99375H5.47813L5.94063 4.6625L7.69063 3.4125C8.05 3.15625 8.24687 3.01563 8.27812 2.99375L15.5 3ZM8.6 4L8.27188 4.23438L6.52187 5.48438L5.99687 5.85938V12.0469L6.14062 12.3031C7.925 15.4719 8.85625 17.1344 8.94375 17.2844L10.9062 16.1781C10.675 15.7688 10.0312 14.625 8.975 12.7438L8.55625 12H16V10H15.5V8H15V6H14.5V4H8.6ZM3 6V14H5V6H3Z" fill="#333333"/>
</svg>
