<svg width="20" height="20" viewBox="0 0 20 20" fill="none" xmlns="http://www.w3.org/2000/svg">
<path opacity="0.4" d="M6 7.95312V14.1406L6.525 14.5156L8.275 15.7656C8.38437 15.8438 8.49063 15.9219 8.6 16H14.5V14H15V12H15.5V10H16V8H8.55625C8.675 7.7875 9.275 6.72188 10.3562 4.80312L10.9094 3.82188L8.95 2.71875L8.39688 3.7L6.14687 7.7L6.00313 7.95625L6 7.95312Z" fill="#333333"/>
<path d="M8.99995 1.60313L11.8312 3.19688L12.2656 3.44063C12.1093 3.71875 10.6125 6.375 10.2625 7H16.9968V11H16.4968V13H15.9968V15H15.4968V17H8.27495L8.1437 16.9063L7.68745 16.5813L5.99683 15.3719V17H1.99683V7H5.38745C9.12808 0.356251 8.1812 2.04063 8.56558 1.35625L8.99995 1.60313ZM2.99995 16H4.99995V8H2.99995V16ZM8.3937 3.7L6.1437 7.7L5.99995 7.95625V14.1438L6.52495 14.5188L8.27495 15.7688L8.60308 16.0031H14.5031V14.0031H15.0031V12.0031H15.5031V10.0031H16.0031V8.00313H8.55933C8.67808 7.79063 9.27808 6.725 10.3593 4.80625L10.9125 3.825L8.95308 2.72188L8.39995 3.70313L8.3937 3.7Z" fill="#333333"/>
</svg>
