<svg width="20" height="20" viewBox="0 0 20 20" fill="none" xmlns="http://www.w3.org/2000/svg">
<path opacity="0.4" d="M2.24385 16L4.0126 17.7688L4.89697 16.8844L10.522 11.2563L10.7626 11.0156L11.0751 11.15C11.5907 11.375 12.1626 11.4969 12.7626 11.4969C15.1095 11.4969 17.0126 9.59375 17.0126 7.24688C17.0126 6.78125 16.9376 6.33438 16.8001 5.91563L14.3657 8.35L14.2188 8.49688H11.5126V5.79063L11.6595 5.64375L14.0938 3.20938C13.6751 3.07188 13.2282 2.99688 12.7626 2.99688C10.4157 2.99688 8.5126 4.9 8.5126 7.24688C8.5126 7.84688 8.6376 8.41875 8.85947 8.93438L8.99385 9.24688L8.75322 9.4875L3.1251 15.1125L2.24072 15.9969L2.24385 16Z" fill="#333333"/>
<path d="M18.0031 6.98125C18.0062 7.07187 18.0094 7.15938 18.0094 7.25C18.0094 10.15 15.6594 12.5 12.7594 12.5C12.1406 12.5 11.5469 12.3937 10.9937 12.1969C1.36875 21.8219 5.275 17.9156 4.00938 19.1812L3.65625 18.8281L1.18125 16.3531L0.828125 16C0.915625 15.9125 1.44688 15.3813 2.41875 14.4094L7.8125 9.01562C7.61562 8.4625 7.50938 7.86875 7.50938 7.25C7.50938 4.35 9.85938 2 12.7594 2C13.6406 2 14.4688 2.21562 15.2 2.6L15.2281 2.61562C15.4156 2.71562 15.5969 2.82813 15.7688 2.94688L15.3188 3.39687L12.5094 6.20625V7.5H13.8031L16.6125 4.69063L17.0625 4.24062C17.1844 4.4125 17.2937 4.59375 17.3937 4.78125L17.4094 4.80937C17.7531 5.4625 17.9625 6.2 18.0031 6.97813V6.98125ZM8.50937 7.25C8.50937 7.85 8.63437 8.42188 8.85625 8.9375L8.99063 9.25L8.75 9.49063L3.12188 15.1156L2.2375 16L4.00625 17.7687L4.89062 16.8844L10.5156 11.2563L10.7563 11.0156L11.0688 11.15C11.5844 11.375 12.1562 11.4969 12.7563 11.4969C15.1031 11.4969 17.0063 9.59375 17.0063 7.24687C17.0063 6.78125 16.9313 6.33437 16.7938 5.91563L14.3594 8.35L14.2125 8.49687H11.5063V5.79063L11.6531 5.64375L14.0875 3.20937C13.6687 3.07187 13.2219 2.99688 12.7563 2.99688C10.4094 2.99688 8.50625 4.9 8.50625 7.24687L8.50937 7.25Z" fill="#333333"/>
</svg>
