<svg width="20" height="20" viewBox="0 0 20 20" fill="none" xmlns="http://www.w3.org/2000/svg">
<path opacity="0.4" d="M8.46875 18H10.6562L11.5437 16H16.4656L17.3531 18H19.5406L19.4156 17.7188L14.9156 7.59375L14.6531 7H13.3531L13.0906 7.59375C9.95625 14.6562 10.1531 14.2094 8.59375 17.7188L8.46875 18ZM12.4344 14L14.0063 10.4625L15.5781 14H12.4344Z" fill="#333333"/>
<path d="M7.00615 2V4H12.0062V6H10.7062L10.4437 6.72188C9.93115 8.13438 9.15928 9.425 8.1874 10.5344C8.63115 10.8094 9.09365 11.0531 9.5749 11.2688L11.1499 11.9688L10.3374 13.7969L8.7624 13.0969C8.04365 12.7781 7.35615 12.3969 6.70615 11.9594C6.04053 12.4969 5.3124 12.9656 4.53428 13.3562C3.78428 13.7312 3.1249 14.0594 2.55928 14.3438L1.66553 12.5531C2.23115 12.2719 2.89053 11.9406 3.64053 11.5656C4.1499 11.3094 4.63428 11.0125 5.09053 10.6812C4.65928 10.2844 4.25303 9.85625 3.8749 9.40312C3.45303 8.89687 3.02803 8.38437 2.5999 7.87187L4.1374 6.59062C4.56553 7.10312 4.99053 7.6125 5.4124 8.12187C5.77178 8.55625 6.16553 8.95938 6.58115 9.33125C7.44053 8.38125 8.11865 7.26562 8.56553 6.0375L8.58115 6H1.00928V4H5.00928V2H7.00928H7.00615Z" fill="#333333"/>
</svg>
