<svg width="20" height="20" viewBox="0 0 20 20" fill="none" xmlns="http://www.w3.org/2000/svg">
<path opacity="0.4" d="M1.14697 5.85313C2.98135 7.6875 4.8126 9.52188 6.64697 11.3531L7.0001 11.7063L7.35322 11.3531L11.0001 7.70625L17.2938 14H12.5001V15H19.0001V18H1.1501C1.1501 13.9531 1.1501 9.90313 1.1501 5.85313H1.14697Z" fill="#333333"/>
<path d="M12.5001 15H19.0001V8.5H18.0001V13.2937L11.3532 6.64687L11.0001 6.29375L10.647 6.64687L7.0001 10.2937L1.85322 5.14687L1.14697 5.85312L6.64697 11.3531L7.0001 11.7062L7.35322 11.3531L11.0001 7.70625L17.2938 14H12.5001V15Z" fill="#333333"/>
</svg>
