<svg width="20" height="20" viewBox="0 0 20 20" fill="none" xmlns="http://www.w3.org/2000/svg">
<path opacity="0.4" d="M2 4H13V12.8C12.1812 13.2188 11.5969 14.0375 11.5125 15H8.49063C8.36563 13.5969 7.1875 12.5 5.75313 12.5C4.31875 12.5 3.14062 13.5969 3.01562 15H2V4ZM14 11H18V15H16.9875C16.8625 13.5969 15.6844 12.5 14.25 12.5C14.1656 12.5 14.0813 12.5031 14 12.5125V11Z" fill="#333333"/>
<path d="M2 4V15H3.0125C3.1375 13.5969 4.31562 12.5 5.75 12.5C7.18437 12.5 8.3625 13.5969 8.4875 15H11.5094C11.5969 14.0375 12.1781 13.2188 12.9969 12.8L13 4H2ZM14 11V12.5125C14.0813 12.5062 14.1656 12.5 14.25 12.5C15.6844 12.5 16.8625 13.5969 16.9875 15H18V11H14ZM18 10V8.70625L16.2938 7H14V10H18ZM3.10313 16H1V3H14V6H16.7062L16.8531 6.14687L18.8531 8.14688L19 8.29375V16H16.8969C16.5719 17.1531 15.5094 18 14.25 18C12.9906 18 11.9312 17.1531 11.6031 16H8.39688C8.07188 17.1531 7.00938 18 5.75 18C4.49062 18 3.43125 17.1531 3.10313 16ZM5.75 17C6.71562 17 7.5 16.2156 7.5 15.25C7.5 14.2844 6.71562 13.5 5.75 13.5C4.78437 13.5 4 14.2844 4 15.25C4 16.2156 4.78437 17 5.75 17ZM14.25 17C15.2156 17 16 16.2156 16 15.25C16 14.2844 15.2156 13.5 14.25 13.5C13.2844 13.5 12.5 14.2844 12.5 15.25C12.5 16.2156 13.2844 17 14.25 17Z" fill="#333333"/>
</svg>
