<svg width="20" height="20" viewBox="0 0 20 20" fill="none" xmlns="http://www.w3.org/2000/svg">
<path opacity="0.4" d="M3 10L3.00625 10.1656C3.0625 10.9812 3.54375 11.6812 4.23125 12.0437L4.59688 12.2375L4.475 12.6344C4.23125 13.4281 4.42188 14.325 5.05 14.9531C5.675 15.5781 6.57188 15.7719 7.36875 15.525L7.7625 15.4031L7.95625 15.7688C8.34375 16.5031 9.11562 17.0031 10 17.0031C10.8844 17.0031 11.6562 16.5031 12.0437 15.7688L12.2375 15.4031L12.6344 15.525C13.4281 15.7687 14.325 15.5781 14.9531 14.9531C15.5813 14.3281 15.7719 13.4312 15.525 12.6344L15.4031 12.2375L15.7688 12.0437C16.5031 11.6562 17.0031 10.8844 17.0031 10C17.0031 9.11562 16.5031 8.34375 15.7688 7.95625L15.4031 7.7625L15.525 7.36875C15.7687 6.575 15.5781 5.67813 14.9531 5.05C14.3281 4.425 13.4312 4.23125 12.6344 4.475L12.2375 4.59688L12.0437 4.23125C11.6562 3.49687 10.8844 3 10 3C9.11562 3 8.34375 3.5 7.95625 4.23125L7.7625 4.59688L7.36875 4.475C6.575 4.23125 5.67813 4.42188 5.05 5.05C4.42188 5.67813 4.23125 6.57188 4.475 7.36875L4.59688 7.7625L4.23125 7.95625C3.5 8.34375 3 9.11562 3 10ZM6.79375 10.3781L7.5125 9.68437C7.5875 9.7625 8.13125 10.325 9.14688 11.375L12.0969 7.31875L12.3906 6.91563L13.2 7.50313L12.9062 7.90625L9.60625 12.4438L9.25625 12.925L8.84375 12.4969L7.14375 10.7375L6.79688 10.3781H6.79375Z" fill="#333333"/>
<path d="M10 2C11.1281 2 12.125 2.56562 12.7219 3.42812C13.7531 3.24062 14.8594 3.54375 15.6594 4.34375C16.4594 5.14375 16.7594 6.24687 16.5719 7.27812C17.4312 7.875 18 8.86875 18 10C18 11.1313 17.4313 12.125 16.5688 12.7219C16.7563 13.7531 16.4563 14.8594 15.6562 15.6594C14.8562 16.4594 13.75 16.7594 12.7188 16.5719C12.125 17.4312 11.1313 18 10 18C8.86875 18 7.875 17.4313 7.27812 16.5688C6.24687 16.7563 5.14375 16.4563 4.34375 15.6562C3.54375 14.8562 3.24062 13.7531 3.42812 12.7188C2.62812 12.1656 2.08125 11.2688 2.00938 10.2375L2 10C2 8.87187 2.56562 7.875 3.42812 7.27812C3.24062 6.24687 3.54375 5.14375 4.34375 4.34375C5.14375 3.54375 6.24687 3.24062 7.27812 3.42812C7.875 2.56562 8.87187 2 10 2ZM10 3C9.11562 3 8.34375 3.5 7.95625 4.23125L7.7625 4.59688L7.36875 4.475C6.575 4.23125 5.67813 4.42188 5.05 5.05C4.42188 5.67813 4.23125 6.57188 4.475 7.36875L4.59688 7.7625L4.23125 7.95625C3.5 8.34375 3 9.11562 3 10L3.00625 10.1656C3.0625 10.9812 3.54375 11.6812 4.23125 12.0437L4.59688 12.2375L4.475 12.6344C4.23125 13.4281 4.42188 14.325 5.05 14.9531C5.675 15.5781 6.57188 15.7719 7.36875 15.525L7.7625 15.4031L7.95625 15.7688C8.34375 16.5031 9.11562 17.0031 10 17.0031C10.8844 17.0031 11.6562 16.5031 12.0437 15.7688L12.2375 15.4031L12.6344 15.525C13.4281 15.7687 14.325 15.5781 14.9531 14.9531C15.5813 14.3281 15.7719 13.4312 15.525 12.6344L15.4031 12.2375L15.7688 12.0437C16.5031 11.6562 17.0031 10.8844 17.0031 10C17.0031 9.11562 16.5031 8.34375 15.7688 7.95625L15.4031 7.7625L15.525 7.36875C15.7687 6.575 15.5781 5.67813 14.9531 5.05C14.3281 4.425 13.4312 4.23125 12.6344 4.475L12.2375 4.59688L12.0437 4.23125C11.6562 3.49687 10.8844 3 10 3ZM13.1969 7.50313L12.9031 7.90625L9.60312 12.4438L9.25313 12.925L8.84062 12.4969L7.14062 10.7375L6.79375 10.3781L7.5125 9.68437C7.5875 9.7625 8.13125 10.325 9.14688 11.375L12.0969 7.31875L12.3906 6.91563L13.2 7.50313H13.1969Z" fill="#333333"/>
</svg>
