<svg width="20" height="20" viewBox="0 0 20 20" fill="none" xmlns="http://www.w3.org/2000/svg">
<path opacity="0.4" d="M3 10C3 13.8656 6.13437 17 10 17C13.8656 17 17 13.8656 17 10C17 6.13437 13.8656 3 10 3C6.13437 3 3 6.13437 3 10ZM9.25 6H10.75L10.35 11.5H9.65L9.25 6ZM9.375 12.625H10.625V13.875H9.375V12.625Z" fill="#333333"/>
<path d="M10 18C5.58125 18 2 14.4187 2 10C2 5.58125 5.58125 2 10 2C14.4187 2 18 5.58125 18 10C18 14.4187 14.4187 18 10 18ZM10 3C6.13438 3 3 6.13438 3 10C3 13.8656 6.13438 17 10 17C13.8656 17 17 13.8656 17 10C17 6.13438 13.8656 3 10 3ZM10.625 13.875H9.375V12.625H10.625V13.875ZM10.35 11.5H9.65L9.25 6H10.75L10.35 11.5Z" fill="#333333"/>
</svg>
