<svg width="20" height="20" viewBox="0 0 20 20" fill="none" xmlns="http://www.w3.org/2000/svg">
<path opacity="0.4" d="M2 10C2 14.4187 5.58125 18 10 18C14.4187 18 18 14.4187 18 10C18 5.58125 14.4187 2 10 2C5.58125 2 2 5.58125 2 10ZM9 6H11C10.8656 7.66563 10.7344 9.33437 10.6 11H9.4L9 6ZM9.125 12.125H10.875C10.875 12.7094 10.875 13.2906 10.875 13.875H9.125C9.125 13.2906 9.125 12.7094 9.125 12.125Z" fill="#333333"/>
<path d="M10.875 13.875H9.125V12.125H10.875V13.875ZM10.6 11H9.4L9 6H11L10.6 11Z" fill="#333333"/>
</svg>
