<svg width="20" height="20" viewBox="0 0 20 20" fill="none" xmlns="http://www.w3.org/2000/svg">
<path opacity="0.4" d="M0.0625 13.225C0.40625 13.3406 1.14375 13.5844 2.275 13.9625L2.53437 14.05L2.79063 13.9469L6.2625 12.5594L9.73438 13.9469L10.0125 14.0594L10.2906 13.9469L13.7625 12.5594L17.2344 13.9469L17.4906 14.05L17.75 13.9625C18.8813 13.5844 19.6187 13.3406 19.9625 13.225L19.4875 11.8031C19.1 11.9312 18.45 12.15 17.5375 12.4531L14.0437 11.0562L13.7656 10.9437L13.4875 11.0562L10.0156 12.4437L6.54375 11.0562L6.26562 10.9437L5.9875 11.0562L2.49375 12.4531C1.57813 12.1469 0.928125 11.9312 0.54375 11.8031L0.0625 13.225ZM0.0625 16.225C0.40625 16.3406 1.14375 16.5844 2.275 16.9625L2.53437 17.05L2.79063 16.9469L6.2625 15.5594L9.73438 16.9469L10.0125 17.0594L10.2906 16.9469L13.7625 15.5594L17.2344 16.9469L17.4906 17.05L17.75 16.9625C18.8813 16.5844 19.6187 16.3406 19.9625 16.225L19.4875 14.8031C19.1 14.9312 18.45 15.15 17.5375 15.4531L14.0437 14.0562L13.7656 13.9437L13.4875 14.0562L10.0156 15.4437L6.54375 14.0562L6.26562 13.9437L5.9875 14.0562L2.49375 15.4531C1.57813 15.1469 0.928125 14.9312 0.54375 14.8031L0.0625 16.225Z" fill="black"/>
<path d="M17.2625 5.75C17.2625 4.78438 16.4781 4 15.5125 4C14.5469 4 13.7625 4.78438 13.7625 5.75C13.7625 6.71563 14.5469 7.5 15.5125 7.5C16.4781 7.5 17.2625 6.71563 17.2625 5.75ZM9.19687 7.2L6.56875 9.45313L7.1 9.66563L10.0094 10.8281C12.9062 9.66875 14.5156 9.025 14.8313 8.9L14.725 8.79063L12.225 6.29063L12.0719 6.1375L11.8687 6.0625L7.86875 4.5625L7.41563 4.39375L7.00313 4.64063C5.05625 5.80625 3.9375 6.47813 3.64062 6.65625L4.66875 8.37188C5.03437 8.15313 6.01563 7.5625 7.6125 6.60625L9.19687 7.2Z" fill="black"/>
</svg>
