<svg width="20" height="20" viewBox="0 0 20 20" fill="none" xmlns="http://www.w3.org/2000/svg">
<path opacity="0.4" d="M0.75 12.0688L1.41562 12.4156L14.4156 19.1656L14.7563 19.3406C14.7906 19.3219 15.4062 19.0156 16.5969 18.4188L17.2687 18.0844L16.5969 16.7437C16.2312 16.9281 15.6219 17.2312 14.7688 17.6594C7.50313 13.8875 7.625 13.95 2.10938 11.0844L1.44062 10.7375L0.75 12.0688ZM3.34063 4.225L4.34062 4.725C4.14687 5.1125 3.98125 5.44375 3.84063 5.725L4.73438 6.17188L5.23438 5.17188L15.7875 10.4469C15.8906 10.2437 16.0375 9.94375 16.2344 9.55313C10.0281 6.45 6.5125 4.69062 5.68125 4.27812C5.875 3.89062 6.04063 3.55938 6.18125 3.27813L5.2875 2.82812C5.14687 3.10938 4.98125 3.44063 4.7875 3.82812C4.4 3.63437 4.06875 3.46875 3.7875 3.32812L3.34063 4.225Z" fill="black"/>
<path d="M15.7624 5.5C16.728 5.5 17.5124 4.71563 17.5124 3.75C17.5124 2.78438 16.728 2 15.7624 2C14.7968 2 14.0124 2.78438 14.0124 3.75C14.0124 4.71563 14.7968 5.5 15.7624 5.5ZM16.2374 9.55313L15.9655 10.0938L16.4593 10.3406L17.353 8.55313C16.8999 8.32813 16.0155 7.88438 14.6968 7.225C13.2312 5.025 12.4562 3.86563 12.378 3.74375C12.278 3.7875 10.9374 4.38438 8.35615 5.53125C8.32803 5.54375 8.2999 5.55625 8.27178 5.57188L16.2343 9.55313H16.2374ZM12.3249 12.0813L12.7874 11.4312C12.6124 11.2344 11.903 10.4344 10.653 9.02812L7.16553 7.3625C7.16553 7.82812 7.32803 8.3 7.67178 8.6875L10.2343 11.5688L8.2874 14.2937L10.0812 15.225L12.3249 12.0813Z" fill="black"/>
</svg>
