<svg width="20" height="20" viewBox="0 0 20 20" fill="none" xmlns="http://www.w3.org/2000/svg">
<path opacity="0.4" d="M3.0188 9.5H6.01255C6.12817 6.97813 7.10942 4.625 8.18442 3.2375C5.35317 3.99688 3.2313 6.48438 3.0188 9.5ZM3.0188 10.5C3.2313 13.5156 5.35317 16.0031 8.18442 16.7625C7.10942 15.375 6.12817 13.0219 6.01255 10.5H3.0188ZM7.01255 9.5H12.9875C12.9 7.77188 12.3657 6.125 11.6907 4.88438C11.3219 4.20313 10.925 3.68125 10.5719 3.34375C10.3719 3.15313 10.2219 3.05313 10.125 3.00313C10.0407 3.00313 9.9563 3.00313 9.87192 3.00313C9.77505 3.05313 9.62505 3.15 9.42505 3.34375C9.07192 3.68125 8.67817 4.20625 8.3063 4.88438C7.6313 6.125 7.10005 7.775 7.00942 9.5H7.01255ZM7.01255 10.5C7.10005 12.2281 7.63442 13.875 8.30942 15.1156C8.67817 15.7969 9.07505 16.3188 9.42817 16.6563C9.62817 16.8469 9.77817 16.9469 9.87505 16.9969C9.9188 16.9969 9.95942 16.9969 10.0032 16.9969C10.0469 16.9969 10.0875 16.9969 10.1313 16.9969C10.2282 16.9469 10.3782 16.85 10.5782 16.6563C10.9313 16.3188 11.325 15.7938 11.6969 15.1156C12.3719 13.875 12.9032 12.225 12.9938 10.5H7.0188H7.01255ZM11.8157 3.2375C12.8907 4.625 13.8719 6.97813 13.9875 9.5H16.9813C16.7688 6.48438 14.6469 3.99688 11.8157 3.2375ZM11.8157 16.7625C14.6469 16.0031 16.7688 13.5156 16.9813 10.5H13.9875C13.8719 13.0219 12.8907 15.375 11.8157 16.7625Z" fill="#333333"/>
<path d="M10 17C9.95625 17 9.91562 17 9.87187 17C9.775 16.95 9.625 16.8531 9.425 16.6594C9.07188 16.3219 8.67812 15.7969 8.30625 15.1187C7.63125 13.8781 7.1 12.2281 7.00938 10.5031H12.9844C12.8969 12.2312 12.3625 13.8781 11.6875 15.1187C11.3188 15.8 10.9219 16.3219 10.5688 16.6594C10.3688 16.85 10.2188 16.95 10.1219 17C10.0781 17 10.0375 17 9.99375 17H10ZM7.0125 9.5C7.1 7.77187 7.63437 6.125 8.30937 4.88438C8.67812 4.20312 9.075 3.68125 9.42813 3.34375C9.62813 3.15313 9.77812 3.05312 9.875 3.00312C9.95937 3.00312 10.0437 3.00312 10.1281 3.00312C10.225 3.05312 10.375 3.15 10.575 3.34375C10.9281 3.68125 11.3219 4.20625 11.6938 4.88438C12.3688 6.125 12.9 7.775 12.9906 9.5H7.01562H7.0125ZM13.9875 10.5H16.9813C16.7688 13.5156 14.6469 16.0031 11.8156 16.7625C12.8906 15.375 13.8719 13.0219 13.9875 10.5ZM16.9813 9.5H13.9875C13.8719 6.97813 12.8906 4.625 11.8156 3.2375C14.6469 3.99687 16.7688 6.48438 16.9813 9.5ZM6.00938 9.5H3.01562C3.23125 6.48438 5.35312 3.99687 8.18437 3.2375C7.10938 4.625 6.12812 6.97813 6.0125 9.5H6.00938ZM3.01875 10.5H6.0125C6.12812 13.0219 7.10938 15.375 8.18437 16.7625C5.35312 16.0031 3.23125 13.5156 3.01875 10.5ZM10 18C14.4187 18 18 14.4187 18 10C18 5.58125 14.4187 2 10 2C5.58125 2 2 5.58125 2 10C2 14.4187 5.58125 18 10 18Z" fill="#333333"/>
</svg>
